<svg width="65" height="89" viewBox="0 0 65 89" fill="none" xmlns="http://www.w3.org/2000/svg">
<path d="M52.8114 25.6305C46.2608 21.0567 35.7728 22.6911 31.3477 24.08C46.9295 24.08 53.2798 32.0583 54.5072 36.0474C56.3289 37.6754 60.5958 39.3421 62.5016 39.9719C62.0009 37.0972 59.362 30.2042 52.8114 25.6305Z" fill="url(#paint0_linear_224_3674)"/>
<path d="M52.8114 25.6305C46.2608 21.0567 35.7728 22.6911 31.3477 24.08C46.9295 24.08 53.2798 32.0583 54.5072 36.0474C56.3289 37.6754 60.5958 39.3421 62.5016 39.9719C62.0009 37.0972 59.362 30.2042 52.8114 25.6305Z" fill="url(#paint1_linear_224_3674)"/>
<path d="M58.0928 63.4221C65.7674 48.6155 59.1587 38.8736 54.895 35.8535L55.9609 44.9138C56.4293 46.4158 57.2594 49.8946 56.8331 51.7939C56.4067 53.6931 57.4952 60.3374 58.0928 63.4221Z" fill="url(#paint2_linear_224_3674)"/>
<path d="M58.0928 63.4221C65.7674 48.6155 59.1587 38.8736 54.895 35.8535L55.9609 44.9138C56.4293 46.4158 57.2594 49.8946 56.8331 51.7939C56.4067 53.6931 57.4952 60.3374 58.0928 63.4221Z" fill="url(#paint3_linear_224_3674)"/>
<path d="M55.4766 63.1811C59.9341 57.4445 57.8184 46.1909 56.2033 41.2812C53.9261 46.0779 48.6353 57.2216 45.6895 63.4233C42.0072 71.1755 44.5597 77.1834 44.5267 77.4256C45.0596 72.9197 49.9047 70.3518 55.4766 63.1811Z" fill="url(#paint4_linear_224_3674)"/>
<path d="M55.4766 63.1811C59.9341 57.4445 57.8184 46.1909 56.2033 41.2812C53.9261 46.0779 48.6353 57.2216 45.6895 63.4233C42.0072 71.1755 44.5597 77.1834 44.5267 77.4256C45.0596 72.9197 49.9047 70.3518 55.4766 63.1811Z" fill="url(#paint5_linear_224_3674)"/>
<path d="M13.7588 13.1777C16.0145 17.3225 20.5422 25.6497 20.5061 25.7709L18.561 25.9334L13.7588 13.1777Z" fill="#504860"/>
<path d="M13.751 13.2031C15.9849 17.3597 20.3846 25.735 20.5058 25.7711L21.7973 24.2044L13.751 13.2031Z" fill="url(#paint6_linear_224_3674)"/>
<path d="M13.751 13.2031C15.9849 17.3597 20.3846 25.735 20.5058 25.7711L21.7973 24.2044L13.751 13.2031Z" fill="url(#paint7_linear_224_3674)"/>
<path d="M4.26416 21.6367C7.84653 24.7082 15.0399 30.8806 15.0492 31.0067L13.2892 31.8504L4.26416 21.6367Z" fill="#504860"/>
<path d="M4.2666 21.6641C7.83275 24.7543 14.9236 31.0171 15.0497 31.0078L15.6995 29.0842L4.2666 21.6641Z" fill="url(#paint8_linear_224_3674)"/>
<path d="M4.2666 21.6641C7.83275 24.7543 14.9236 31.0171 15.0497 31.0078L15.6995 29.0842L4.2666 21.6641Z" fill="url(#paint9_linear_224_3674)"/>
<path d="M33.8186 78.3937C34.7876 72.9285 42.6851 67.137 46.5128 64.9244C53.8773 58.4514 54.6202 48.0473 54.0711 43.6545L45.5438 41.668C44.3809 44.6719 41.5708 51.1256 39.6327 52.9086C37.2102 55.1373 25.7273 56.0094 25.1944 68.9943C24.768 79.3821 31.0892 86.4689 34.2062 88.5684C33.5118 87.551 32.8496 83.859 33.8186 78.3937Z" fill="url(#paint10_linear_224_3674)"/>
<path d="M33.8186 78.3937C34.7876 72.9285 42.6851 67.137 46.5128 64.9244C53.8773 58.4514 54.6202 48.0473 54.0711 43.6545L45.5438 41.668C44.3809 44.6719 41.5708 51.1256 39.6327 52.9086C37.2102 55.1373 25.7273 56.0094 25.1944 68.9943C24.768 79.3821 31.0892 86.4689 34.2062 88.5684C33.5118 87.551 32.8496 83.859 33.8186 78.3937Z" fill="url(#paint11_linear_224_3674)"/>
<path d="M54.4588 34.6914C50.1952 24.1485 36.7904 23.2893 30.621 24.1776C39.3034 25.3792 41.7647 33.2541 42.0554 37.0655C42.0554 43.2188 37.6948 51.3585 30.4272 56.6881C23.3168 61.9024 24.0963 67.7995 25.1945 70.4482C25.9374 67.9287 28.8768 62.1534 34.6909 59.2076C40.505 56.2618 43.3797 50.0342 44.0903 47.2887C44.7687 57.9479 39.693 62.2482 39.972 62.1631C48.5478 59.5467 51.8102 49.9696 52.1332 46.7073C51.9006 49.1104 53.5867 52.2307 54.4588 53.4904C56.2354 51.6169 58.7225 45.2343 54.4588 34.6914Z" fill="url(#paint12_linear_224_3674)"/>
<path d="M54.4588 34.6914C50.1952 24.1485 36.7904 23.2893 30.621 24.1776C39.3034 25.3792 41.7647 33.2541 42.0554 37.0655C42.0554 43.2188 37.6948 51.3585 30.4272 56.6881C23.3168 61.9024 24.0963 67.7995 25.1945 70.4482C25.9374 67.9287 28.8768 62.1534 34.6909 59.2076C40.505 56.2618 43.3797 50.0342 44.0903 47.2887C44.7687 57.9479 39.693 62.2482 39.972 62.1631C48.5478 59.5467 51.8102 49.9696 52.1332 46.7073C51.9006 49.1104 53.5867 52.2307 54.4588 53.4904C56.2354 51.6169 58.7225 45.2343 54.4588 34.6914Z" fill="url(#paint13_linear_224_3674)"/>
<path d="M0.749023 9.59375C6.66822 15.9413 18.5529 28.6964 18.5441 28.9288L15.1543 30.1106L0.749023 9.59375Z" fill="#504860"/>
<path d="M0.74707 9.64062C6.63278 16.0193 18.3116 28.9186 18.544 28.9273L20.1256 25.5443L0.74707 9.64062Z" fill="url(#paint14_linear_224_3674)"/>
<path d="M0.74707 9.64062C6.63278 16.0193 18.3116 28.9186 18.544 28.9273L20.1256 25.5443L0.74707 9.64062Z" fill="url(#paint15_linear_224_3674)"/>
<path d="M27.2217 10.3672C27.368 15.0837 27.658 24.5578 27.5711 24.6498L25.7615 23.9185L27.2217 10.3672Z" fill="#504860"/>
<path d="M27.2036 10.3867C27.3251 15.104 27.4792 24.5633 27.5711 24.6501L29.43 23.8334L27.2036 10.3867Z" fill="url(#paint16_linear_224_3674)"/>
<path d="M27.2036 10.3867C27.3251 15.104 27.4792 24.5633 27.5711 24.6501L29.43 23.8334L27.2036 10.3867Z" fill="url(#paint17_linear_224_3674)"/>
<path d="M40.9927 12.6934C38.9201 16.9326 34.7534 25.4463 34.6337 25.487L33.3748 23.9954L40.9927 12.6934Z" fill="#504860"/>
<path d="M40.9678 12.7031C38.8729 16.9314 34.593 25.3686 34.6337 25.4883L36.6589 25.6338L40.9678 12.7031Z" fill="url(#paint18_linear_224_3674)"/>
<path d="M40.9678 12.7031C38.8729 16.9314 34.593 25.3686 34.6337 25.4883L36.6589 25.6338L40.9678 12.7031Z" fill="url(#paint19_linear_224_3674)"/>
<path d="M51.8203 22.5957C47.8718 25.1795 39.9383 30.3663 39.8146 30.3401L39.4951 28.4146L51.8203 22.5957Z" fill="#504860"/>
<path d="M51.7944 22.5918C47.8323 25.1548 39.8406 30.218 39.8145 30.3417L41.4806 31.5021L51.7944 22.5918Z" fill="url(#paint20_linear_224_3674)"/>
<path d="M51.7944 22.5918C47.8323 25.1548 39.8406 30.218 39.8145 30.3417L41.4806 31.5021L51.7944 22.5918Z" fill="url(#paint21_linear_224_3674)"/>
<path d="M17.2588 0.970703C19.6158 9.32374 24.3436 26.1043 24.2294 26.3069L20.6746 25.8059L17.2588 0.970703Z" fill="#504860"/>
<path d="M17.2354 1.01367C19.5484 9.379 24.0271 26.1935 24.2298 26.3076L27.1845 24.0238L17.2354 1.01367Z" fill="url(#paint22_linear_224_3674)"/>
<path d="M17.2354 1.01367C19.5484 9.379 24.0271 26.1935 24.2298 26.3076L27.1845 24.0238L17.2354 1.01367Z" fill="url(#paint23_linear_224_3674)"/>
<path d="M34.9736 0C33.6913 8.58396 31.1084 25.8254 30.9211 25.9632L27.8859 24.0462L34.9736 0Z" fill="#504860"/>
<path d="M34.9346 0.0292969C33.607 8.60639 30.7832 25.7765 30.9211 25.9638L34.5532 25.0954L34.9346 0.0292969Z" fill="url(#paint24_linear_224_3674)"/>
<path d="M34.9346 0.0292969C33.607 8.60639 30.7832 25.7765 30.9211 25.9638L34.5532 25.0954L34.9346 0.0292969Z" fill="url(#paint25_linear_224_3674)"/>
<path d="M53.623 8.82031C48.0034 15.4346 36.7099 28.7159 36.478 28.7341L34.9118 25.5039L53.623 8.82031Z" fill="#504860"/>
<path d="M53.5747 8.82422C47.9203 15.4088 36.4598 28.5024 36.478 28.7342L40.0214 29.9136L53.5747 8.82422Z" fill="url(#paint26_linear_224_3674)"/>
<path d="M53.5747 8.82422C47.9203 15.4088 36.4598 28.5024 36.478 28.7342L40.0214 29.9136L53.5747 8.82422Z" fill="url(#paint27_linear_224_3674)"/>
<path d="M64.0889 24.5645C55.9823 27.6649 39.6963 33.886 39.4842 33.7906L39.6627 30.2051L64.0889 24.5645Z" fill="#504860"/>
<path d="M64.0444 24.5449C55.9217 27.6026 39.5794 33.5789 39.4839 33.791L42.0248 36.5278L64.0444 24.5449Z" fill="url(#paint28_linear_224_3674)"/>
<path d="M10.0779 42.1021C9.34149 45.3968 10.5301 48.7237 11.1439 49.8542C13.9346 45.7456 19.5259 43.491 21.9969 42.8289C27.811 48.2069 32.6561 43.2649 33.6251 40.3094C32.5107 52.5675 15.892 54.4571 16.7642 70.1068C17.4619 82.6265 28.7154 87.6298 34.2549 88.5666C30.0882 85.5141 25.0977 78.7795 25.0977 68.4594C25.0977 60.8 28.8769 58.5636 32.4138 55.3776C34.5295 53.4719 38.4398 49.515 40.0206 45.4452C42.2978 39.5827 40.0206 30.91 30.7665 28.2452C21.5123 25.5804 16.425 32.2181 15.3106 34.6407C14.4191 36.5787 11.5315 40.4709 10.0779 42.1021Z" fill="url(#paint29_linear_224_3674)"/>
<path d="M10.6594 53.5879C11.2408 52.8902 12.6136 52.199 13.2273 51.9406C13.2273 51.0103 13.5503 49.8733 13.7118 49.4211C17.0452 46.9792 20.0427 46.0457 21.1248 45.8842C30.1948 50.6518 33.3344 43.8977 33.7705 39.9247C30.3208 47.1342 24.5486 44.8344 22.0938 42.7833C16.1634 43.9074 12.3875 47.8384 11.2408 49.6634C10.1942 48.423 10.191 44.1723 10.3202 42.2019C11.5961 40.8776 14.4385 37.5797 15.6014 34.9827C16.7642 32.3858 18.1531 31.1874 18.7022 30.9129C21.0925 28.7487 27.6366 25.622 34.691 30.4284C41.7455 35.2347 40.925 42.9448 39.7299 46.1749C41.009 44.5082 41.8779 40.167 42.0556 38.229C42.7145 26.6395 32.8983 23.3107 25.873 23.5968C17.3068 23.9456 12.1614 31.9465 10.6594 35.9033C7.09339 38.7328 4.29616 41.992 3.34329 43.2678C2.76188 47.0664 3.97315 50.6324 4.65146 51.9406C6.5895 51.9406 9.46425 53.0388 10.6594 53.5879Z" fill="#504860"/>
<path d="M6.39542 46.3177C7.28369 46.1885 8.89549 45.3584 8.23656 43.0715C7.36444 43.0392 5.77525 43.6432 6.39542 46.3177Z" fill="#EF1D1E"/>
<path d="M22.0453 34.0118C19.8747 34.9421 17.3294 37.1773 16.3281 38.1786C18.46 31.2792 23.4827 29.522 25.7276 29.5059C25.4046 30.6202 24.2159 33.0815 22.0453 34.0118Z" fill="#EF1D1E"/>
<defs>
<linearGradient id="paint0_linear_224_3674" x1="68.3157" y1="44.4779" x2="53.516" y2="11.4165" gradientUnits="userSpaceOnUse">
<stop stop-color="#23DAE6"/>
<stop offset="1" stop-color="#028FBC"/>
</linearGradient>
<linearGradient id="paint1_linear_224_3674" x1="59.4154" y1="39.4909" x2="47.5123" y2="17.7525" gradientUnits="userSpaceOnUse">
<stop stop-color="#EF1D1E"/>
<stop offset="1" stop-color="#4F0000"/>
</linearGradient>
<linearGradient id="paint2_linear_224_3674" x1="54.9435" y1="34.3031" x2="58.2586" y2="63.4221" gradientUnits="userSpaceOnUse">
<stop stop-color="#05447D"/>
<stop offset="1" stop-color="#40B3D8"/>
</linearGradient>
<linearGradient id="paint3_linear_224_3674" x1="69.7542" y1="84.2715" x2="47.9014" y2="80.2261" gradientUnits="userSpaceOnUse">
<stop stop-color="#EF1D1E"/>
<stop offset="1" stop-color="#4F0000"/>
</linearGradient>
<linearGradient id="paint4_linear_224_3674" x1="51.7459" y1="44.9635" x2="50.9208" y2="77.4256" gradientUnits="userSpaceOnUse">
<stop stop-color="#05447D"/>
<stop offset="1" stop-color="#40D8D8"/>
</linearGradient>
<linearGradient id="paint5_linear_224_3674" x1="56.7143" y1="76.4238" x2="43.1026" y2="61.9712" gradientUnits="userSpaceOnUse">
<stop stop-color="#4F0000"/>
<stop offset="1" stop-color="#EF1D1E"/>
</linearGradient>
<linearGradient id="paint6_linear_224_3674" x1="21.0275" y1="26.5503" x2="15.7636" y2="14.1052" gradientUnits="userSpaceOnUse">
<stop stop-color="#23DAE6"/>
<stop offset="1" stop-color="#33F498"/>
</linearGradient>
<linearGradient id="paint7_linear_224_3674" x1="21.261" y1="24.9505" x2="15.7636" y2="14.1052" gradientUnits="userSpaceOnUse">
<stop stop-color="#EF1D1E"/>
<stop offset="1" stop-color="#4F0000"/>
</linearGradient>
<linearGradient id="paint8_linear_224_3674" x1="14.9239" y1="31.7852" x2="6.46845" y2="21.7914" gradientUnits="userSpaceOnUse">
<stop stop-color="#23DAE6"/>
<stop offset="1" stop-color="#33F498"/>
</linearGradient>
<linearGradient id="paint9_linear_224_3674" x1="15.4637" y1="29.9723" x2="6.46845" y2="21.7914" gradientUnits="userSpaceOnUse">
<stop stop-color="#EF1D1E"/>
<stop offset="1" stop-color="#4F0000"/>
</linearGradient>
<linearGradient id="paint10_linear_224_3674" x1="38.2761" y1="101.359" x2="26.8622" y2="51.6902" gradientUnits="userSpaceOnUse">
<stop stop-color="#33F498"/>
<stop offset="1" stop-color="#0492B0"/>
</linearGradient>
<linearGradient id="paint11_linear_224_3674" x1="51.3369" y1="87.2684" x2="35.0646" y2="56.9354" gradientUnits="userSpaceOnUse">
<stop stop-color="#EF1D1E"/>
<stop offset="1" stop-color="#4F0000"/>
</linearGradient>
<linearGradient id="paint12_linear_224_3674" x1="40.6477" y1="23.9141" x2="40.6477" y2="70.4482" gradientUnits="userSpaceOnUse">
<stop stop-color="#05E278"/>
<stop offset="0.47524" stop-color="#64FF8F"/>
<stop offset="1" stop-color="#0EAACB"/>
</linearGradient>
<linearGradient id="paint13_linear_224_3674" x1="53.6103" y1="69.1583" x2="29.9334" y2="37.675" gradientUnits="userSpaceOnUse">
<stop stop-color="#EF1D1E"/>
<stop offset="1" stop-color="#4F0000"/>
</linearGradient>
<linearGradient id="paint14_linear_224_3674" x1="16.8606" y1="28.9726" x2="4.74566" y2="10.3241" gradientUnits="userSpaceOnUse">
<stop stop-color="#23DAE6"/>
<stop offset="1" stop-color="#33F498"/>
</linearGradient>
<linearGradient id="paint15_linear_224_3674" x1="19.5128" y1="27.1193" x2="4.74566" y2="10.3241" gradientUnits="userSpaceOnUse">
<stop stop-color="#EF1D1E"/>
<stop offset="1" stop-color="#4F0000"/>
</linearGradient>
<linearGradient id="paint16_linear_224_3674" x1="28.1018" y1="24.9028" x2="28.5939" y2="12.0989" gradientUnits="userSpaceOnUse">
<stop stop-color="#23DAE6"/>
<stop offset="1" stop-color="#33F498"/>
</linearGradient>
<linearGradient id="paint17_linear_224_3674" x1="28.6151" y1="24.2579" x2="28.5939" y2="12.0989" gradientUnits="userSpaceOnUse">
<stop stop-color="#EF1D1E"/>
<stop offset="1" stop-color="#4F0000"/>
</linearGradient>
<linearGradient id="paint18_linear_224_3674" x1="35.7573" y1="26.7454" x2="41.3979" y2="14.8663" gradientUnits="userSpaceOnUse">
<stop stop-color="#23DAE6"/>
<stop offset="1" stop-color="#33F498"/>
</linearGradient>
<linearGradient id="paint19_linear_224_3674" x1="35.74" y1="25.6288" x2="41.3979" y2="14.8663" gradientUnits="userSpaceOnUse">
<stop stop-color="#EF1D1E"/>
<stop offset="1" stop-color="#4F0000"/>
</linearGradient>
<linearGradient id="paint20_linear_224_3674" x1="40.1178" y1="30.6214" x2="51.0582" y2="24.6708" gradientUnits="userSpaceOnUse">
<stop stop-color="#23DAE6"/>
<stop offset="1" stop-color="#33F498"/>
</linearGradient>
<linearGradient id="paint21_linear_224_3674" x1="40.6935" y1="31.028" x2="51.0582" y2="24.6708" gradientUnits="userSpaceOnUse">
<stop stop-color="#EF1D1E"/>
<stop offset="1" stop-color="#4F0000"/>
</linearGradient>
<linearGradient id="paint22_linear_224_3674" x1="26.0671" y1="25.8752" x2="20.4775" y2="3.45173" gradientUnits="userSpaceOnUse">
<stop stop-color="#23DAE6"/>
<stop offset="1" stop-color="#33F498"/>
</linearGradient>
<linearGradient id="paint23_linear_224_3674" x1="25.9187" y1="25.1436" x2="20.4775" y2="3.45173" gradientUnits="userSpaceOnUse">
<stop stop-color="#EF1D1E"/>
<stop offset="1" stop-color="#4F0000"/>
</linearGradient>
<linearGradient id="paint24_linear_224_3674" x1="31.397" y1="27.7145" x2="36.889" y2="3.584" gradientUnits="userSpaceOnUse">
<stop stop-color="#23DAE6"/>
<stop offset="1" stop-color="#33F498"/>
</linearGradient>
<linearGradient id="paint25_linear_224_3674" x1="32.9391" y1="25.5963" x2="36.889" y2="3.584" gradientUnits="userSpaceOnUse">
<stop stop-color="#EF1D1E"/>
<stop offset="1" stop-color="#4F0000"/>
</linearGradient>
<linearGradient id="paint26_linear_224_3674" x1="37.7926" y1="30.6233" x2="53.3587" y2="12.875" gradientUnits="userSpaceOnUse">
<stop stop-color="#23DAE6"/>
<stop offset="1" stop-color="#33F498"/>
</linearGradient>
<linearGradient id="paint27_linear_224_3674" x1="38.386" y1="29.4872" x2="53.3587" y2="12.8751" gradientUnits="userSpaceOnUse">
<stop stop-color="#EF1D1E"/>
<stop offset="1" stop-color="#4F0000"/>
</linearGradient>
<linearGradient id="paint28_linear_224_3674" x1="40.7955" y1="35.3681" x2="61.9086" y2="27.9937" gradientUnits="userSpaceOnUse">
<stop stop-color="#EF1D1E"/>
<stop offset="1" stop-color="#4F0000"/>
</linearGradient>
<linearGradient id="paint29_linear_224_3674" x1="25.3424" y1="27.625" x2="25.3424" y2="88.5666" gradientUnits="userSpaceOnUse">
<stop offset="0.449833" stop-color="#31282F"/>
<stop offset="1" stop-color="#3A3B4D"/>
</linearGradient>
</defs>
</svg>
