<svg width="14" height="15" viewBox="0 0 14 15" fill="none" xmlns="http://www.w3.org/2000/svg">
<g clip-path="url(#clip0_2188_2317)">
<path d="M12.7477 2.33545L11.5811 1.16877C11.4671 1.05483 11.2825 1.05483 11.1686 1.16877C11.0547 1.28271 11.0547 1.46729 11.1686 1.5812L12.1291 2.54165L11.1686 3.5021C11.1139 3.55679 11.0832 3.63083 11.0832 3.70832V4.58332C11.0832 5.22678 11.6064 5.75 12.2499 5.75V10.7083C12.2499 10.8692 12.1191 11 11.9582 11C11.7973 11 11.6665 10.8693 11.6665 10.7083V10.125C11.6665 9.64249 11.274 9.25 10.7915 9.25H10.4999V1.66668C10.4999 1.02322 9.97663 0.5 9.33318 0.5H3.49986C2.85643 0.5 2.33318 1.02322 2.33318 1.66668V12.1667C1.68975 12.1667 1.1665 12.6899 1.1665 13.3334V14.2084C1.1665 14.3696 1.29696 14.5 1.45818 14.5H11.3749C11.5361 14.5 11.6665 14.3696 11.6665 14.2084V13.3334C11.6665 12.6899 11.1433 12.1667 10.4999 12.1667V9.83335H10.7915C10.9524 9.83335 11.0832 9.96408 11.0832 10.125V10.7084C11.0832 11.1909 11.4757 11.5834 11.9582 11.5834C12.4407 11.5834 12.8332 11.1909 12.8332 10.7084V2.54168C12.8332 2.46418 12.8024 2.39014 12.7477 2.33545ZM9.33318 5.46374C9.33318 5.62496 9.20272 5.75541 9.0415 5.75541H3.7915C3.63029 5.75541 3.49983 5.62496 3.49983 5.46374V1.95832C3.49983 1.79711 3.63029 1.66665 3.7915 1.66665H9.0415C9.20272 1.66665 9.33318 1.79711 9.33318 1.95832V5.46374Z" fill="#D4D4D4"/>
</g>
<defs>
<clipPath id="clip0_2188_2317">
<rect width="14" height="14" fill="white" transform="translate(0 0.5)"/>
</clipPath>
</defs>
</svg>
