<svg width="43" height="42" viewBox="0 0 43 42" fill="none" xmlns="http://www.w3.org/2000/svg">
<circle cx="21.5" cy="21" r="21" fill="#EF1D1E" fill-opacity="0.2"/>
<path d="M27.521 17.4648H33.521V11.4648" stroke="#EF1D1E" stroke-width="2" stroke-linecap="round" stroke-linejoin="round"/>
<path d="M13.7217 13.2218C14.7431 12.2004 15.9558 11.3901 17.2903 10.8373C18.6249 10.2845 20.0553 10 21.4999 10C22.9444 10 24.3748 10.2845 25.7094 10.8373C27.044 11.3901 28.2566 12.2004 29.278 13.2218L33.5207 17.4645" stroke="#EF1D1E" stroke-width="2" stroke-linecap="round" stroke-linejoin="round"/>
<path d="M15.479 24.5352H9.479V30.5352" stroke="#EF1D1E" stroke-width="2" stroke-linecap="round" stroke-linejoin="round"/>
<path d="M29.2785 28.7778C28.257 29.7992 27.0444 30.6095 25.7098 31.1623C24.3752 31.7151 22.9448 31.9996 21.5003 31.9996C20.0558 31.9996 18.6254 31.7151 17.2908 31.1623C15.9562 30.6095 14.7436 29.7992 13.7221 28.7778L9.47949 24.5352" stroke="#EF1D1E" stroke-width="2" stroke-linecap="round" stroke-linejoin="round"/>
</svg>
