<svg width="1679" height="804" viewBox="0 0 1679 804" fill="none" xmlns="http://www.w3.org/2000/svg">
<g opacity="0.2" clip-path="url(#clip0_3262_2256)">
<path d="M1424.13 605.456H1413.37V611.913H1424.13V605.456Z" fill="#33E6BF"/>
<path d="M1413.37 611.913H1406.91V618.37H1413.37V611.913Z" fill="#33E6BF"/>
<path d="M1406.91 618.37H1400.46V629.13H1406.91V618.37Z" fill="#33E6BF"/>
<path d="M1406.91 667.87H1400.46V678.63H1406.91V667.87Z" fill="#33E6BF"/>
<path d="M1413.37 678.63H1406.91V685.087H1413.37V678.63Z" fill="#33E6BF"/>
<path d="M1424.13 685.087H1413.37V691.543H1424.13V685.087Z" fill="#33E6BF"/>
<path d="M1462.87 599H1424.13V605.456H1462.87V599Z" fill="#33E6BF"/>
<path d="M1462.87 691.544H1424.13V698H1462.87V691.544Z" fill="#33E6BF"/>
<path d="M1400.46 629.13H1394V667.87H1400.46V629.13Z" fill="#33E6BF"/>
<path d="M1473.63 605.456H1462.87V611.913H1473.63V605.456Z" fill="#33E6BF"/>
<path d="M1480.09 611.913H1473.63V618.37H1480.09V611.913Z" fill="#33E6BF"/>
<path d="M1486.54 618.37H1480.09V629.13H1486.54V618.37Z" fill="#33E6BF"/>
<path d="M1486.54 667.87H1480.09V678.63H1486.54V667.87Z" fill="#33E6BF"/>
<path d="M1480.09 678.63H1473.63V685.087H1480.09V678.63Z" fill="#33E6BF"/>
<path d="M1473.63 685.087H1462.87V691.543H1473.63V685.087Z" fill="#33E6BF"/>
<path d="M1493 629.13H1486.54V667.87H1493V629.13Z" fill="#33E6BF"/>
<path d="M1415.52 633.435H1409.07V646.348H1415.52V633.435Z" fill="#33E6BF"/>
<path d="M1434.89 633.435H1428.43V646.348H1434.89V633.435Z" fill="#33E6BF"/>
<path d="M1428.43 626.978H1415.52V633.435H1428.43V626.978Z" fill="#33E6BF"/>
<path d="M1458.57 633.435H1452.11V646.348H1458.57V633.435Z" fill="#33E6BF"/>
<path d="M1477.93 633.435H1471.48V646.348H1477.93V633.435Z" fill="#33E6BF"/>
<path d="M1471.48 626.978H1458.57V633.435H1471.48V626.978Z" fill="#33E6BF"/>
<path d="M1454.26 678.63H1432.74V685.087H1454.26V678.63Z" fill="#33E6BF"/>
<path d="M1460.72 652.804H1426.28H1419.83V659.261V672.174H1426.28V659.261H1460.72V672.174H1467.17V659.261V652.804H1460.72Z" fill="#33E6BF"/>
<path d="M1432.74 672.174H1426.28V678.63H1432.74V672.174Z" fill="#33E6BF"/>
<path d="M1460.72 672.174H1454.26V678.63H1460.72V672.174Z" fill="#33E6BF"/>
</g>
<g opacity="0.2" clip-path="url(#clip1_3262_2256)">
<path d="M1497.13 488.456H1486.37V494.913H1497.13V488.456Z" fill="#33E6BF"/>
<path d="M1486.37 494.913H1479.91V501.37H1486.37V494.913Z" fill="#33E6BF"/>
<path d="M1479.91 501.37H1473.46V512.13H1479.91V501.37Z" fill="#33E6BF"/>
<path d="M1479.91 550.87H1473.46V561.63H1479.91V550.87Z" fill="#33E6BF"/>
<path d="M1486.37 561.63H1479.91V568.087H1486.37V561.63Z" fill="#33E6BF"/>
<path d="M1497.13 568.087H1486.37V574.543H1497.13V568.087Z" fill="#33E6BF"/>
<path d="M1535.87 482H1497.13V488.456H1535.87V482Z" fill="#33E6BF"/>
<path d="M1535.87 574.544H1497.13V581H1535.87V574.544Z" fill="#33E6BF"/>
<path d="M1473.46 512.13H1467V550.87H1473.46V512.13Z" fill="#33E6BF"/>
<path d="M1546.63 488.456H1535.87V494.913H1546.63V488.456Z" fill="#33E6BF"/>
<path d="M1553.09 494.913H1546.63V501.37H1553.09V494.913Z" fill="#33E6BF"/>
<path d="M1559.54 501.37H1553.09V512.13H1559.54V501.37Z" fill="#33E6BF"/>
<path d="M1559.54 550.87H1553.09V561.63H1559.54V550.87Z" fill="#33E6BF"/>
<path d="M1553.09 561.63H1546.63V568.087H1553.09V561.63Z" fill="#33E6BF"/>
<path d="M1546.63 568.087H1535.87V574.543H1546.63V568.087Z" fill="#33E6BF"/>
<path d="M1566 512.13H1559.54V550.87H1566V512.13Z" fill="#33E6BF"/>
<path d="M1488.52 516.435H1482.07V529.348H1488.52V516.435Z" fill="#33E6BF"/>
<path d="M1507.89 516.435H1501.43V529.348H1507.89V516.435Z" fill="#33E6BF"/>
<path d="M1501.43 509.978H1488.52V516.435H1501.43V509.978Z" fill="#33E6BF"/>
<path d="M1531.57 516.435H1525.11V529.348H1531.57V516.435Z" fill="#33E6BF"/>
<path d="M1550.93 516.435H1544.48V529.348H1550.93V516.435Z" fill="#33E6BF"/>
<path d="M1544.48 509.978H1531.57V516.435H1544.48V509.978Z" fill="#33E6BF"/>
<path d="M1527.26 561.63H1505.74V568.087H1527.26V561.63Z" fill="#33E6BF"/>
<path d="M1533.72 535.804H1499.28H1492.83V542.261V555.174H1499.28V542.261H1533.72V555.174H1540.17V542.261V535.804H1533.72Z" fill="#33E6BF"/>
<path d="M1505.74 555.174H1499.28V561.63H1505.74V555.174Z" fill="#33E6BF"/>
<path d="M1533.72 555.174H1527.26V561.63H1533.72V555.174Z" fill="#33E6BF"/>
</g>
<g opacity="0.2" clip-path="url(#clip2_3262_2256)">
<path d="M1570.13 371.456H1559.37V377.913H1570.13V371.456Z" fill="#33E6BF"/>
<path d="M1559.37 377.913H1552.91V384.37H1559.37V377.913Z" fill="#33E6BF"/>
<path d="M1552.91 384.37H1546.46V395.13H1552.91V384.37Z" fill="#33E6BF"/>
<path d="M1552.91 433.87H1546.46V444.63H1552.91V433.87Z" fill="#33E6BF"/>
<path d="M1559.37 444.63H1552.91V451.087H1559.37V444.63Z" fill="#33E6BF"/>
<path d="M1570.13 451.087H1559.37V457.543H1570.13V451.087Z" fill="#33E6BF"/>
<path d="M1608.87 365H1570.13V371.456H1608.87V365Z" fill="#33E6BF"/>
<path d="M1608.87 457.544H1570.13V464H1608.87V457.544Z" fill="#33E6BF"/>
<path d="M1546.46 395.13H1540V433.87H1546.46V395.13Z" fill="#33E6BF"/>
<path d="M1619.63 371.456H1608.87V377.913H1619.63V371.456Z" fill="#33E6BF"/>
<path d="M1626.09 377.913H1619.63V384.37H1626.09V377.913Z" fill="#33E6BF"/>
<path d="M1632.54 384.37H1626.09V395.13H1632.54V384.37Z" fill="#33E6BF"/>
<path d="M1632.54 433.87H1626.09V444.63H1632.54V433.87Z" fill="#33E6BF"/>
<path d="M1626.09 444.63H1619.63V451.087H1626.09V444.63Z" fill="#33E6BF"/>
<path d="M1619.63 451.087H1608.87V457.543H1619.63V451.087Z" fill="#33E6BF"/>
<path d="M1639 395.13H1632.54V433.87H1639V395.13Z" fill="#33E6BF"/>
<path d="M1561.52 399.435H1555.07V412.348H1561.52V399.435Z" fill="#33E6BF"/>
<path d="M1580.89 399.435H1574.43V412.348H1580.89V399.435Z" fill="#33E6BF"/>
<path d="M1574.43 392.978H1561.52V399.435H1574.43V392.978Z" fill="#33E6BF"/>
<path d="M1604.57 399.435H1598.11V412.348H1604.57V399.435Z" fill="#33E6BF"/>
<path d="M1623.93 399.435H1617.48V412.348H1623.93V399.435Z" fill="#33E6BF"/>
<path d="M1617.48 392.978H1604.57V399.435H1617.48V392.978Z" fill="#33E6BF"/>
<path d="M1600.26 444.63H1578.74V451.087H1600.26V444.63Z" fill="#33E6BF"/>
<path d="M1606.72 418.804H1572.28H1565.83V425.261V438.174H1572.28V425.261H1606.72V438.174H1613.17V425.261V418.804H1606.72Z" fill="#33E6BF"/>
<path d="M1578.74 438.174H1572.28V444.63H1578.74V438.174Z" fill="#33E6BF"/>
<path d="M1606.72 438.174H1600.26V444.63H1606.72V438.174Z" fill="#33E6BF"/>
</g>
<g opacity="0.2" clip-path="url(#clip3_3262_2256)">
<path d="M35.1304 357.456H24.3696V363.913H35.1304V357.456Z" fill="#33E6BF"/>
<path d="M24.3696 363.913H17.9131V370.37H24.3696V363.913Z" fill="#33E6BF"/>
<path d="M17.9129 370.37H11.4565V381.13H17.9129V370.37Z" fill="#33E6BF"/>
<path d="M17.9129 419.87H11.4565V430.63H17.9129V419.87Z" fill="#33E6BF"/>
<path d="M24.3696 430.63H17.9131V437.087H24.3696V430.63Z" fill="#33E6BF"/>
<path d="M35.1304 437.087H24.3696V443.543H35.1304V437.087Z" fill="#33E6BF"/>
<path d="M73.8696 351H35.1304V357.456H73.8696V351Z" fill="#33E6BF"/>
<path d="M73.8696 443.544H35.1304V450H73.8696V443.544Z" fill="#33E6BF"/>
<path d="M11.4565 381.13H5V419.87H11.4565V381.13Z" fill="#33E6BF"/>
<path d="M84.6304 357.456H73.8696V363.913H84.6304V357.456Z" fill="#33E6BF"/>
<path d="M91.0869 363.913H84.6304V370.37H91.0869V363.913Z" fill="#33E6BF"/>
<path d="M97.5434 370.37H91.0869V381.13H97.5434V370.37Z" fill="#33E6BF"/>
<path d="M97.5434 419.87H91.0869V430.63H97.5434V419.87Z" fill="#33E6BF"/>
<path d="M91.0869 430.63H84.6304V437.087H91.0869V430.63Z" fill="#33E6BF"/>
<path d="M84.6304 437.087H73.8696V443.543H84.6304V437.087Z" fill="#33E6BF"/>
<path d="M104 381.13H97.5435V419.87H104V381.13Z" fill="#33E6BF"/>
<path d="M26.5216 385.435H20.0652V398.348H26.5216V385.435Z" fill="#33E6BF"/>
<path d="M45.8913 385.435H39.4348V398.348H45.8913V385.435Z" fill="#33E6BF"/>
<path d="M39.4348 378.978H26.5217V385.435H39.4348V378.978Z" fill="#33E6BF"/>
<path d="M69.5652 385.435H63.1088V398.348H69.5652V385.435Z" fill="#33E6BF"/>
<path d="M88.9348 385.435H82.4783V398.348H88.9348V385.435Z" fill="#33E6BF"/>
<path d="M82.4783 378.978H69.5652V385.435H82.4783V378.978Z" fill="#33E6BF"/>
<path d="M65.2608 430.63H43.7391V437.087H65.2608V430.63Z" fill="#33E6BF"/>
<path d="M71.7173 404.804H37.2827H30.826V411.261V424.174H37.2827V411.261H71.7173V424.174H78.174V411.261V404.804H71.7173Z" fill="#33E6BF"/>
<path d="M43.7392 424.174H37.2827V430.63H43.7392V424.174Z" fill="#33E6BF"/>
<path d="M71.7173 424.174H65.2609V430.63H71.7173V424.174Z" fill="#33E6BF"/>
</g>
<path opacity="0.2" d="M1379.38 272.875V297.875H1373.12V254.125H1379.38V263.5H1382.5V266.625H1385.62V269.75H1388.75V272.875H1391.88V276H1395V279.125H1398.12V254.125H1404.38V297.875H1398.12V288.5H1395V285.375H1391.88V282.25H1388.75V279.125H1385.62V276H1382.5V272.875H1379.38ZM1415.6 297.875V291.625H1421.85V260.375H1415.6V254.125H1434.35V260.375H1428.1V291.625H1434.35V297.875H1415.6ZM1454.94 291.625H1467.44V288.5H1470.57V285.375H1476.82V291.625H1473.69V294.75H1470.57V297.875H1451.82V294.75H1448.69V291.625H1445.57V260.375H1448.69V257.25H1451.82V254.125H1470.57V257.25H1473.69V260.375H1476.82V266.625H1470.57V263.5H1467.44V260.375H1454.94V263.5H1451.82V288.5H1454.94V291.625ZM1513.04 254.125V260.375H1488.04V272.875H1506.79V279.125H1488.04V291.625H1513.04V297.875H1481.79V254.125H1513.04ZM1533.63 291.625V297.875H1527.38V291.625H1533.63ZM1533.63 285.375H1527.38V254.125H1533.63V285.375ZM1569.85 291.625V297.875H1563.6V291.625H1569.85ZM1569.85 285.375H1563.6V254.125H1569.85V285.375ZM1606.07 291.625V297.875H1599.82V291.625H1606.07ZM1606.07 285.375H1599.82V254.125H1606.07V285.375ZM1642.29 291.625V297.875H1636.04V291.625H1642.29ZM1642.29 285.375H1636.04V254.125H1642.29V285.375Z" fill="#33E6BF"/>
<g opacity="0.2" clip-path="url(#clip4_3262_2256)">
<path d="M32.6086 60.8695H26.0869V67.3912H32.6086V60.8695Z" fill="#33E6BF"/>
<path d="M39.1305 67.3912H32.6088V73.9131H39.1305V80.4348H26.0869V86.9565H39.1305H43.4783H45.6521V73.9131V67.3912H39.1305Z" fill="#33E6BF"/>
<path d="M13.0433 41.3043H6.52167V47.826H13.0433V41.3043Z" fill="#33E6BF"/>
<path d="M19.5653 47.8262H13.0436V54.3478H19.5653V60.8695H26.0869V54.3478V47.8262H19.5653Z" fill="#33E6BF"/>
<path d="M19.5653 28.261H13.0436V34.7827H19.5653V41.3043H26.0869V28.261H19.5653Z" fill="#33E6BF"/>
<path d="M73.9131 86.9564V93.4783H26.0869V86.9564H19.5652V93.4783V100H26.0869H73.9131H80.4348V86.9564H73.9131Z" fill="#33E6BF"/>
<path d="M73.9129 60.8695H67.3912V67.3912H73.9129V60.8695Z" fill="#33E6BF"/>
<path d="M60.8695 80.4348V73.9131H67.3912V67.3912H60.8695H54.3478V73.9131V86.9565H56.5217H60.8695H73.9131V80.4348H60.8695Z" fill="#33E6BF"/>
<path d="M93.4781 41.3043H86.9564V47.826H93.4781V41.3043Z" fill="#33E6BF"/>
<path d="M80.4348 28.261H73.9131V41.3043H80.4348V34.7827H86.9564V28.261H80.4348Z" fill="#33E6BF"/>
<path d="M80.4348 47.8262H73.9131V54.3478V60.8695H80.4348V54.3478H86.9564V47.8262H80.4348Z" fill="#33E6BF"/>
<path d="M93.4783 15.2174H80.4348V0H76.0869H73.9131H26.0869H19.5652V6.52168V15.2174H6.52168H0V21.7391V41.3043H6.52168V21.7391H19.5652H26.0869V15.2174V6.52168H73.9131V15.2174V21.7391H80.4348H93.4783V41.3043H100V21.7391V15.2174H93.4783Z" fill="#33E6BF"/>
</g>
<g opacity="0.2" clip-path="url(#clip5_3262_2256)">
<path d="M1531.61 119.87H1525.09V126.391H1531.61V119.87Z" fill="#33E6BF"/>
<path d="M1538.13 126.391H1531.61V132.913H1538.13V139.435H1525.09V145.956H1538.13H1542.48H1544.65V132.913V126.391H1538.13Z" fill="#33E6BF"/>
<path d="M1512.04 100.304H1505.52V106.826H1512.04V100.304Z" fill="#33E6BF"/>
<path d="M1518.57 106.826H1512.04V113.348H1518.57V119.87H1525.09V113.348V106.826H1518.57Z" fill="#33E6BF"/>
<path d="M1518.57 87.261H1512.04V93.7827H1518.57V100.304H1525.09V87.261H1518.57Z" fill="#33E6BF"/>
<path d="M1572.91 145.956V152.478H1525.09V145.956H1518.57V152.478V159H1525.09H1572.91H1579.43V145.956H1572.91Z" fill="#33E6BF"/>
<path d="M1572.91 119.87H1566.39V126.391H1572.91V119.87Z" fill="#33E6BF"/>
<path d="M1559.87 139.435V132.913H1566.39V126.391H1559.87H1553.35V132.913V145.956H1555.52H1559.87H1572.91V139.435H1559.87Z" fill="#33E6BF"/>
<path d="M1592.48 100.304H1585.96V106.826H1592.48V100.304Z" fill="#33E6BF"/>
<path d="M1579.43 87.261H1572.91V100.304H1579.43V93.7827H1585.96V87.261H1579.43Z" fill="#33E6BF"/>
<path d="M1579.43 106.826H1572.91V113.348V119.87H1579.43V113.348H1585.96V106.826H1579.43Z" fill="#33E6BF"/>
<path d="M1592.48 74.2174H1579.43V59H1575.09H1572.91H1525.09H1518.57V65.5217V74.2174H1505.52H1499V80.7391V100.304H1505.52V80.7391H1518.57H1525.09V74.2174V65.5217H1572.91V74.2174V80.7391H1579.43H1592.48V100.304H1599V80.7391V74.2174H1592.48Z" fill="#33E6BF"/>
</g>
<g opacity="0.2">
<path d="M73.4675 652.464L73.4675 648L69 648L69 652.464L73.4675 652.464Z" fill="#33E6BF"/>
<path d="M73.4675 657.839L73.4675 653.375L69 653.375L69 657.839L73.4675 657.839Z" fill="#33E6BF"/>
<path d="M73.4675 663.213L73.4675 658.749L69 658.749L69 663.213L73.4675 663.213Z" fill="#33E6BF"/>
<path d="M73.4675 673.962L73.4675 669.498L69 669.498L69 673.962L73.4675 673.962Z" fill="#33E6BF"/>
<path d="M73.4675 679.331L73.4675 674.867L69 674.867L69 679.331L73.4675 679.331Z" fill="#33E6BF"/>
<path d="M73.4675 690.08L73.4675 685.616L69 685.616L69 690.08L73.4675 690.08Z" fill="#33E6BF"/>
<path d="M73.4675 695.454L73.4675 690.99L69 690.99L69 695.454L73.4675 695.454Z" fill="#33E6BF"/>
<path d="M73.4675 700.829L73.4675 696.365L69 696.365L69 700.829L73.4675 700.829Z" fill="#33E6BF"/>
<path d="M73.4675 706.203L73.4675 701.739L69 701.739L69 706.203L73.4675 706.203Z" fill="#33E6BF"/>
<path d="M73.4675 711.571L73.4675 707.107L69 707.107L69 711.571L73.4675 711.571Z" fill="#33E6BF"/>
<path d="M78.7766 652.464L78.7766 648L74.3092 648L74.3092 652.464L78.7766 652.464Z" fill="#33E6BF"/>
<path d="M78.7766 657.839L78.7766 653.375L74.3092 653.375L74.3092 657.839L78.7766 657.839Z" fill="#33E6BF"/>
<path d="M78.7766 663.213L78.7766 658.749L74.3092 658.749L74.3092 663.213L78.7766 663.213Z" fill="#33E6BF"/>
<path d="M78.7766 668.588L78.7766 664.124L74.3092 664.124L74.3092 668.588L78.7766 668.588Z" fill="#33E6BF"/>
<path d="M78.7766 679.331L78.7766 674.867L74.3092 674.867L74.3092 679.331L78.7766 679.331Z" fill="#33E6BF"/>
<path d="M78.7766 684.705L78.7766 680.241L74.3092 680.241L74.3092 684.705L78.7766 684.705Z" fill="#33E6BF"/>
<path d="M78.7766 690.08L78.7766 685.616L74.3092 685.616L74.3092 690.08L78.7766 690.08Z" fill="#33E6BF"/>
<path d="M78.7766 695.454L78.7766 690.99L74.3092 690.99L74.3092 695.454L78.7766 695.454Z" fill="#33E6BF"/>
<path d="M78.7766 706.203L78.7766 701.739L74.3092 701.739L74.3092 706.203L78.7766 706.203Z" fill="#33E6BF"/>
<path d="M78.7766 711.571L78.7766 707.107L74.3092 707.107L74.3092 711.571L78.7766 711.571Z" fill="#33E6BF"/>
<path d="M84.0857 652.464L84.0857 648L79.6183 648L79.6183 652.464L84.0857 652.464Z" fill="#33E6BF"/>
<path d="M84.0857 657.839L84.0857 653.375L79.6183 653.375L79.6183 657.839L84.0857 657.839Z" fill="#33E6BF"/>
<path d="M84.0857 663.213L84.0857 658.749L79.6183 658.749L79.6183 663.213L84.0857 663.213Z" fill="#33E6BF"/>
<path d="M84.0857 668.588L84.0857 664.124L79.6183 664.124L79.6183 668.588L84.0857 668.588Z" fill="#33E6BF"/>
<path d="M84.0857 673.962L84.0857 669.498L79.6183 669.498L79.6183 673.962L84.0857 673.962Z" fill="#33E6BF"/>
<path d="M84.0857 679.331L84.0857 674.867L79.6183 674.867L79.6183 679.331L84.0857 679.331Z" fill="#33E6BF"/>
<path d="M84.0857 684.705L84.0857 680.241L79.6183 680.241L79.6183 684.705L84.0857 684.705Z" fill="#33E6BF"/>
<path d="M84.0857 690.08L84.0857 685.616L79.6183 685.616L79.6183 690.08L84.0857 690.08Z" fill="#33E6BF"/>
<path d="M84.0857 695.454L84.0857 690.99L79.6183 690.99L79.6183 695.454L84.0857 695.454Z" fill="#33E6BF"/>
<path d="M84.0857 700.829L84.0857 696.365L79.6183 696.365L79.6183 700.829L84.0857 700.829Z" fill="#33E6BF"/>
<path d="M84.0857 706.203L84.0857 701.739L79.6183 701.739L79.6183 706.203L84.0857 706.203Z" fill="#33E6BF"/>
<path d="M73.4675 717.18L73.4675 712.716L69 712.716L69 717.18L73.4675 717.18Z" fill="#33E6BF"/>
<path d="M73.4675 727.923L73.4675 723.459L69 723.459L69 727.923L73.4675 727.923Z" fill="#33E6BF"/>
<path d="M73.4675 733.297L73.4675 728.833L69 728.833L69 733.297L73.4675 733.297Z" fill="#33E6BF"/>
<path d="M73.4675 744.047L73.4675 739.583L69 739.583L69 744.047L73.4675 744.047Z" fill="#33E6BF"/>
<path d="M73.4675 765.538L73.4675 761.074L69 761.074L69 765.538L73.4675 765.538Z" fill="#33E6BF"/>
<path d="M78.7766 717.18L78.7766 712.716L74.3092 712.716L74.3092 717.18L78.7766 717.18Z" fill="#33E6BF"/>
<path d="M78.7766 722.554L78.7766 718.09L74.3092 718.09L74.3092 722.554L78.7766 722.554Z" fill="#33E6BF"/>
<path d="M78.7766 733.297L78.7766 728.833L74.3092 728.833L74.3092 733.297L78.7766 733.297Z" fill="#33E6BF"/>
<path d="M78.7766 738.672L78.7766 734.208L74.3092 734.208L74.3092 738.672L78.7766 738.672Z" fill="#33E6BF"/>
<path d="M78.7766 744.047L78.7766 739.583L74.3092 739.583L74.3092 744.047L78.7766 744.047Z" fill="#33E6BF"/>
<path d="M78.7766 749.421L78.7766 744.957L74.3092 744.957L74.3092 749.421L78.7766 749.421Z" fill="#33E6BF"/>
<path d="M78.7766 760.164L78.7766 755.7L74.3092 755.7L74.3092 760.164L78.7766 760.164Z" fill="#33E6BF"/>
<path d="M84.0857 717.18L84.0857 712.716L79.6183 712.716L79.6183 717.18L84.0857 717.18Z" fill="#33E6BF"/>
<path d="M84.0857 727.923L84.0857 723.459L79.6183 723.459L79.6183 727.923L84.0857 727.923Z" fill="#33E6BF"/>
<path d="M84.0857 733.297L84.0857 728.833L79.6183 728.833L79.6183 733.297L84.0857 733.297Z" fill="#33E6BF"/>
<path d="M84.0857 738.672L84.0857 734.208L79.6183 734.208L79.6183 738.672L84.0857 738.672Z" fill="#33E6BF"/>
<path d="M84.0857 749.421L84.0857 744.957L79.6183 744.957L79.6183 749.421L84.0857 749.421Z" fill="#33E6BF"/>
<path d="M84.0857 754.789L84.0857 750.325L79.6183 750.325L79.6183 754.789L84.0857 754.789Z" fill="#33E6BF"/>
<path d="M84.0857 765.538L84.0857 761.074L79.6183 761.074L79.6183 765.538L84.0857 765.538Z" fill="#33E6BF"/>
<path d="M73.4675 776.521L73.4675 772.057L69 772.057L69 776.521L73.4675 776.521Z" fill="#33E6BF"/>
<path d="M78.7766 771.147L78.7766 766.683L74.3092 766.683L74.3092 771.147L78.7766 771.147Z" fill="#33E6BF"/>
<path d="M78.7766 787.264L78.7766 782.8L74.3092 782.8L74.3092 787.264L78.7766 787.264Z" fill="#33E6BF"/>
<path d="M78.7766 803.388L78.7766 798.924L74.3092 798.924L74.3092 803.388L78.7766 803.388Z" fill="#33E6BF"/>
<path d="M84.0857 781.89L84.0857 777.426L79.6183 777.426L79.6183 781.89L84.0857 781.89Z" fill="#33E6BF"/>
<path d="M84.0857 798.013L84.0857 793.549L79.6183 793.549L79.6183 798.013L84.0857 798.013Z" fill="#33E6BF"/>
</g>
<defs>
<clipPath id="clip0_3262_2256">
<rect width="99" height="99" fill="white" transform="translate(1394 599)"/>
</clipPath>
<clipPath id="clip1_3262_2256">
<rect width="99" height="99" fill="white" transform="translate(1467 482)"/>
</clipPath>
<clipPath id="clip2_3262_2256">
<rect width="99" height="99" fill="white" transform="translate(1540 365)"/>
</clipPath>
<clipPath id="clip3_3262_2256">
<rect width="99" height="99" fill="white" transform="translate(5 351)"/>
</clipPath>
<clipPath id="clip4_3262_2256">
<rect width="100" height="100" fill="white"/>
</clipPath>
<clipPath id="clip5_3262_2256">
<rect width="100" height="100" fill="white" transform="translate(1499 59)"/>
</clipPath>
</defs>
</svg>
