<svg width="1728" height="801" viewBox="0 0 1728 801" fill="none" xmlns="http://www.w3.org/2000/svg">
<g opacity="0.2">
<path d="M1076 477H1116V493H1108V485H1076V477ZM1108 493V501H1100V493H1108ZM1100 501V509H1092V501H1100ZM1092 509V517H1084V509H1092ZM1084 517V525H1116V533H1076V517H1084ZM1146.72 477H1170.72V485H1146.72V477ZM1170.72 485H1178.72V533H1170.72V517H1146.72V533H1138.72V485H1146.72V509H1170.72V485ZM1201.44 477H1233.44V485H1209.44V501H1233.44V509H1209.44V533H1201.44V477ZM1233.44 485H1241.44V501H1233.44V485ZM1264.16 477H1304.16V493H1296.16V485H1264.16V477ZM1296.16 493V501H1288.16V493H1296.16ZM1288.16 501V509H1280.16V501H1288.16ZM1280.16 509V517H1272.16V509H1280.16ZM1272.16 517V525H1304.16V533H1264.16V517H1272.16ZM1334.88 477H1358.88V485H1334.88V477ZM1358.88 485H1366.88V533H1358.88V517H1334.88V533H1326.88V485H1334.88V509H1358.88V485ZM1389.6 477H1421.6V485H1397.6V501H1421.6V509H1397.6V533H1389.6V477ZM1421.6 485H1429.6V501H1421.6V485ZM1452.32 477H1492.32V493H1484.32V485H1452.32V477ZM1484.32 493V501H1476.32V493H1484.32ZM1476.32 501V509H1468.32V501H1476.32ZM1468.32 509V517H1460.32V509H1468.32ZM1460.32 517V525H1492.32V533H1452.32V517H1460.32ZM1523.04 477H1547.04V485H1523.04V477ZM1547.04 485H1555.04V533H1547.04V517H1523.04V533H1515.04V485H1523.04V509H1547.04V485ZM1577.76 477H1609.76V485H1585.76V501H1609.76V509H1585.76V533H1577.76V477ZM1609.76 485H1617.76V501H1609.76V485ZM1640.48 477H1680.48V493H1672.48V485H1640.48V477ZM1672.48 493V501H1664.48V493H1672.48ZM1664.48 501V509H1656.48V501H1664.48ZM1656.48 509V517H1648.48V509H1656.48ZM1648.48 517V525H1680.48V533H1640.48V517H1648.48ZM1711.2 477H1735.2V485H1711.2V477ZM1735.2 485H1743.2V533H1735.2V517H1711.2V533H1703.2V485H1711.2V509H1735.2V485ZM1765.92 477H1797.92V485H1773.92V501H1797.92V509H1773.92V533H1765.92V477ZM1797.92 485H1805.92V501H1797.92V485Z" fill="#33E6BF"/>
<path opacity="0.6" d="M1076 573.339H1116V589.339H1108V581.339H1076V573.339ZM1108 589.339V597.339H1100V589.339H1108ZM1100 597.339V605.339H1092V597.339H1100ZM1092 605.339V613.339H1084V605.339H1092ZM1084 613.339V621.339H1116V629.339H1076V613.339H1084ZM1146.72 573.339H1170.72V581.339H1146.72V573.339ZM1170.72 581.339H1178.72V629.339H1170.72V613.339H1146.72V629.339H1138.72V581.339H1146.72V605.339H1170.72V581.339ZM1201.44 573.339H1233.44V581.339H1209.44V597.339H1233.44V605.339H1209.44V629.339H1201.44V573.339ZM1233.44 581.339H1241.44V597.339H1233.44V581.339ZM1264.16 573.339H1304.16V589.339H1296.16V581.339H1264.16V573.339ZM1296.16 589.339V597.339H1288.16V589.339H1296.16ZM1288.16 597.339V605.339H1280.16V597.339H1288.16ZM1280.16 605.339V613.339H1272.16V605.339H1280.16ZM1272.16 613.339V621.339H1304.16V629.339H1264.16V613.339H1272.16ZM1334.88 573.339H1358.88V581.339H1334.88V573.339ZM1358.88 581.339H1366.88V629.339H1358.88V613.339H1334.88V629.339H1326.88V581.339H1334.88V605.339H1358.88V581.339ZM1389.6 573.339H1421.6V581.339H1397.6V597.339H1421.6V605.339H1397.6V629.339H1389.6V573.339ZM1421.6 581.339H1429.6V597.339H1421.6V581.339ZM1452.32 573.339H1492.32V589.339H1484.32V581.339H1452.32V573.339ZM1484.32 589.339V597.339H1476.32V589.339H1484.32ZM1476.32 597.339V605.339H1468.32V597.339H1476.32ZM1468.32 605.339V613.339H1460.32V605.339H1468.32ZM1460.32 613.339V621.339H1492.32V629.339H1452.32V613.339H1460.32ZM1523.04 573.339H1547.04V581.339H1523.04V573.339ZM1547.04 581.339H1555.04V629.339H1547.04V613.339H1523.04V629.339H1515.04V581.339H1523.04V605.339H1547.04V581.339ZM1577.76 573.339H1609.76V581.339H1585.76V597.339H1609.76V605.339H1585.76V629.339H1577.76V573.339ZM1609.76 581.339H1617.76V597.339H1609.76V581.339ZM1640.48 573.339H1680.48V589.339H1672.48V581.339H1640.48V573.339ZM1672.48 589.339V597.339H1664.48V589.339H1672.48ZM1664.48 597.339V605.339H1656.48V597.339H1664.48ZM1656.48 605.339V613.339H1648.48V605.339H1656.48ZM1648.48 613.339V621.339H1680.48V629.339H1640.48V613.339H1648.48ZM1711.2 573.339H1735.2V581.339H1711.2V573.339ZM1735.2 581.339H1743.2V629.339H1735.2V613.339H1711.2V629.339H1703.2V581.339H1711.2V605.339H1735.2V581.339ZM1765.92 573.339H1797.92V581.339H1773.92V597.339H1797.92V605.339H1773.92V629.339H1765.92V573.339ZM1797.92 581.339H1805.92V597.339H1797.92V581.339Z" fill="#33E6BF"/>
<path opacity="0.4" d="M1076 669.677H1116V685.677H1108V677.677H1076V669.677ZM1108 685.677V693.677H1100V685.677H1108ZM1100 693.677V701.677H1092V693.677H1100ZM1092 701.677V709.677H1084V701.677H1092ZM1084 709.677V717.677H1116V725.677H1076V709.677H1084ZM1146.72 669.677H1170.72V677.677H1146.72V669.677ZM1170.72 677.677H1178.72V725.677H1170.72V709.677H1146.72V725.677H1138.72V677.677H1146.72V701.677H1170.72V677.677ZM1201.44 669.677H1233.44V677.677H1209.44V693.677H1233.44V701.677H1209.44V725.677H1201.44V669.677ZM1233.44 677.677H1241.44V693.677H1233.44V677.677ZM1264.16 669.677H1304.16V685.677H1296.16V677.677H1264.16V669.677ZM1296.16 685.677V693.677H1288.16V685.677H1296.16ZM1288.16 693.677V701.677H1280.16V693.677H1288.16ZM1280.16 701.677V709.677H1272.16V701.677H1280.16ZM1272.16 709.677V717.677H1304.16V725.677H1264.16V709.677H1272.16ZM1334.88 669.677H1358.88V677.677H1334.88V669.677ZM1358.88 677.677H1366.88V725.677H1358.88V709.677H1334.88V725.677H1326.88V677.677H1334.88V701.677H1358.88V677.677ZM1389.6 669.677H1421.6V677.677H1397.6V693.677H1421.6V701.677H1397.6V725.677H1389.6V669.677ZM1421.6 677.677H1429.6V693.677H1421.6V677.677ZM1452.32 669.677H1492.32V685.677H1484.32V677.677H1452.32V669.677ZM1484.32 685.677V693.677H1476.32V685.677H1484.32ZM1476.32 693.677V701.677H1468.32V693.677H1476.32ZM1468.32 701.677V709.677H1460.32V701.677H1468.32ZM1460.32 709.677V717.677H1492.32V725.677H1452.32V709.677H1460.32ZM1523.04 669.677H1547.04V677.677H1523.04V669.677ZM1547.04 677.677H1555.04V725.677H1547.04V709.677H1523.04V725.677H1515.04V677.677H1523.04V701.677H1547.04V677.677ZM1577.76 669.677H1609.76V677.677H1585.76V693.677H1609.76V701.677H1585.76V725.677H1577.76V669.677ZM1609.76 677.677H1617.76V693.677H1609.76V677.677ZM1640.48 669.677H1680.48V685.677H1672.48V677.677H1640.48V669.677ZM1672.48 685.677V693.677H1664.48V685.677H1672.48ZM1664.48 693.677V701.677H1656.48V693.677H1664.48ZM1656.48 701.677V709.677H1648.48V701.677H1656.48ZM1648.48 709.677V717.677H1680.48V725.677H1640.48V709.677H1648.48ZM1711.2 669.677H1735.2V677.677H1711.2V669.677ZM1735.2 677.677H1743.2V725.677H1735.2V709.677H1711.2V725.677H1703.2V677.677H1711.2V701.677H1735.2V677.677ZM1765.92 669.677H1797.92V677.677H1773.92V693.677H1797.92V701.677H1773.92V725.677H1765.92V669.677ZM1797.92 677.677H1805.92V693.677H1797.92V677.677Z" fill="#33E6BF"/>
<path opacity="0.2" d="M1076 766.016H1116V782.016H1108V774.016H1076V766.016ZM1108 782.016V790.016H1100V782.016H1108ZM1100 790.016V798.016H1092V790.016H1100ZM1092 798.016V806.016H1084V798.016H1092ZM1084 806.016V814.016H1116V822.016H1076V806.016H1084ZM1146.72 766.016H1170.72V774.016H1146.72V766.016ZM1170.72 774.016H1178.72V822.016H1170.72V806.016H1146.72V822.016H1138.72V774.016H1146.72V798.016H1170.72V774.016ZM1201.44 766.016H1233.44V774.016H1209.44V790.016H1233.44V798.016H1209.44V822.016H1201.44V766.016ZM1233.44 774.016H1241.44V790.016H1233.44V774.016ZM1264.16 766.016H1304.16V782.016H1296.16V774.016H1264.16V766.016ZM1296.16 782.016V790.016H1288.16V782.016H1296.16ZM1288.16 790.016V798.016H1280.16V790.016H1288.16ZM1280.16 798.016V806.016H1272.16V798.016H1280.16ZM1272.16 806.016V814.016H1304.16V822.016H1264.16V806.016H1272.16ZM1334.88 766.016H1358.88V774.016H1334.88V766.016ZM1358.88 774.016H1366.88V822.016H1358.88V806.016H1334.88V822.016H1326.88V774.016H1334.88V798.016H1358.88V774.016ZM1389.6 766.016H1421.6V774.016H1397.6V790.016H1421.6V798.016H1397.6V822.016H1389.6V766.016ZM1421.6 774.016H1429.6V790.016H1421.6V774.016ZM1452.32 766.016H1492.32V782.016H1484.32V774.016H1452.32V766.016ZM1484.32 782.016V790.016H1476.32V782.016H1484.32ZM1476.32 790.016V798.016H1468.32V790.016H1476.32ZM1468.32 798.016V806.016H1460.32V798.016H1468.32ZM1460.32 806.016V814.016H1492.32V822.016H1452.32V806.016H1460.32ZM1523.04 766.016H1547.04V774.016H1523.04V766.016ZM1547.04 774.016H1555.04V822.016H1547.04V806.016H1523.04V822.016H1515.04V774.016H1523.04V798.016H1547.04V774.016ZM1577.76 766.016H1609.76V774.016H1585.76V790.016H1609.76V798.016H1585.76V822.016H1577.76V766.016ZM1609.76 774.016H1617.76V790.016H1609.76V774.016ZM1640.48 766.016H1680.48V782.016H1672.48V774.016H1640.48V766.016ZM1672.48 782.016V790.016H1664.48V782.016H1672.48ZM1664.48 790.016V798.016H1656.48V790.016H1664.48ZM1656.48 798.016V806.016H1648.48V798.016H1656.48ZM1648.48 806.016V814.016H1680.48V822.016H1640.48V806.016H1648.48ZM1711.2 766.016H1735.2V774.016H1711.2V766.016ZM1735.2 774.016H1743.2V822.016H1735.2V806.016H1711.2V822.016H1703.2V774.016H1711.2V798.016H1735.2V774.016ZM1765.92 766.016H1797.92V774.016H1773.92V790.016H1797.92V798.016H1773.92V822.016H1765.92V766.016ZM1797.92 774.016H1805.92V790.016H1797.92V774.016Z" fill="#33E6BF"/>
</g>
<g opacity="0.2">
<path d="M-160 116H-120V132H-128V124H-160V116ZM-128 132V140H-136V132H-128ZM-136 140V148H-144V140H-136ZM-144 148V156H-152V148H-144ZM-152 156V164H-120V172H-160V156H-152ZM-89.28 116H-65.28V124H-89.28V116ZM-65.28 124H-57.28V172H-65.28V156H-89.28V172H-97.28V124H-89.28V148H-65.28V124ZM-34.56 116H-2.56V124H-26.56V140H-2.56V148H-26.56V172H-34.56V116ZM-2.56 124H5.44V140H-2.56V124ZM28.16 116H68.16V132H60.16V124H28.16V116ZM60.16 132V140H52.16V132H60.16ZM52.16 140V148H44.16V140H52.16ZM44.16 148V156H36.16V148H44.16ZM36.16 156V164H68.16V172H28.16V156H36.16ZM98.88 116H122.88V124H98.88V116ZM122.88 124H130.88V172H122.88V156H98.88V172H90.88V124H98.88V148H122.88V124ZM153.6 116H185.6V124H161.6V140H185.6V148H161.6V172H153.6V116ZM185.6 124H193.6V140H185.6V124ZM216.32 116H256.32V132H248.32V124H216.32V116ZM248.32 132V140H240.32V132H248.32ZM240.32 140V148H232.32V140H240.32ZM232.32 148V156H224.32V148H232.32ZM224.32 156V164H256.32V172H216.32V156H224.32ZM287.04 116H311.04V124H287.04V116ZM311.04 124H319.04V172H311.04V156H287.04V172H279.04V124H287.04V148H311.04V124ZM341.76 116H373.76V124H349.76V140H373.76V148H349.76V172H341.76V116ZM373.76 124H381.76V140H373.76V124ZM404.48 116H444.48V132H436.48V124H404.48V116ZM436.48 132V140H428.48V132H436.48ZM428.48 140V148H420.48V140H428.48ZM420.48 148V156H412.48V148H420.48ZM412.48 156V164H444.48V172H404.48V156H412.48ZM475.2 116H499.2V124H475.2V116ZM499.2 124H507.2V172H499.2V156H475.2V172H467.2V124H475.2V148H499.2V124ZM529.92 116H561.92V124H537.92V140H561.92V148H537.92V172H529.92V116ZM561.92 124H569.92V140H561.92V124Z" fill="#33E6BF"/>
<path opacity="0.6" d="M-160 212.339H-120V228.339H-128V220.339H-160V212.339ZM-128 228.339V236.339H-136V228.339H-128ZM-136 236.339V244.339H-144V236.339H-136ZM-144 244.339V252.339H-152V244.339H-144ZM-152 252.339V260.339H-120V268.339H-160V252.339H-152ZM-89.28 212.339H-65.28V220.339H-89.28V212.339ZM-65.28 220.339H-57.28V268.339H-65.28V252.339H-89.28V268.339H-97.28V220.339H-89.28V244.339H-65.28V220.339ZM-34.56 212.339H-2.56V220.339H-26.56V236.339H-2.56V244.339H-26.56V268.339H-34.56V212.339ZM-2.56 220.339H5.44V236.339H-2.56V220.339ZM28.16 212.339H68.16V228.339H60.16V220.339H28.16V212.339ZM60.16 228.339V236.339H52.16V228.339H60.16ZM52.16 236.339V244.339H44.16V236.339H52.16ZM44.16 244.339V252.339H36.16V244.339H44.16ZM36.16 252.339V260.339H68.16V268.339H28.16V252.339H36.16ZM98.88 212.339H122.88V220.339H98.88V212.339ZM122.88 220.339H130.88V268.339H122.88V252.339H98.88V268.339H90.88V220.339H98.88V244.339H122.88V220.339ZM153.6 212.339H185.6V220.339H161.6V236.339H185.6V244.339H161.6V268.339H153.6V212.339ZM185.6 220.339H193.6V236.339H185.6V220.339ZM216.32 212.339H256.32V228.339H248.32V220.339H216.32V212.339ZM248.32 228.339V236.339H240.32V228.339H248.32ZM240.32 236.339V244.339H232.32V236.339H240.32ZM232.32 244.339V252.339H224.32V244.339H232.32ZM224.32 252.339V260.339H256.32V268.339H216.32V252.339H224.32ZM287.04 212.339H311.04V220.339H287.04V212.339ZM311.04 220.339H319.04V268.339H311.04V252.339H287.04V268.339H279.04V220.339H287.04V244.339H311.04V220.339ZM341.76 212.339H373.76V220.339H349.76V236.339H373.76V244.339H349.76V268.339H341.76V212.339ZM373.76 220.339H381.76V236.339H373.76V220.339ZM404.48 212.339H444.48V228.339H436.48V220.339H404.48V212.339ZM436.48 228.339V236.339H428.48V228.339H436.48ZM428.48 236.339V244.339H420.48V236.339H428.48ZM420.48 244.339V252.339H412.48V244.339H420.48ZM412.48 252.339V260.339H444.48V268.339H404.48V252.339H412.48ZM475.2 212.339H499.2V220.339H475.2V212.339ZM499.2 220.339H507.2V268.339H499.2V252.339H475.2V268.339H467.2V220.339H475.2V244.339H499.2V220.339ZM529.92 212.339H561.92V220.339H537.92V236.339H561.92V244.339H537.92V268.339H529.92V212.339ZM561.92 220.339H569.92V236.339H561.92V220.339Z" fill="#33E6BF"/>
<path opacity="0.4" d="M-160 308.677H-120V324.677H-128V316.677H-160V308.677ZM-128 324.677V332.677H-136V324.677H-128ZM-136 332.677V340.677H-144V332.677H-136ZM-144 340.677V348.677H-152V340.677H-144ZM-152 348.677V356.677H-120V364.677H-160V348.677H-152ZM-89.28 308.677H-65.28V316.677H-89.28V308.677ZM-65.28 316.677H-57.28V364.677H-65.28V348.677H-89.28V364.677H-97.28V316.677H-89.28V340.677H-65.28V316.677ZM-34.56 308.677H-2.56V316.677H-26.56V332.677H-2.56V340.677H-26.56V364.677H-34.56V308.677ZM-2.56 316.677H5.44V332.677H-2.56V316.677ZM28.16 308.677H68.16V324.677H60.16V316.677H28.16V308.677ZM60.16 324.677V332.677H52.16V324.677H60.16ZM52.16 332.677V340.677H44.16V332.677H52.16ZM44.16 340.677V348.677H36.16V340.677H44.16ZM36.16 348.677V356.677H68.16V364.677H28.16V348.677H36.16ZM98.88 308.677H122.88V316.677H98.88V308.677ZM122.88 316.677H130.88V364.677H122.88V348.677H98.88V364.677H90.88V316.677H98.88V340.677H122.88V316.677ZM153.6 308.677H185.6V316.677H161.6V332.677H185.6V340.677H161.6V364.677H153.6V308.677ZM185.6 316.677H193.6V332.677H185.6V316.677ZM216.32 308.677H256.32V324.677H248.32V316.677H216.32V308.677ZM248.32 324.677V332.677H240.32V324.677H248.32ZM240.32 332.677V340.677H232.32V332.677H240.32ZM232.32 340.677V348.677H224.32V340.677H232.32ZM224.32 348.677V356.677H256.32V364.677H216.32V348.677H224.32ZM287.04 308.677H311.04V316.677H287.04V308.677ZM311.04 316.677H319.04V364.677H311.04V348.677H287.04V364.677H279.04V316.677H287.04V340.677H311.04V316.677ZM341.76 308.677H373.76V316.677H349.76V332.677H373.76V340.677H349.76V364.677H341.76V308.677ZM373.76 316.677H381.76V332.677H373.76V316.677ZM404.48 308.677H444.48V324.677H436.48V316.677H404.48V308.677ZM436.48 324.677V332.677H428.48V324.677H436.48ZM428.48 332.677V340.677H420.48V332.677H428.48ZM420.48 340.677V348.677H412.48V340.677H420.48ZM412.48 348.677V356.677H444.48V364.677H404.48V348.677H412.48ZM475.2 308.677H499.2V316.677H475.2V308.677ZM499.2 316.677H507.2V364.677H499.2V348.677H475.2V364.677H467.2V316.677H475.2V340.677H499.2V316.677ZM529.92 308.677H561.92V316.677H537.92V332.677H561.92V340.677H537.92V364.677H529.92V308.677ZM561.92 316.677H569.92V332.677H561.92V316.677Z" fill="#33E6BF"/>
<path opacity="0.2" d="M-160 405.016H-120V421.016H-128V413.016H-160V405.016ZM-128 421.016V429.016H-136V421.016H-128ZM-136 429.016V437.016H-144V429.016H-136ZM-144 437.016V445.016H-152V437.016H-144ZM-152 445.016V453.016H-120V461.016H-160V445.016H-152ZM-89.28 405.016H-65.28V413.016H-89.28V405.016ZM-65.28 413.016H-57.28V461.016H-65.28V445.016H-89.28V461.016H-97.28V413.016H-89.28V437.016H-65.28V413.016ZM-34.56 405.016H-2.56V413.016H-26.56V429.016H-2.56V437.016H-26.56V461.016H-34.56V405.016ZM-2.56 413.016H5.44V429.016H-2.56V413.016ZM28.16 405.016H68.16V421.016H60.16V413.016H28.16V405.016ZM60.16 421.016V429.016H52.16V421.016H60.16ZM52.16 429.016V437.016H44.16V429.016H52.16ZM44.16 437.016V445.016H36.16V437.016H44.16ZM36.16 445.016V453.016H68.16V461.016H28.16V445.016H36.16ZM98.88 405.016H122.88V413.016H98.88V405.016ZM122.88 413.016H130.88V461.016H122.88V445.016H98.88V461.016H90.88V413.016H98.88V437.016H122.88V413.016ZM153.6 405.016H185.6V413.016H161.6V429.016H185.6V437.016H161.6V461.016H153.6V405.016ZM185.6 413.016H193.6V429.016H185.6V413.016ZM216.32 405.016H256.32V421.016H248.32V413.016H216.32V405.016ZM248.32 421.016V429.016H240.32V421.016H248.32ZM240.32 429.016V437.016H232.32V429.016H240.32ZM232.32 437.016V445.016H224.32V437.016H232.32ZM224.32 445.016V453.016H256.32V461.016H216.32V445.016H224.32ZM287.04 405.016H311.04V413.016H287.04V405.016ZM311.04 413.016H319.04V461.016H311.04V445.016H287.04V461.016H279.04V413.016H287.04V437.016H311.04V413.016ZM341.76 405.016H373.76V413.016H349.76V429.016H373.76V437.016H349.76V461.016H341.76V405.016ZM373.76 413.016H381.76V429.016H373.76V413.016ZM404.48 405.016H444.48V421.016H436.48V413.016H404.48V405.016ZM436.48 421.016V429.016H428.48V421.016H436.48ZM428.48 429.016V437.016H420.48V429.016H428.48ZM420.48 437.016V445.016H412.48V437.016H420.48ZM412.48 445.016V453.016H444.48V461.016H404.48V445.016H412.48ZM475.2 405.016H499.2V413.016H475.2V405.016ZM499.2 413.016H507.2V461.016H499.2V445.016H475.2V461.016H467.2V413.016H475.2V437.016H499.2V413.016ZM529.92 405.016H561.92V413.016H537.92V429.016H561.92V437.016H537.92V461.016H529.92V405.016ZM561.92 413.016H569.92V429.016H561.92V413.016Z" fill="#33E6BF"/>
</g>
<g opacity="0.2">
<path d="M1621.48 76.9565V69.2609H1600.96V46.174H1593.26V76.9565H1598.39H1600.96H1613.78V110.304V118H1621.48H1629.17V110.304H1621.48V76.9565Z" fill="#33E6BF"/>
<path d="M1636.87 102.609H1629.17V110.304H1636.87V102.609Z" fill="#33E6BF"/>
<path d="M1644.57 94.913H1636.87V102.609H1644.57V94.913Z" fill="#33E6BF"/>
<path d="M1652.26 87.2174H1644.57V94.913H1652.26V87.2174Z" fill="#33E6BF"/>
<path d="M1659.96 79.5216H1652.26V87.2172H1659.96V79.5216Z" fill="#33E6BF"/>
<path d="M1667.65 71.826H1659.96V79.5216H1667.65V71.826Z" fill="#33E6BF"/>
<path d="M1659.96 38.4784H1652.26V46.174H1659.96V38.4784Z" fill="#33E6BF"/>
<path d="M1667.65 53.8695H1652.26V46.174H1644.57V53.8695H1636.87V61.5651H1644.57H1652.26H1667.65V71.826H1675.35V61.5651V53.8695H1667.65Z" fill="#33E6BF"/>
<path d="M1667.65 30.7826H1659.96V38.4782H1667.65V30.7826Z" fill="#33E6BF"/>
<path d="M1608.65 23.087H1600.96V46.174H1608.65V23.087Z" fill="#33E6BF"/>
<path d="M1675.35 23.087H1667.65V30.7826H1675.35V23.087Z" fill="#33E6BF"/>
<path d="M1683.04 15.3914H1675.35V23.0869H1683.04V15.3914Z" fill="#33E6BF"/>
<path d="M1683.04 0H1616.35H1608.65V23.087H1616.35V7.69558H1683.04V15.3914H1690.74V7.69558V0H1683.04Z" fill="#33E6BF"/>
</g>
<g opacity="0.2">
<path d="M1667.48 181.957V174.261H1646.96V151.174H1639.26V181.957H1644.39H1646.96H1659.78V215.304V223H1667.48H1675.17V215.304H1667.48V181.957Z" fill="#33E6BF"/>
<path d="M1682.87 207.609H1675.17V215.304H1682.87V207.609Z" fill="#33E6BF"/>
<path d="M1690.57 199.913H1682.87V207.609H1690.57V199.913Z" fill="#33E6BF"/>
<path d="M1698.26 192.217H1690.57V199.913H1698.26V192.217Z" fill="#33E6BF"/>
<path d="M1705.96 184.522H1698.26V192.217H1705.96V184.522Z" fill="#33E6BF"/>
<path d="M1713.65 176.826H1705.96V184.522H1713.65V176.826Z" fill="#33E6BF"/>
<path d="M1705.96 143.478H1698.26V151.174H1705.96V143.478Z" fill="#33E6BF"/>
<path d="M1713.65 158.87H1698.26V151.174H1690.57V158.87H1682.87V166.565H1690.57H1698.26H1713.65V176.826H1721.35V166.565V158.87H1713.65Z" fill="#33E6BF"/>
<path d="M1713.65 135.783H1705.96V143.478H1713.65V135.783Z" fill="#33E6BF"/>
<path d="M1654.65 128.087H1646.96V151.174H1654.65V128.087Z" fill="#33E6BF"/>
<path d="M1721.35 128.087H1713.65V135.783H1721.35V128.087Z" fill="#33E6BF"/>
<path d="M1729.04 120.391H1721.35V128.087H1729.04V120.391Z" fill="#33E6BF"/>
<path d="M1729.04 105H1662.35H1654.65V128.087H1662.35V112.696H1729.04V120.391H1736.74V112.696V105H1729.04Z" fill="#33E6BF"/>
</g>
<g opacity="0.2">
<path d="M1713.48 286.957V279.261H1692.96V256.174H1685.26V286.957H1690.39H1692.96H1705.78V320.304V328H1713.48H1721.17V320.304H1713.48V286.957Z" fill="#33E6BF"/>
<path d="M1728.87 312.609H1721.17V320.304H1728.87V312.609Z" fill="#33E6BF"/>
<path d="M1700.65 233.087H1692.96V256.174H1700.65V233.087Z" fill="#33E6BF"/>
<path d="M1775.04 210H1708.35H1700.65V233.087H1708.35V217.696H1775.04V225.391H1782.74V217.696V210H1775.04Z" fill="#33E6BF"/>
</g>
<g opacity="0.2">
<path d="M145.478 696.957V689.261H124.957V666.174H117.261V696.957H122.391H124.957H137.783V730.304V738H145.478H153.174V730.304H145.478V696.957Z" fill="#33E6BF"/>
<path d="M160.87 722.609H153.174V730.304H160.87V722.609Z" fill="#33E6BF"/>
<path d="M168.565 714.913H160.87V722.609H168.565V714.913Z" fill="#33E6BF"/>
<path d="M176.261 707.217H168.565V714.913H176.261V707.217Z" fill="#33E6BF"/>
<path d="M183.957 699.522H176.261V707.217H183.957V699.522Z" fill="#33E6BF"/>
<path d="M191.652 691.826H183.957V699.522H191.652V691.826Z" fill="#33E6BF"/>
<path d="M183.957 658.478H176.261V666.174H183.957V658.478Z" fill="#33E6BF"/>
<path d="M191.652 673.87H176.261V666.174H168.565V673.87H160.87V681.565H168.565H176.261H191.652V691.826H199.348V681.565V673.87H191.652Z" fill="#33E6BF"/>
<path d="M191.652 650.783H183.957V658.478H191.652V650.783Z" fill="#33E6BF"/>
<path d="M132.652 643.087H124.957V666.174H132.652V643.087Z" fill="#33E6BF"/>
<path d="M199.348 643.087H191.652V650.783H199.348V643.087Z" fill="#33E6BF"/>
<path d="M207.043 635.391H199.348V643.087H207.043V635.391Z" fill="#33E6BF"/>
<path d="M207.044 620H140.348H132.652V643.087H140.348V627.696H207.044V635.391H214.739V627.696V620H207.044Z" fill="#33E6BF"/>
</g>
<g opacity="0.2">
<path d="M43.4784 803.957V796.261H22.9565V773.174H15.2609V803.957H20.3914H22.9565H35.7826V837.304V845H43.4784H51.174V837.304H43.4784V803.957Z" fill="#33E6BF"/>
<path d="M89.6521 798.826H81.9565V806.522H89.6521V798.826Z" fill="#33E6BF"/>
<path d="M81.9565 765.478H74.2609V773.174H81.9565V765.478Z" fill="#33E6BF"/>
<path d="M89.6521 780.87H74.2609V773.174H66.5651V780.87H58.8695V788.565H66.5651H74.2609H89.6521V798.826H97.3479V788.565V780.87H89.6521Z" fill="#33E6BF"/>
<path d="M89.6521 757.783H81.9565V765.478H89.6521V757.783Z" fill="#33E6BF"/>
<path d="M30.6521 750.087H22.9565V773.174H30.6521V750.087Z" fill="#33E6BF"/>
<path d="M97.3477 750.087H89.6521V757.783H97.3477V750.087Z" fill="#33E6BF"/>
<path d="M105.043 742.391H97.3479V750.087H105.043V742.391Z" fill="#33E6BF"/>
<path d="M105.044 727H38.3479H30.6521V750.087H38.3479V734.696H105.044V742.391H112.739V734.696V727H105.044Z" fill="#33E6BF"/>
</g>
</svg>
