<svg width="1728" height="907" viewBox="0 0 1728 907" fill="none" xmlns="http://www.w3.org/2000/svg">
<path opacity="0.2" d="M1255 0H1291V12H1255V0ZM1291 12H1303V24H1291V12ZM1255 12V36H1243V12H1255ZM1255 36H1291V48H1255V36ZM1291 48H1303V72H1291V48ZM1291 72V84H1255V72H1291ZM1255 72H1243V60H1255V72ZM1325.08 0H1337.08V72H1325.08V0ZM1337.08 72H1349.08V84H1337.08V72ZM1349.08 72V60H1361.08V72H1349.08ZM1361.08 60V24H1373.08V60H1361.08ZM1373.08 60H1385.08V72H1373.08V60ZM1385.08 72H1397.08V84H1385.08V72ZM1397.08 72V0H1409.08V72H1397.08ZM1443.16 0H1479.16V12H1443.16V0ZM1479.16 12H1491.16V84H1479.16V60H1443.16V84H1431.16V12H1443.16V48H1479.16V12ZM1525.24 0H1573.24V12H1537.24V36H1573.24V48H1537.24V84H1525.24V0ZM1573.24 12H1585.24V36H1573.24V12ZM1631.32 0H1667.32V12H1631.32V0ZM1667.32 12H1679.32V24H1667.32V12ZM1631.32 12V36H1619.32V12H1631.32ZM1631.32 36H1667.32V48H1631.32V36ZM1667.32 48H1679.32V72H1667.32V48ZM1667.32 72V84H1631.32V72H1667.32ZM1631.32 72H1619.32V60H1631.32V72ZM1701.4 0H1713.4V72H1701.4V0ZM1713.4 72H1725.4V84H1713.4V72ZM1725.4 72V60H1737.4V72H1725.4ZM1737.4 60V24H1749.4V60H1737.4ZM1749.4 60H1761.4V72H1749.4V60ZM1761.4 72H1773.4V84H1761.4V72ZM1773.4 72V0H1785.4V72H1773.4ZM1819.48 0H1855.48V12H1819.48V0ZM1855.48 12H1867.48V84H1855.48V60H1819.48V84H1807.48V12H1819.48V48H1855.48V12ZM1901.56 0H1949.56V12H1913.56V36H1949.56V48H1913.56V84H1901.56V0ZM1949.56 12H1961.56V36H1949.56V12ZM2007.64 0H2043.64V12H2007.64V0ZM2043.64 12H2055.64V24H2043.64V12ZM2007.64 12V36H1995.64V12H2007.64ZM2007.64 36H2043.64V48H2007.64V36ZM2043.64 48H2055.64V72H2043.64V48ZM2043.64 72V84H2007.64V72H2043.64ZM2007.64 72H1995.64V60H2007.64V72ZM2077.72 0H2089.72V72H2077.72V0ZM2089.72 72H2101.72V84H2089.72V72ZM2101.72 72V60H2113.72V72H2101.72ZM2113.72 60V24H2125.72V60H2113.72ZM2125.72 60H2137.72V72H2125.72V60ZM2137.72 72H2149.72V84H2137.72V72ZM2149.72 72V0H2161.72V72H2149.72ZM2195.8 0H2231.8V12H2195.8V0ZM2231.8 12H2243.8V84H2231.8V60H2195.8V84H2183.8V12H2195.8V48H2231.8V12ZM2277.88 0H2325.88V12H2289.88V36H2325.88V48H2289.88V84H2277.88V0ZM2325.88 12H2337.88V36H2325.88V12Z" fill="#33E6BF"/>
<g opacity="0.2">
<path d="M1260 569H1278V575H1260V569ZM1278 575H1284V581H1278V575ZM1260 575V587H1254V575H1260ZM1260 587H1278V593H1260V587ZM1278 593H1284V605H1278V593ZM1278 605V611H1260V605H1278ZM1260 605H1254V599H1260V605ZM1295.04 569H1301.04V605H1295.04V569ZM1301.04 605H1307.04V611H1301.04V605ZM1307.04 605V599H1313.04V605H1307.04ZM1313.04 599V581H1319.04V599H1313.04ZM1319.04 599H1325.04V605H1319.04V599ZM1325.04 605H1331.04V611H1325.04V605ZM1331.04 605V569H1337.04V605H1331.04ZM1354.08 569H1372.08V575H1354.08V569ZM1372.08 575H1378.08V611H1372.08V599H1354.08V611H1348.08V575H1354.08V593H1372.08V575ZM1395.12 569H1419.12V575H1401.12V587H1419.12V593H1401.12V611H1395.12V569ZM1419.12 575H1425.12V587H1419.12V575ZM1448.16 569H1466.16V575H1448.16V569ZM1466.16 575H1472.16V581H1466.16V575ZM1448.16 575V587H1442.16V575H1448.16ZM1448.16 587H1466.16V593H1448.16V587ZM1466.16 593H1472.16V605H1466.16V593ZM1466.16 605V611H1448.16V605H1466.16ZM1448.16 605H1442.16V599H1448.16V605ZM1483.2 569H1489.2V605H1483.2V569ZM1489.2 605H1495.2V611H1489.2V605ZM1495.2 605V599H1501.2V605H1495.2ZM1501.2 599V581H1507.2V599H1501.2ZM1507.2 599H1513.2V605H1507.2V599ZM1513.2 605H1519.2V611H1513.2V605ZM1519.2 605V569H1525.2V605H1519.2ZM1542.24 569H1560.24V575H1542.24V569ZM1560.24 575H1566.24V611H1560.24V599H1542.24V611H1536.24V575H1542.24V593H1560.24V575ZM1583.28 569H1607.28V575H1589.28V587H1607.28V593H1589.28V611H1583.28V569ZM1607.28 575H1613.28V587H1607.28V575ZM1636.32 569H1654.32V575H1636.32V569ZM1654.32 575H1660.32V581H1654.32V575ZM1636.32 575V587H1630.32V575H1636.32ZM1636.32 587H1654.32V593H1636.32V587ZM1654.32 593H1660.32V605H1654.32V593ZM1654.32 605V611H1636.32V605H1654.32ZM1636.32 605H1630.32V599H1636.32V605ZM1671.36 569H1677.36V605H1671.36V569ZM1677.36 605H1683.36V611H1677.36V605ZM1683.36 605V599H1689.36V605H1683.36ZM1689.36 599V581H1695.36V599H1689.36ZM1695.36 599H1701.36V605H1695.36V599ZM1701.36 605H1707.36V611H1701.36V605ZM1707.36 605V569H1713.36V605H1707.36ZM1730.4 569H1748.4V575H1730.4V569ZM1748.4 575H1754.4V611H1748.4V599H1730.4V611H1724.4V575H1730.4V593H1748.4V575ZM1771.44 569H1795.44V575H1777.44V587H1795.44V593H1777.44V611H1771.44V569ZM1795.44 575H1801.44V587H1795.44V575Z" fill="#33E6BF"/>
<path opacity="0.8" d="M1260 643H1278V649H1260V643ZM1278 649H1284V655H1278V649ZM1260 649V661H1254V649H1260ZM1260 661H1278V667H1260V661ZM1278 667H1284V679H1278V667ZM1278 679V685H1260V679H1278ZM1260 679H1254V673H1260V679ZM1295.04 643H1301.04V679H1295.04V643ZM1301.04 679H1307.04V685H1301.04V679ZM1307.04 679V673H1313.04V679H1307.04ZM1313.04 673V655H1319.04V673H1313.04ZM1319.04 673H1325.04V679H1319.04V673ZM1325.04 679H1331.04V685H1325.04V679ZM1331.04 679V643H1337.04V679H1331.04ZM1354.08 643H1372.08V649H1354.08V643ZM1372.08 649H1378.08V685H1372.08V673H1354.08V685H1348.08V649H1354.08V667H1372.08V649ZM1395.12 643H1419.12V649H1401.12V661H1419.12V667H1401.12V685H1395.12V643ZM1419.12 649H1425.12V661H1419.12V649ZM1448.16 643H1466.16V649H1448.16V643ZM1466.16 649H1472.16V655H1466.16V649ZM1448.16 649V661H1442.16V649H1448.16ZM1448.16 661H1466.16V667H1448.16V661ZM1466.16 667H1472.16V679H1466.16V667ZM1466.16 679V685H1448.16V679H1466.16ZM1448.16 679H1442.16V673H1448.16V679ZM1483.2 643H1489.2V679H1483.2V643ZM1489.2 679H1495.2V685H1489.2V679ZM1495.2 679V673H1501.2V679H1495.2ZM1501.2 673V655H1507.2V673H1501.2ZM1507.2 673H1513.2V679H1507.2V673ZM1513.2 679H1519.2V685H1513.2V679ZM1519.2 679V643H1525.2V679H1519.2ZM1542.24 643H1560.24V649H1542.24V643ZM1560.24 649H1566.24V685H1560.24V673H1542.24V685H1536.24V649H1542.24V667H1560.24V649ZM1583.28 643H1607.28V649H1589.28V661H1607.28V667H1589.28V685H1583.28V643ZM1607.28 649H1613.28V661H1607.28V649ZM1636.32 643H1654.32V649H1636.32V643ZM1654.32 649H1660.32V655H1654.32V649ZM1636.32 649V661H1630.32V649H1636.32ZM1636.32 661H1654.32V667H1636.32V661ZM1654.32 667H1660.32V679H1654.32V667ZM1654.32 679V685H1636.32V679H1654.32ZM1636.32 679H1630.32V673H1636.32V679ZM1671.36 643H1677.36V679H1671.36V643ZM1677.36 679H1683.36V685H1677.36V679ZM1683.36 679V673H1689.36V679H1683.36ZM1689.36 673V655H1695.36V673H1689.36ZM1695.36 673H1701.36V679H1695.36V673ZM1701.36 679H1707.36V685H1701.36V679ZM1707.36 679V643H1713.36V679H1707.36ZM1730.4 643H1748.4V649H1730.4V643ZM1748.4 649H1754.4V685H1748.4V673H1730.4V685H1724.4V649H1730.4V667H1748.4V649ZM1771.44 643H1795.44V649H1777.44V661H1795.44V667H1777.44V685H1771.44V643ZM1795.44 649H1801.44V661H1795.44V649Z" fill="#33E6BF"/>
<path opacity="0.6" d="M1260 717H1278V723H1260V717ZM1278 723H1284V729H1278V723ZM1260 723V735H1254V723H1260ZM1260 735H1278V741H1260V735ZM1278 741H1284V753H1278V741ZM1278 753V759H1260V753H1278ZM1260 753H1254V747H1260V753ZM1295.04 717H1301.04V753H1295.04V717ZM1301.04 753H1307.04V759H1301.04V753ZM1307.04 753V747H1313.04V753H1307.04ZM1313.04 747V729H1319.04V747H1313.04ZM1319.04 747H1325.04V753H1319.04V747ZM1325.04 753H1331.04V759H1325.04V753ZM1331.04 753V717H1337.04V753H1331.04ZM1354.08 717H1372.08V723H1354.08V717ZM1372.08 723H1378.08V759H1372.08V747H1354.08V759H1348.08V723H1354.08V741H1372.08V723ZM1395.12 717H1419.12V723H1401.12V735H1419.12V741H1401.12V759H1395.12V717ZM1419.12 723H1425.12V735H1419.12V723ZM1448.16 717H1466.16V723H1448.16V717ZM1466.16 723H1472.16V729H1466.16V723ZM1448.16 723V735H1442.16V723H1448.16ZM1448.16 735H1466.16V741H1448.16V735ZM1466.16 741H1472.16V753H1466.16V741ZM1466.16 753V759H1448.16V753H1466.16ZM1448.16 753H1442.16V747H1448.16V753ZM1483.2 717H1489.2V753H1483.2V717ZM1489.2 753H1495.2V759H1489.2V753ZM1495.2 753V747H1501.2V753H1495.2ZM1501.2 747V729H1507.2V747H1501.2ZM1507.2 747H1513.2V753H1507.2V747ZM1513.2 753H1519.2V759H1513.2V753ZM1519.2 753V717H1525.2V753H1519.2ZM1542.24 717H1560.24V723H1542.24V717ZM1560.24 723H1566.24V759H1560.24V747H1542.24V759H1536.24V723H1542.24V741H1560.24V723ZM1583.28 717H1607.28V723H1589.28V735H1607.28V741H1589.28V759H1583.28V717ZM1607.28 723H1613.28V735H1607.28V723ZM1636.32 717H1654.32V723H1636.32V717ZM1654.32 723H1660.32V729H1654.32V723ZM1636.32 723V735H1630.32V723H1636.32ZM1636.32 735H1654.32V741H1636.32V735ZM1654.32 741H1660.32V753H1654.32V741ZM1654.32 753V759H1636.32V753H1654.32ZM1636.32 753H1630.32V747H1636.32V753ZM1671.36 717H1677.36V753H1671.36V717ZM1677.36 753H1683.36V759H1677.36V753ZM1683.36 753V747H1689.36V753H1683.36ZM1689.36 747V729H1695.36V747H1689.36ZM1695.36 747H1701.36V753H1695.36V747ZM1701.36 753H1707.36V759H1701.36V753ZM1707.36 753V717H1713.36V753H1707.36ZM1730.4 717H1748.4V723H1730.4V717ZM1748.4 723H1754.4V759H1748.4V747H1730.4V759H1724.4V723H1730.4V741H1748.4V723ZM1771.44 717H1795.44V723H1777.44V735H1795.44V741H1777.44V759H1771.44V717ZM1795.44 723H1801.44V735H1795.44V723Z" fill="#33E6BF"/>
<path opacity="0.4" d="M1260 791H1278V797H1260V791ZM1278 797H1284V803H1278V797ZM1260 797V809H1254V797H1260ZM1260 809H1278V815H1260V809ZM1278 815H1284V827H1278V815ZM1278 827V833H1260V827H1278ZM1260 827H1254V821H1260V827ZM1295.04 791H1301.04V827H1295.04V791ZM1301.04 827H1307.04V833H1301.04V827ZM1307.04 827V821H1313.04V827H1307.04ZM1313.04 821V803H1319.04V821H1313.04ZM1319.04 821H1325.04V827H1319.04V821ZM1325.04 827H1331.04V833H1325.04V827ZM1331.04 827V791H1337.04V827H1331.04ZM1354.08 791H1372.08V797H1354.08V791ZM1372.08 797H1378.08V833H1372.08V821H1354.08V833H1348.08V797H1354.08V815H1372.08V797ZM1395.12 791H1419.12V797H1401.12V809H1419.12V815H1401.12V833H1395.12V791ZM1419.12 797H1425.12V809H1419.12V797ZM1448.16 791H1466.16V797H1448.16V791ZM1466.16 797H1472.16V803H1466.16V797ZM1448.16 797V809H1442.16V797H1448.16ZM1448.16 809H1466.16V815H1448.16V809ZM1466.16 815H1472.16V827H1466.16V815ZM1466.16 827V833H1448.16V827H1466.16ZM1448.16 827H1442.16V821H1448.16V827ZM1483.2 791H1489.2V827H1483.2V791ZM1489.2 827H1495.2V833H1489.2V827ZM1495.2 827V821H1501.2V827H1495.2ZM1501.2 821V803H1507.2V821H1501.2ZM1507.2 821H1513.2V827H1507.2V821ZM1513.2 827H1519.2V833H1513.2V827ZM1519.2 827V791H1525.2V827H1519.2ZM1542.24 791H1560.24V797H1542.24V791ZM1560.24 797H1566.24V833H1560.24V821H1542.24V833H1536.24V797H1542.24V815H1560.24V797ZM1583.28 791H1607.28V797H1589.28V809H1607.28V815H1589.28V833H1583.28V791ZM1607.28 797H1613.28V809H1607.28V797ZM1636.32 791H1654.32V797H1636.32V791ZM1654.32 797H1660.32V803H1654.32V797ZM1636.32 797V809H1630.32V797H1636.32ZM1636.32 809H1654.32V815H1636.32V809ZM1654.32 815H1660.32V827H1654.32V815ZM1654.32 827V833H1636.32V827H1654.32ZM1636.32 827H1630.32V821H1636.32V827ZM1671.36 791H1677.36V827H1671.36V791ZM1677.36 827H1683.36V833H1677.36V827ZM1683.36 827V821H1689.36V827H1683.36ZM1689.36 821V803H1695.36V821H1689.36ZM1695.36 821H1701.36V827H1695.36V821ZM1701.36 827H1707.36V833H1701.36V827ZM1707.36 827V791H1713.36V827H1707.36ZM1730.4 791H1748.4V797H1730.4V791ZM1748.4 797H1754.4V833H1748.4V821H1730.4V833H1724.4V797H1730.4V815H1748.4V797ZM1771.44 791H1795.44V797H1777.44V809H1795.44V815H1777.44V833H1771.44V791ZM1795.44 797H1801.44V809H1795.44V797Z" fill="#33E6BF"/>
<path opacity="0.2" d="M1260 865H1278V871H1260V865ZM1278 871H1284V877H1278V871ZM1260 871V883H1254V871H1260ZM1260 883H1278V889H1260V883ZM1278 889H1284V901H1278V889ZM1278 901V907H1260V901H1278ZM1260 901H1254V895H1260V901ZM1295.04 865H1301.04V901H1295.04V865ZM1301.04 901H1307.04V907H1301.04V901ZM1307.04 901V895H1313.04V901H1307.04ZM1313.04 895V877H1319.04V895H1313.04ZM1319.04 895H1325.04V901H1319.04V895ZM1325.04 901H1331.04V907H1325.04V901ZM1331.04 901V865H1337.04V901H1331.04ZM1354.08 865H1372.08V871H1354.08V865ZM1372.08 871H1378.08V907H1372.08V895H1354.08V907H1348.08V871H1354.08V889H1372.08V871ZM1395.12 865H1419.12V871H1401.12V883H1419.12V889H1401.12V907H1395.12V865ZM1419.12 871H1425.12V883H1419.12V871ZM1448.16 865H1466.16V871H1448.16V865ZM1466.16 871H1472.16V877H1466.16V871ZM1448.16 871V883H1442.16V871H1448.16ZM1448.16 883H1466.16V889H1448.16V883ZM1466.16 889H1472.16V901H1466.16V889ZM1466.16 901V907H1448.16V901H1466.16ZM1448.16 901H1442.16V895H1448.16V901ZM1483.2 865H1489.2V901H1483.2V865ZM1489.2 901H1495.2V907H1489.2V901ZM1495.2 901V895H1501.2V901H1495.2ZM1501.2 895V877H1507.2V895H1501.2ZM1507.2 895H1513.2V901H1507.2V895ZM1513.2 901H1519.2V907H1513.2V901ZM1519.2 901V865H1525.2V901H1519.2ZM1542.24 865H1560.24V871H1542.24V865ZM1560.24 871H1566.24V907H1560.24V895H1542.24V907H1536.24V871H1542.24V889H1560.24V871ZM1583.28 865H1607.28V871H1589.28V883H1607.28V889H1589.28V907H1583.28V865ZM1607.28 871H1613.28V883H1607.28V871ZM1636.32 865H1654.32V871H1636.32V865ZM1654.32 871H1660.32V877H1654.32V871ZM1636.32 871V883H1630.32V871H1636.32ZM1636.32 883H1654.32V889H1636.32V883ZM1654.32 889H1660.32V901H1654.32V889ZM1654.32 901V907H1636.32V901H1654.32ZM1636.32 901H1630.32V895H1636.32V901ZM1671.36 865H1677.36V901H1671.36V865ZM1677.36 901H1683.36V907H1677.36V901ZM1683.36 901V895H1689.36V901H1683.36ZM1689.36 895V877H1695.36V895H1689.36ZM1695.36 895H1701.36V901H1695.36V895ZM1701.36 901H1707.36V907H1701.36V901ZM1707.36 901V865H1713.36V901H1707.36ZM1730.4 865H1748.4V871H1730.4V865ZM1748.4 871H1754.4V907H1748.4V895H1730.4V907H1724.4V871H1730.4V889H1748.4V871ZM1771.44 865H1795.44V871H1777.44V883H1795.44V889H1777.44V907H1771.44V865ZM1795.44 871H1801.44V883H1795.44V871Z" fill="#33E6BF"/>
</g>
<g opacity="0.2">
<path d="M7 273H25V279H7V273ZM25 279H31V285H25V279ZM7 279V291H1V279H7ZM7 291H25V297H7V291ZM25 297H31V309H25V297ZM25 309V315H7V309H25ZM7 309H1V303H7V309ZM42.04 273H48.04V309H42.04V273ZM48.04 309H54.04V315H48.04V309ZM54.04 309V303H60.04V309H54.04ZM60.04 303V285H66.04V303H60.04ZM66.04 303H72.04V309H66.04V303ZM72.04 309H78.04V315H72.04V309ZM78.04 309V273H84.04V309H78.04ZM101.08 273H119.08V279H101.08V273ZM119.08 279H125.08V315H119.08V303H101.08V315H95.08V279H101.08V297H119.08V279ZM142.12 273H166.12V279H148.12V291H166.12V297H148.12V315H142.12V273ZM166.12 279H172.12V291H166.12V279ZM195.16 273H213.16V279H195.16V273ZM213.16 279H219.16V285H213.16V279ZM195.16 279V291H189.16V279H195.16ZM195.16 291H213.16V297H195.16V291ZM213.16 297H219.16V309H213.16V297ZM213.16 309V315H195.16V309H213.16ZM195.16 309H189.16V303H195.16V309ZM230.2 273H236.2V309H230.2V273ZM236.2 309H242.2V315H236.2V309ZM242.2 309V303H248.2V309H242.2ZM248.2 303V285H254.2V303H248.2ZM254.2 303H260.2V309H254.2V303ZM260.2 309H266.2V315H260.2V309ZM266.2 309V273H272.2V309H266.2ZM289.24 273H307.24V279H289.24V273ZM307.24 279H313.24V315H307.24V303H289.24V315H283.24V279H289.24V297H307.24V279ZM330.28 273H354.28V279H336.28V291H354.28V297H336.28V315H330.28V273ZM354.28 279H360.28V291H354.28V279ZM383.32 273H401.32V279H383.32V273ZM401.32 279H407.32V285H401.32V279ZM383.32 279V291H377.32V279H383.32ZM383.32 291H401.32V297H383.32V291ZM401.32 297H407.32V309H401.32V297ZM401.32 309V315H383.32V309H401.32ZM383.32 309H377.32V303H383.32V309ZM418.36 273H424.36V309H418.36V273ZM424.36 309H430.36V315H424.36V309ZM430.36 309V303H436.36V309H430.36ZM436.36 303V285H442.36V303H436.36ZM442.36 303H448.36V309H442.36V303ZM448.36 309H454.36V315H448.36V309ZM454.36 309V273H460.36V309H454.36ZM477.4 273H495.4V279H477.4V273ZM495.4 279H501.4V315H495.4V303H477.4V315H471.4V279H477.4V297H495.4V279ZM518.44 273H542.44V279H524.44V291H542.44V297H524.44V315H518.44V273ZM542.44 279H548.44V291H542.44V279Z" fill="#33E6BF"/>
<path opacity="0.8" d="M-27 338H-9V344H-27V338ZM-9 344H-3V350H-9V344ZM-27 344V356H-33V344H-27ZM-27 356H-9V362H-27V356ZM-9 362H-3V374H-9V362ZM-9 374V380H-27V374H-9ZM-27 374H-33V368H-27V374ZM8.04 338H14.04V374H8.04V338ZM14.04 374H20.04V380H14.04V374ZM20.04 374V368H26.04V374H20.04ZM26.04 368V350H32.04V368H26.04ZM32.04 368H38.04V374H32.04V368ZM38.04 374H44.04V380H38.04V374ZM44.04 374V338H50.04V374H44.04ZM67.08 338H85.08V344H67.08V338ZM85.08 344H91.08V380H85.08V368H67.08V380H61.08V344H67.08V362H85.08V344ZM108.12 338H132.12V344H114.12V356H132.12V362H114.12V380H108.12V338ZM132.12 344H138.12V356H132.12V344ZM161.16 338H179.16V344H161.16V338ZM179.16 344H185.16V350H179.16V344ZM161.16 344V356H155.16V344H161.16ZM161.16 356H179.16V362H161.16V356ZM179.16 362H185.16V374H179.16V362ZM179.16 374V380H161.16V374H179.16ZM161.16 374H155.16V368H161.16V374ZM196.2 338H202.2V374H196.2V338ZM202.2 374H208.2V380H202.2V374ZM208.2 374V368H214.2V374H208.2ZM214.2 368V350H220.2V368H214.2ZM220.2 368H226.2V374H220.2V368ZM226.2 374H232.2V380H226.2V374ZM232.2 374V338H238.2V374H232.2ZM255.24 338H273.24V344H255.24V338ZM273.24 344H279.24V380H273.24V368H255.24V380H249.24V344H255.24V362H273.24V344ZM296.28 338H320.28V344H302.28V356H320.28V362H302.28V380H296.28V338ZM320.28 344H326.28V356H320.28V344ZM349.32 338H367.32V344H349.32V338ZM367.32 344H373.32V350H367.32V344ZM349.32 344V356H343.32V344H349.32ZM349.32 356H367.32V362H349.32V356ZM367.32 362H373.32V374H367.32V362ZM367.32 374V380H349.32V374H367.32ZM349.32 374H343.32V368H349.32V374ZM384.36 338H390.36V374H384.36V338ZM390.36 374H396.36V380H390.36V374ZM396.36 374V368H402.36V374H396.36ZM402.36 368V350H408.36V368H402.36ZM408.36 368H414.36V374H408.36V368ZM414.36 374H420.36V380H414.36V374ZM420.36 374V338H426.36V374H420.36ZM443.4 338H461.4V344H443.4V338ZM461.4 344H467.4V380H461.4V368H443.4V380H437.4V344H443.4V362H461.4V344ZM484.44 338H508.44V344H490.44V356H508.44V362H490.44V380H484.44V338ZM508.44 344H514.44V356H508.44V344Z" fill="#33E6BF"/>
<path opacity="0.6" d="M-61 403H-43V409H-61V403ZM-43 409H-37V415H-43V409ZM-61 409V421H-67V409H-61ZM-61 421H-43V427H-61V421ZM-43 427H-37V439H-43V427ZM-43 439V445H-61V439H-43ZM-61 439H-67V433H-61V439ZM-25.96 403H-19.96V439H-25.96V403ZM-19.96 439H-13.96V445H-19.96V439ZM-13.96 439V433H-7.96V439H-13.96ZM-7.96 433V415H-1.96V433H-7.96ZM-1.96 433H4.04V439H-1.96V433ZM4.04 439H10.04V445H4.04V439ZM10.04 439V403H16.04V439H10.04ZM33.08 403H51.08V409H33.08V403ZM51.08 409H57.08V445H51.08V433H33.08V445H27.08V409H33.08V427H51.08V409ZM74.12 403H98.12V409H80.12V421H98.12V427H80.12V445H74.12V403ZM98.12 409H104.12V421H98.12V409ZM127.16 403H145.16V409H127.16V403ZM145.16 409H151.16V415H145.16V409ZM127.16 409V421H121.16V409H127.16ZM127.16 421H145.16V427H127.16V421ZM145.16 427H151.16V439H145.16V427ZM145.16 439V445H127.16V439H145.16ZM127.16 439H121.16V433H127.16V439ZM162.2 403H168.2V439H162.2V403ZM168.2 439H174.2V445H168.2V439ZM174.2 439V433H180.2V439H174.2ZM180.2 433V415H186.2V433H180.2ZM186.2 433H192.2V439H186.2V433ZM192.2 439H198.2V445H192.2V439ZM198.2 439V403H204.2V439H198.2ZM221.24 403H239.24V409H221.24V403ZM239.24 409H245.24V445H239.24V433H221.24V445H215.24V409H221.24V427H239.24V409ZM262.28 403H286.28V409H268.28V421H286.28V427H268.28V445H262.28V403ZM286.28 409H292.28V421H286.28V409ZM315.32 403H333.32V409H315.32V403ZM333.32 409H339.32V415H333.32V409ZM315.32 409V421H309.32V409H315.32ZM315.32 421H333.32V427H315.32V421ZM333.32 427H339.32V439H333.32V427ZM333.32 439V445H315.32V439H333.32ZM315.32 439H309.32V433H315.32V439ZM350.36 403H356.36V439H350.36V403ZM356.36 439H362.36V445H356.36V439ZM362.36 439V433H368.36V439H362.36ZM368.36 433V415H374.36V433H368.36ZM374.36 433H380.36V439H374.36V433ZM380.36 439H386.36V445H380.36V439ZM386.36 439V403H392.36V439H386.36ZM409.4 403H427.4V409H409.4V403ZM427.4 409H433.4V445H427.4V433H409.4V445H403.4V409H409.4V427H427.4V409ZM450.44 403H474.44V409H456.44V421H474.44V427H456.44V445H450.44V403ZM474.44 409H480.44V421H474.44V409Z" fill="#33E6BF"/>
<path opacity="0.4" d="M-95 468H-77V474H-95V468ZM-77 474H-71V480H-77V474ZM-95 474V486H-101V474H-95ZM-95 486H-77V492H-95V486ZM-77 492H-71V504H-77V492ZM-77 504V510H-95V504H-77ZM-95 504H-101V498H-95V504ZM-59.96 468H-53.96V504H-59.96V468ZM-53.96 504H-47.96V510H-53.96V504ZM-47.96 504V498H-41.96V504H-47.96ZM-41.96 498V480H-35.96V498H-41.96ZM-35.96 498H-29.96V504H-35.96V498ZM-29.96 504H-23.96V510H-29.96V504ZM-23.96 504V468H-17.96V504H-23.96ZM-0.919998 468H17.08V474H-0.919998V468ZM17.08 474H23.08V510H17.08V498H-0.919998V510H-6.92V474H-0.919998V492H17.08V474ZM40.12 468H64.12V474H46.12V486H64.12V492H46.12V510H40.12V468ZM64.12 474H70.12V486H64.12V474ZM93.16 468H111.16V474H93.16V468ZM111.16 474H117.16V480H111.16V474ZM93.16 474V486H87.16V474H93.16ZM93.16 486H111.16V492H93.16V486ZM111.16 492H117.16V504H111.16V492ZM111.16 504V510H93.16V504H111.16ZM93.16 504H87.16V498H93.16V504ZM128.2 468H134.2V504H128.2V468ZM134.2 504H140.2V510H134.2V504ZM140.2 504V498H146.2V504H140.2ZM146.2 498V480H152.2V498H146.2ZM152.2 498H158.2V504H152.2V498ZM158.2 504H164.2V510H158.2V504ZM164.2 504V468H170.2V504H164.2ZM187.24 468H205.24V474H187.24V468ZM205.24 474H211.24V510H205.24V498H187.24V510H181.24V474H187.24V492H205.24V474ZM228.28 468H252.28V474H234.28V486H252.28V492H234.28V510H228.28V468ZM252.28 474H258.28V486H252.28V474ZM281.32 468H299.32V474H281.32V468ZM299.32 474H305.32V480H299.32V474ZM281.32 474V486H275.32V474H281.32ZM281.32 486H299.32V492H281.32V486ZM299.32 492H305.32V504H299.32V492ZM299.32 504V510H281.32V504H299.32ZM281.32 504H275.32V498H281.32V504ZM316.36 468H322.36V504H316.36V468ZM322.36 504H328.36V510H322.36V504ZM328.36 504V498H334.36V504H328.36ZM334.36 498V480H340.36V498H334.36ZM340.36 498H346.36V504H340.36V498ZM346.36 504H352.36V510H346.36V504ZM352.36 504V468H358.36V504H352.36ZM375.4 468H393.4V474H375.4V468ZM393.4 474H399.4V510H393.4V498H375.4V510H369.4V474H375.4V492H393.4V474ZM416.44 468H440.44V474H422.44V486H440.44V492H422.44V510H416.44V468ZM440.44 474H446.44V486H440.44V474Z" fill="#33E6BF"/>
<path opacity="0.2" d="M-129 533H-111V539H-129V533ZM-111 539H-105V545H-111V539ZM-129 539V551H-135V539H-129ZM-129 551H-111V557H-129V551ZM-111 557H-105V569H-111V557ZM-111 569V575H-129V569H-111ZM-129 569H-135V563H-129V569ZM-93.96 533H-87.96V569H-93.96V533ZM-87.96 569H-81.96V575H-87.96V569ZM-81.96 569V563H-75.96V569H-81.96ZM-75.96 563V545H-69.96V563H-75.96ZM-69.96 563H-63.96V569H-69.96V563ZM-63.96 569H-57.96V575H-63.96V569ZM-57.96 569V533H-51.96V569H-57.96ZM-34.92 533H-16.92V539H-34.92V533ZM-16.92 539H-10.92V575H-16.92V563H-34.92V575H-40.92V539H-34.92V557H-16.92V539ZM6.12 533H30.12V539H12.12V551H30.12V557H12.12V575H6.12V533ZM30.12 539H36.12V551H30.12V539ZM59.16 533H77.16V539H59.16V533ZM77.16 539H83.16V545H77.16V539ZM59.16 539V551H53.16V539H59.16ZM59.16 551H77.16V557H59.16V551ZM77.16 557H83.16V569H77.16V557ZM77.16 569V575H59.16V569H77.16ZM59.16 569H53.16V563H59.16V569ZM94.2 533H100.2V569H94.2V533ZM100.2 569H106.2V575H100.2V569ZM106.2 569V563H112.2V569H106.2ZM112.2 563V545H118.2V563H112.2ZM118.2 563H124.2V569H118.2V563ZM124.2 569H130.2V575H124.2V569ZM130.2 569V533H136.2V569H130.2ZM153.24 533H171.24V539H153.24V533ZM171.24 539H177.24V575H171.24V563H153.24V575H147.24V539H153.24V557H171.24V539ZM194.28 533H218.28V539H200.28V551H218.28V557H200.28V575H194.28V533ZM218.28 539H224.28V551H218.28V539ZM247.32 533H265.32V539H247.32V533ZM265.32 539H271.32V545H265.32V539ZM247.32 539V551H241.32V539H247.32ZM247.32 551H265.32V557H247.32V551ZM265.32 557H271.32V569H265.32V557ZM265.32 569V575H247.32V569H265.32ZM247.32 569H241.32V563H247.32V569ZM282.36 533H288.36V569H282.36V533ZM288.36 569H294.36V575H288.36V569ZM294.36 569V563H300.36V569H294.36ZM300.36 563V545H306.36V563H300.36ZM306.36 563H312.36V569H306.36V563ZM312.36 569H318.36V575H312.36V569ZM318.36 569V533H324.36V569H318.36ZM341.4 533H359.4V539H341.4V533ZM359.4 539H365.4V575H359.4V563H341.4V575H335.4V539H341.4V557H359.4V539ZM382.44 533H406.44V539H388.44V551H406.44V557H388.44V575H382.44V533ZM406.44 539H412.44V551H406.44V539Z" fill="#33E6BF"/>
</g>
</svg>
