<svg width="512" height="512" viewBox="0 0 512 512" fill="none" xmlns="http://www.w3.org/2000/svg">
<rect width="512" height="512" fill="black"/>
<path d="M65.0474 264.064H62.7389V261.756V244.199V241.89H65.0474H80.296V226.652V209.104V206.796H82.6045H97.8432V191.547V189.239H100.152H115.39L115.39 174V171.691H117.699H135.256H152.803H170.36H187.908H205.465H207.773V174V189.239H223.012H225.32V191.547V206.796H240.569H242.878V209.104V226.652V241.89H252.884H258.116H268.133V226.652V209.104V206.796H270.441H285.68V191.547V189.239H287.988H303.237V174V171.691H305.545H323.093H340.65L358.197 171.691H375.744H393.301H395.61V174V189.239H410.849H413.157V191.547V206.796H428.406H430.714V209.104V226.652V241.89H445.953H448.261V244.199V261.756V264.064H445.953H428.406H410.849H393.301H375.744H358.197H340.65H323.093H305.545L287.988 264.064H270.441H258.116H252.884H240.569H223.012H205.465H187.908H170.36H152.803H135.256H117.699H100.152H82.6045H65.0474Z" fill="black" stroke="#33E6BF" stroke-width="4.61702"/>
<path d="M117.697 244.198H100.15V226.651H117.697V244.198Z" fill="#33E6BF"/>
<path d="M187.909 209.104H170.362V191.556H187.909V209.104Z" fill="#33E6BF"/>
<path d="M170.352 226.65H152.804V209.103H170.352V226.65Z" fill="#33E6BF"/>
<path d="M135.243 226.65H117.696V209.103H135.243V226.65Z" fill="#33E6BF"/>
<path d="M152.8 209.104H135.253V191.556H152.8V209.104Z" fill="#33E6BF"/>
<path d="M205.455 226.65H187.908V209.103H205.455V226.65Z" fill="#33E6BF"/>
<path d="M223.012 244.198H205.465V226.651H223.012V244.198Z" fill="#33E6BF"/>
<path d="M410.852 244.198H393.304V226.651H410.852V244.198Z" fill="#33E6BF"/>
<path d="M340.64 209.104H323.093V191.556H340.64V209.104Z" fill="#33E6BF"/>
<path d="M358.198 226.65H340.65V209.103H358.198V226.65Z" fill="#33E6BF"/>
<path d="M393.294 226.65H375.747V209.103H393.294V226.65Z" fill="#33E6BF"/>
<path d="M375.744 209.104H358.196V191.556H375.744V209.104Z" fill="#33E6BF"/>
<path d="M323.094 226.65H305.547V209.103H323.094V226.65Z" fill="#33E6BF"/>
<path d="M305.532 244.198H287.984V226.651H305.532V244.198Z" fill="#33E6BF"/>
<path d="M62 292.843H73.1015V325.492H78.6523V305.902H89.7539V325.492H95.3046V292.843H106.406V332.022H100.855V338.551H89.7539V332.022H78.6523V338.551H67.5508V332.022H62V292.843Z" fill="white"/>
<path d="M111.069 292.843H144.373V299.373H122.17V312.432H138.823V318.962H122.17V332.022H144.373V338.551H111.069V292.843Z" fill="white"/>
<path d="M149.036 292.843H160.138V325.492H165.688V305.902H176.79V325.492H182.341V292.843H193.442V332.022H187.892V338.551H176.79V332.022H165.688V338.551H154.587V332.022H149.036V292.843Z" fill="white"/>
<path d="M198.105 292.843H231.41V299.373H209.207V312.432H225.859V318.962H209.207V332.022H231.41V338.551H198.105V292.843Z" fill="white"/>
<path d="M290.692 292.843H312.895V299.373H318.446V305.902H307.344V299.373H296.243V312.432H312.895V318.962H318.446V332.022H312.895V338.551H290.692V332.022H285.141V325.492H296.243V332.022H307.344V318.962H290.692V312.432H285.141V299.373H290.692V292.843Z" fill="white"/>
<path d="M323.108 292.843H334.21V325.492H339.761V305.902H350.862V325.492H356.413V292.843H367.515V332.022H361.964V338.551H350.862V332.022H339.761V338.551H328.659V332.022H323.108V292.843Z" fill="white"/>
<path d="M377.728 292.843H399.931V299.373H405.482V338.551H394.38V325.492H383.279V338.551H372.177V299.373H377.728V292.843ZM383.279 299.373V318.962H394.38V299.373H383.279Z" fill="white"/>
<path d="M415.695 292.843H443.449V299.373H449V312.432H443.449V318.962H426.797V338.551H415.695V292.843ZM426.797 299.373V312.432H437.898V299.373H426.797Z" fill="white"/>
</svg>
