<?xml version="1.0" standalone="no"?>
<!DOCTYPE svg PUBLIC "-//W3C//DTD SVG 20010904//EN"
 "http://www.w3.org/TR/2001/REC-SVG-20010904/DTD/svg10.dtd">
<svg version="1.0" xmlns="http://www.w3.org/2000/svg"
 width="712.000000pt" height="712.000000pt" viewBox="0 0 712.000000 712.000000"
 preserveAspectRatio="xMidYMid meet">
<metadata>
Created by potrace 1.14, written by Peter Selinger 2001-2017
</metadata>
<g transform="translate(0.000000,712.000000) scale(0.100000,-0.100000)"
fill="#000000" stroke="none">
<path d="M3747 7083 c-3 -5 -12 -33 -20 -63 -8 -30 -36 -127 -62 -215 -26 -88
-48 -164 -50 -170 -1 -5 -5 -17 -8 -25 -6 -15 -39 -127 -42 -145 -2 -5 -19
-66 -40 -134 -20 -68 -38 -131 -41 -140 -2 -9 -20 -70 -39 -136 -20 -66 -38
-127 -40 -135 -3 -8 -33 -111 -67 -228 -55 -187 -64 -209 -70 -180 -15 67 -20
94 -23 133 -2 22 -5 40 -5 40 -3 0 -19 90 -26 145 -2 19 -7 49 -11 65 -3 17
-7 39 -9 50 -1 11 -5 36 -9 55 -3 19 -8 46 -10 60 -7 55 -16 107 -21 130 -3
14 -7 35 -8 47 -4 44 -16 35 -17 -13 -1 -27 -2 -61 -3 -76 0 -16 -3 -28 -6
-28 -3 0 -5 -12 -6 -27 -1 -33 -13 -165 -20 -208 -4 -32 -9 -79 -19 -183 -4
-35 -8 -72 -10 -81 -2 -10 -6 -54 -10 -97 -4 -43 -10 -82 -14 -86 -3 -4 -26
39 -50 95 -24 56 -52 120 -62 142 -10 22 -61 141 -114 265 -53 124 -103 240
-111 258 -8 17 -20 47 -28 65 -8 17 -23 52 -34 77 -11 25 -41 95 -67 155 -26
61 -56 130 -67 155 -12 25 -33 74 -48 110 -15 36 -37 88 -50 115 -43 95 -50
113 -50 123 0 6 -4 13 -9 17 -6 3 -8 -4 -6 -17 3 -12 7 -38 10 -58 27 -196 35
-251 40 -290 3 -25 7 -56 9 -70 3 -14 7 -47 11 -75 3 -27 11 -81 16 -120 6
-38 12 -90 14 -114 3 -24 7 -51 9 -60 3 -9 8 -41 11 -71 6 -52 9 -73 20 -137
2 -16 7 -50 10 -78 3 -27 7 -61 10 -75 2 -14 7 -50 10 -80 4 -30 8 -62 10 -70
1 -8 6 -37 9 -65 4 -27 9 -63 12 -78 2 -16 6 -45 8 -65 3 -20 7 -55 11 -77 l6
-40 -23 26 c-13 15 -48 62 -78 104 -30 43 -73 101 -95 130 -22 29 -47 63 -55
75 -8 12 -33 46 -55 75 -35 47 -73 99 -163 223 -25 34 -41 38 -23 5 15 -27 91
-230 91 -242 0 -6 4 -19 9 -29 17 -33 31 -68 86 -217 87 -235 89 -240 88 -245
-1 -3 3 -11 9 -17 22 -27 -7 -11 -56 30 -49 43 -358 296 -446 367 -24 19 -71
58 -104 86 -34 28 -124 101 -201 164 -77 62 -144 118 -150 124 -5 6 -28 24
-50 40 -22 17 -42 33 -45 37 -13 17 -181 149 -190 149 -5 0 -10 4 -10 9 0 5
-19 24 -41 42 l-42 33 29 -44 c16 -25 39 -56 52 -70 12 -14 22 -30 22 -37 0
-6 3 -13 8 -15 11 -4 82 -106 82 -117 0 -5 4 -11 9 -13 5 -1 46 -57 92 -123
45 -66 111 -160 146 -208 35 -48 63 -90 63 -92 0 -3 7 -13 15 -22 8 -10 46
-63 84 -118 38 -55 79 -113 91 -130 12 -16 54 -77 95 -135 41 -58 78 -110 82
-116 4 -5 13 -17 18 -26 6 -8 28 -42 51 -74 62 -90 62 -91 -2 -47 -32 22 -126
84 -209 137 -82 52 -155 100 -162 106 -7 5 -17 10 -23 10 -5 0 -10 5 -10 10 0
6 -7 10 -15 10 -8 0 -15 5 -15 10 0 6 -7 10 -15 10 -8 0 -15 5 -15 10 0 6 -6
10 -13 10 -7 0 -23 9 -35 20 -12 11 -24 20 -27 20 -4 0 -27 14 -51 31 -25 17
-47 29 -49 27 -2 -2 15 -24 38 -50 24 -25 63 -69 87 -98 25 -29 63 -72 85 -96
22 -23 58 -64 80 -90 22 -26 49 -56 60 -68 11 -12 54 -59 94 -106 41 -47 77
-87 80 -90 4 -3 31 -34 61 -70 30 -36 63 -74 73 -84 19 -22 21 -33 9 -38 -19
-7 -172 -287 -172 -314 0 -5 -19 -25 -42 -44 -114 -93 -290 -260 -393 -374 -6
-6 -35 -40 -65 -76 -30 -35 -63 -73 -72 -84 -21 -23 -31 -83 -31 -186 -1 -70
7 -178 17 -225 25 -121 74 -277 93 -296 10 -10 30 -15 97 -24 22 -3 48 -7 56
-8 23 -6 74 -18 85 -22 6 -1 12 -3 15 -3 7 0 91 -32 110 -41 8 -4 40 -15 71
-26 55 -18 58 -18 75 0 24 24 111 78 151 94 18 7 31 20 31 29 0 10 2 31 5 47
3 17 9 44 12 62 13 76 46 108 200 193 33 18 68 40 78 48 9 8 17 12 17 8 0 -4
10 0 22 8 12 9 30 16 39 16 10 0 19 4 21 9 3 9 165 67 212 75 19 3 43 -2 65
-14 158 -85 374 -130 505 -105 49 10 150 47 164 62 7 7 17 13 22 13 12 0 111
98 141 140 14 19 40 64 58 100 31 60 36 50 10 -17 -6 -15 -11 -30 -12 -33 0
-3 -19 -40 -42 -83 -101 -191 -196 -299 -676 -760 -90 -88 -180 -180 -199
-205 -19 -26 -40 -51 -47 -57 -26 -22 -142 -206 -180 -285 -49 -103 -77 -180
-98 -280 -9 -41 -20 -89 -24 -106 -16 -62 -9 -363 10 -478 56 -324 199 -593
439 -824 69 -67 214 -182 229 -182 5 0 11 -3 13 -8 11 -25 357 -201 428 -217
8 -2 54 -15 101 -29 82 -24 159 -41 159 -34 0 2 -8 26 -19 53 -16 43 -26 93
-37 195 -4 34 -4 266 0 315 6 67 21 181 31 235 9 48 13 65 15 68 2 1 3 5 4 10
1 4 11 32 23 63 67 175 274 425 513 619 23 19 49 41 56 48 7 6 17 12 22 12 6
0 12 3 14 8 7 16 194 152 209 152 4 0 1 -18 -7 -39 -7 -22 -16 -53 -19 -68 -4
-25 -9 -48 -20 -103 -9 -44 -18 -155 -19 -234 -3 -131 11 -240 49 -386 2 -8 4
-23 4 -33 1 -30 18 -10 26 30 12 66 82 210 108 221 4 2 7 9 7 15 0 7 16 29 35
50 19 21 35 40 35 42 0 5 -1 3 226 241 238 249 307 326 457 514 43 53 103 168
127 242 11 37 26 50 27 26 1 -18 12 -88 18 -118 3 -14 7 -38 10 -55 5 -25 13
-66 21 -97 1 -5 2 -11 3 -15 2 -16 131 271 146 327 1 3 5 14 9 25 4 11 13 34
19 50 6 17 12 35 13 40 1 6 14 52 28 104 14 51 25 96 24 100 0 3 1 8 2 11 3 8
16 83 27 155 10 64 10 374 1 440 -7 48 -11 68 -23 125 -3 14 -7 34 -10 45 -15
75 -64 206 -110 300 -73 149 -78 156 -159 257 -25 32 -46 60 -46 63 0 3 17 -3
38 -14 58 -29 224 -99 312 -131 l80 -29 -6 27 c-15 69 -26 109 -34 132 -10 32
-17 53 -19 62 -1 8 -48 111 -92 203 -37 78 -157 270 -194 311 -5 6 -21 26 -35
44 -14 19 -44 53 -67 77 -27 29 -37 45 -30 50 13 8 20 13 112 63 33 18 78 42
100 55 44 25 139 76 255 138 97 52 120 67 99 67 -9 0 -19 -3 -23 -7 -3 -4 -15
-8 -26 -10 -11 -1 -88 -19 -172 -38 -84 -20 -161 -38 -171 -40 -10 -2 -26 -6
-35 -9 -9 -3 -28 -7 -42 -10 -14 -3 -76 -16 -139 -30 -137 -31 -136 -31 -164
-5 -36 34 -178 125 -242 155 -33 16 -62 30 -65 32 -5 4 61 64 98 89 46 32 12
23 -77 -19 -86 -42 -92 -43 -128 -31 -20 8 -48 16 -62 19 -32 6 -41 9 -66 17
-21 6 -84 18 -125 23 -14 1 -27 3 -30 4 -3 1 -12 2 -22 1 -23 -3 -31 14 -13
29 8 7 15 18 15 24 0 6 11 24 25 40 14 16 25 35 25 43 0 7 3 13 8 13 4 0 12 9
17 20 6 11 84 135 175 275 91 140 170 263 175 273 6 9 25 38 43 64 17 26 32
51 32 56 0 6 4 12 8 14 4 2 39 53 77 113 38 61 76 119 84 130 15 19 15 19 -4
5 -11 -8 -27 -21 -36 -30 -8 -8 -49 -44 -90 -80 -40 -36 -94 -83 -119 -106
-25 -22 -58 -52 -74 -65 -15 -13 -43 -37 -60 -54 -18 -16 -61 -55 -95 -85 -35
-30 -82 -73 -106 -95 -23 -22 -58 -53 -76 -69 -55 -48 -372 -330 -389 -346
-101 -96 -210 -182 -210 -167 0 2 58 178 129 391 70 212 124 386 119 386 -5 0
-12 -8 -15 -17 -4 -10 -11 -22 -15 -28 -28 -34 -108 -156 -108 -165 0 -5 -4
-10 -8 -10 -5 0 -17 -16 -28 -35 -10 -19 -22 -35 -26 -35 -5 0 -8 -6 -8 -14 0
-8 -7 -21 -15 -30 -8 -8 -69 -96 -135 -195 -67 -100 -123 -181 -125 -181 -3 0
-3 161 0 358 6 412 15 1058 18 1245 1 70 1 127 0 127 -1 0 -4 -3 -6 -7z"/>
</g>
</svg>
