<svg width="44" height="44" viewBox="0 0 44 44" fill="none" xmlns="http://www.w3.org/2000/svg">
<path fill-rule="evenodd" clip-rule="evenodd" d="M18.4724 24.3057H16.1148V26.6632H18.4724V24.3057Z" fill="#33E6BF"/>
<path fill-rule="evenodd" clip-rule="evenodd" d="M29.0815 14.875H26.724V17.2326H29.0815V14.875Z" fill="#33E6BF"/>
<path fill-rule="evenodd" clip-rule="evenodd" d="M19.6514 26.6631H17.2938V29.0206H19.6514V26.6631Z" fill="#33E6BF"/>
<path fill-rule="evenodd" clip-rule="evenodd" d="M27.9028 17.2324H25.5453V19.59H27.9028V17.2324Z" fill="#33E6BF"/>
<path fill-rule="evenodd" clip-rule="evenodd" d="M17.2937 21.9482H14.9361V24.3058H17.2937V21.9482Z" fill="#33E6BF"/>
<path fill-rule="evenodd" clip-rule="evenodd" d="M16.115 19.5898H13.7574V21.9474H16.115V19.5898Z" fill="#33E6BF"/>
<path fill-rule="evenodd" clip-rule="evenodd" d="M25.5452 21.9482H23.1876V24.3058H25.5452V21.9482Z" fill="#33E6BF"/>
<path fill-rule="evenodd" clip-rule="evenodd" d="M26.7239 19.5898H24.3663V21.9474H26.7239V19.5898Z" fill="#33E6BF"/>
<path fill-rule="evenodd" clip-rule="evenodd" d="M30.2603 12.5176H27.9027V14.8751H30.2603V12.5176Z" fill="#33E6BF"/>
<path fill-rule="evenodd" clip-rule="evenodd" d="M22.0088 29.0205H18.4724V31.3781H22.0088V29.0205Z" fill="#33E6BF"/>
<path fill-rule="evenodd" clip-rule="evenodd" d="M24.3665 24.3057H22.0089V26.6632H24.3665V24.3057Z" fill="#33E6BF"/>
<path fill-rule="evenodd" clip-rule="evenodd" d="M23.1875 26.6631H20.8299V29.0206H23.1875V26.6631Z" fill="#33E6BF"/>
</svg>
