<svg width="16" height="16" viewBox="0 0 16 16" fill="none" xmlns="http://www.w3.org/2000/svg">
<path d="M12.0006 15.3327V14.0001H13.334V12.6667C12.8888 12.6668 12.4458 12.6661 12.0006 12.6661V11.3327H10.6673L10.6673 9.99941H9.33398L9.33398 8.66607L8.00067 8.66541V7.33278H9.334V5.99946H10.6673V4.66742H12.0006L12.0006 3.33344H13.334L13.334 2.0001C12.8889 2.00015 12.4458 1.99943 12.0006 1.99943V0.666093H9.33398L9.33331 1.99943C8.88794 1.99939 8.44471 2.0001 7.99934 2.0001V3.33278H6.66731V4.66612H5.33398V5.99814H4.00064V7.33213H2.66731V8.66548C3.11232 8.66481 3.55631 8.66614 4.00064 8.66614V9.99946H5.33398L5.33398 11.3328H6.66729V12.6661L7.99936 12.6668L7.99936 14.0001L9.33335 14.0001V15.3315L9.33402 15.3328L12.0006 15.3327Z" fill="white"/>
</svg>
