<svg width="16" height="16" viewBox="0 0 16 16" fill="none" xmlns="http://www.w3.org/2000/svg">
<path d="M15.333 3.99959L14.0003 3.99959L14.0003 2.66626L12.667 2.66626C12.667 3.1114 12.6663 3.55447 12.6663 3.99959L11.333 3.99959L11.333 5.33293L9.99965 5.33293L9.99965 6.66626L8.66632 6.66626L8.66565 7.99958L7.33303 7.99958L7.33303 6.66624L5.9997 6.66624L5.9997 5.33293L4.66767 5.33293L4.66767 3.99959L3.33368 3.99959L3.33368 2.66626L2.00034 2.66626C2.00039 3.11135 1.99967 3.55449 1.99967 3.99959L0.666337 3.99959L0.666337 6.66626L1.99967 6.66694C1.99963 7.1123 2.00034 7.55554 2.00034 8.00091L3.33303 8.00091L3.33303 9.33293L4.66636 9.33293L4.66636 10.6663L5.99839 10.6663L5.99839 11.9996L7.33238 11.9996L7.33238 13.3329L8.66572 13.3329C8.66505 12.8879 8.66638 12.4439 8.66638 11.9996L9.99971 11.9996L9.99971 10.6663L11.333 10.6663L11.333 9.33295L12.6664 9.33295L12.667 8.00089L14.0004 8.00089L14.0004 6.6669L15.3317 6.6669L15.333 6.66623L15.333 3.99959Z" fill="white"/>
</svg>
