<svg width="16" height="16" viewBox="0 0 16 16" fill="none" xmlns="http://www.w3.org/2000/svg">
<path fill-rule="evenodd" clip-rule="evenodd" d="M15.4928 8.5951C15.8051 8.8673 15.8375 9.3411 15.5653 9.6533L10.4744 15.4929C10.2689 15.7286 9.9387 15.8121 9.6459 15.7023C9.3531 15.5926 9.1591 15.3127 9.1591 15L9.1591 1.00003C9.1591 0.58582 9.4949 0.25003 9.9091 0.25003C10.3233 0.25003 10.6591 0.58582 10.6591 1.00003L10.6591 12.9984L14.4347 8.6676C14.7069 8.3554 15.1806 8.3229 15.4928 8.5951Z" fill="white"/>
<path fill-rule="evenodd" clip-rule="evenodd" d="M0.507141 7.4049C0.194941 7.1327 0.162542 6.659 0.434742 6.3468L5.52564 0.507179C5.73114 0.271469 6.06124 0.187998 6.35414 0.297718C6.64694 0.407438 6.84094 0.687328 6.84094 1.00003L6.84094 15C6.84094 15.4142 6.50514 15.75 6.09094 15.75C5.67674 15.75 5.34094 15.4142 5.34094 15L5.34094 3.00165L1.56534 7.3325C1.29314 7.6447 0.819441 7.6771 0.507141 7.4049Z" fill="white"/>
</svg>
