<svg width="16" height="16" viewBox="0 0 16 16" fill="none" xmlns="http://www.w3.org/2000/svg">
<path d="M3.99958 0.667294V1.99993L2.66624 1.99993L2.66624 3.33325C3.11138 3.3332 3.55445 3.33392 3.99958 3.33392L3.99958 4.66727H5.33291V6.00059H6.66625V7.33393L7.99956 7.33459V8.66722H6.66623V10.0005H5.33291V11.3326H3.99958V12.6666H2.66624V13.9999C3.11133 13.9998 3.55448 14.0006 3.99958 14.0006L3.99958 15.3339H6.66625L6.66692 14.0006C7.11229 14.0006 7.55552 13.9999 8.00089 13.9999V12.6672H9.33292V11.3339H10.6663V10.0019L11.9996 10.0019L11.9996 8.66787H13.3329V7.33452C12.8879 7.33519 12.4439 7.33386 11.9996 7.33386V6.00054H10.6663V4.6672L9.33294 4.6672V3.33386L8.00087 3.33319V1.99988H6.66688V0.668505L6.66621 0.667236L3.99958 0.667294Z" fill="white"/>
</svg>
