<svg width="24" height="24" viewBox="0 0 24 24" fill="none" xmlns="http://www.w3.org/2000/svg">
<path d="M22.4348 7.82611V4.69566H20.8696V3.13045H19.3044V1.5652H16.1739V0H7.82611V1.5652H4.69566V3.13041H3.13045V4.69561H1.5652V7.82606H0V16.1739H1.5652V19.3043H3.13041V20.8695H4.69561V22.4348H7.82606V24H16.1739V22.4348H19.3043V20.8696H20.8695V19.3044H22.4348V16.1739H24V7.82611H22.4348ZM16.1739 8.86955H14.6087V7.30434H9.39131V10.9565H14.6087V12.5217H16.1739V16.6956H14.6087V18.2608H12.5217V20.3478H10.9565V18.2608H9.39131V16.6956H7.82611V15.1304H9.39131V16.6956H14.6087V12.5217H9.39131V10.9565H7.82611V7.30434H9.39131V5.73914H10.9565V3.65217H12.5217V5.73914H14.6087V7.30434H16.1739V8.86955Z" fill="#FFF624"/>
</svg>
