<svg width="25" height="24" viewBox="0 0 25 24" fill="none" xmlns="http://www.w3.org/2000/svg">
<path d="M23.0242 7.82611V4.69566H21.4589V3.13045H19.8937V1.5652H16.7633V0H8.41546V1.5652H5.28501V3.13041H3.71981V4.69561H2.15456V7.82606H0.589355V16.1739H2.15456V19.3043H3.71976V20.8695H5.28496V22.4347H8.41542V24H16.7632V22.4348H19.8937V20.8696H21.4589V19.3044H23.0241V16.1739H24.5894V7.82611H23.0242ZM16.7632 8.86955H15.198V7.30434H9.98067V10.9565H15.198V12.5217H16.7632V16.6956H15.198V18.2608H13.1111V20.3478H11.5459V18.2608H9.98067V16.6956H8.41546V15.1304H9.98067V16.6956H15.198V12.5217H9.98067V10.9565H8.41546V7.30434H9.98067V5.73914H11.5459V3.65217H13.1111V5.73914H15.198V7.30434H16.7632V8.86955Z" fill="#33E6BF"/>
</svg>
