<svg width="43" height="44" viewBox="0 0 43 44" fill="none" xmlns="http://www.w3.org/2000/svg">
<circle cx="21.5088" cy="21.9407" r="21.2181" fill="#33E6BF" fill-opacity="0.26"/>
<path fill-rule="evenodd" clip-rule="evenodd" d="M17.9725 24.2988H15.6149V26.6564H17.9725V24.2988Z" fill="#33E6BF"/>
<path fill-rule="evenodd" clip-rule="evenodd" d="M28.5815 14.8682H26.224V17.2257H28.5815V14.8682Z" fill="#33E6BF"/>
<path fill-rule="evenodd" clip-rule="evenodd" d="M19.1513 26.6562H16.7937V29.0138H19.1513V26.6562Z" fill="#33E6BF"/>
<path fill-rule="evenodd" clip-rule="evenodd" d="M27.4027 17.2256H25.0452V19.5831H27.4027V17.2256Z" fill="#33E6BF"/>
<path fill-rule="evenodd" clip-rule="evenodd" d="M16.7937 21.9414H14.4361V24.299H16.7937V21.9414Z" fill="#33E6BF"/>
<path fill-rule="evenodd" clip-rule="evenodd" d="M15.6149 19.583H13.2574V21.9406H15.6149V19.583Z" fill="#33E6BF"/>
<path fill-rule="evenodd" clip-rule="evenodd" d="M25.0452 21.9414H22.6876V24.299H25.0452V21.9414Z" fill="#33E6BF"/>
<path fill-rule="evenodd" clip-rule="evenodd" d="M26.224 19.583H23.8664V21.9406H26.224V19.583Z" fill="#33E6BF"/>
<path fill-rule="evenodd" clip-rule="evenodd" d="M29.7603 12.5107H27.4028V14.8683H29.7603V12.5107Z" fill="#33E6BF"/>
<path fill-rule="evenodd" clip-rule="evenodd" d="M21.5089 29.0137H17.9725V31.3712H21.5089V29.0137Z" fill="#33E6BF"/>
<path fill-rule="evenodd" clip-rule="evenodd" d="M23.8664 24.2988H21.5088V26.6564H23.8664V24.2988Z" fill="#33E6BF"/>
<path fill-rule="evenodd" clip-rule="evenodd" d="M22.6876 26.6562H20.3301V29.0138H22.6876V26.6562Z" fill="#33E6BF"/>
</svg>
