<svg width="20" height="20" viewBox="0 0 20 20" fill="none" xmlns="http://www.w3.org/2000/svg">
<path d="M18.4228 5.61761L16.8519 5.61761L16.8519 4.0459L15.2802 4.0459C15.2803 4.57062 15.2794 5.0929 15.2794 5.61761L13.7077 5.61761L13.7077 7.18932L12.136 7.18932L12.136 8.76103L10.5643 8.76103L10.5635 10.3327L8.99262 10.3327L8.99262 8.76101L7.42092 8.76101L7.42092 7.18932L5.85074 7.18932L5.85074 5.61761L4.27826 5.61761L4.27826 4.0459L2.70655 4.0459C2.70661 4.57056 2.70576 5.09293 2.70576 5.61761L1.13404 5.61761L1.13404 8.76103L2.70576 8.76182C2.70571 9.28681 2.70655 9.80929 2.70655 10.3343L4.27749 10.3343L4.27749 11.9045L5.8492 11.9045L5.8492 13.4762L7.41937 13.4762L7.41937 15.0479L8.99185 15.0479L8.99185 16.6196L10.5636 16.6196C10.5628 16.095 10.5644 15.5716 10.5644 15.0479L12.1361 15.0479L12.1361 13.4762L13.7078 13.4762L13.7078 11.9045L15.2795 11.9045L15.2803 10.3343L16.852 10.3343L16.852 8.76178L18.4214 8.76178L18.4229 8.76099L18.4228 5.61761Z" fill="white"/>
</svg>
