<svg width="24" height="25" viewBox="0 0 24 25" fill="none" xmlns="http://www.w3.org/2000/svg">
<g clip-path="url(#clip0_2775_14469)">
<path d="M17.1428 11.3571V9.64288H18.8572V7.92856H20.5714V6.2143H22.2857V4.49998H24V2.21427H22.2857V0.5H20V2.21427H18.2857V3.92858H16.5714V5.64284H14.8571V7.35716H13.1429V9.07142H10.8571V7.35716H9.14288V5.64284H7.42856V3.92858H5.7143V2.21427H3.99998V0.5H1.71427V2.21427H0V4.49998H1.71427V6.2143H3.42858V7.92856H5.14284V9.64288H6.85716V11.3571H8.57142V13.6429H6.85716V15.3571H5.14284V17.0714H3.42858V18.7857H1.71427V20.5H0V22.7857H1.71427V24.5H3.99998V22.7857H5.7143V21.0714H7.42856V19.3572H9.14288V17.6428H10.8571V15.9286H13.1429V17.6428H14.8571V19.3572H16.5714V21.0714H18.2857V22.7857H20V24.5H22.2857V22.7857H24V20.5H22.2857V18.7857H20.5714V17.0714H18.8572V15.3571H17.1428V13.6429H15.4286V11.3571H17.1428Z" fill="white"/>
</g>
<defs>
<clipPath id="clip0_2775_14469">
<rect width="24" height="24" fill="white" transform="translate(0 0.5)"/>
</clipPath>
</defs>
</svg>
