<svg width="14" height="15" viewBox="0 0 14 15" fill="none" xmlns="http://www.w3.org/2000/svg">
<g clip-path="url(#clip0_2775_5851)">
<path d="M12.7482 2.33545L11.5815 1.16877C11.4676 1.05483 11.283 1.05483 11.1691 1.16877C11.0552 1.28271 11.0552 1.46729 11.1691 1.5812L12.1296 2.54165L11.1691 3.5021C11.1144 3.55679 11.0837 3.63083 11.0837 3.70832V4.58332C11.0837 5.22678 11.6069 5.75 12.2503 5.75V10.7083C12.2503 10.8692 12.1196 11 11.9587 11C11.7977 11 11.667 10.8693 11.667 10.7083V10.125C11.667 9.64249 11.2745 9.25 10.792 9.25H10.5003V1.66668C10.5003 1.02322 9.97712 0.5 9.33367 0.5H3.50034C2.85692 0.5 2.33367 1.02322 2.33367 1.66668V12.1667C1.69024 12.1667 1.16699 12.6899 1.16699 13.3334V14.2084C1.16699 14.3696 1.29745 14.5 1.45867 14.5H11.3753C11.5366 14.5 11.667 14.3696 11.667 14.2084V13.3334C11.667 12.6899 11.1438 12.1667 10.5003 12.1667V9.83335H10.792C10.9529 9.83335 11.0837 9.96408 11.0837 10.125V10.7084C11.0837 11.1909 11.4762 11.5834 11.9587 11.5834C12.4412 11.5834 12.8337 11.1909 12.8337 10.7084V2.54168C12.8337 2.46418 12.8029 2.39014 12.7482 2.33545ZM9.33367 5.46374C9.33367 5.62496 9.20321 5.75541 9.04199 5.75541H3.79199C3.63077 5.75541 3.50032 5.62496 3.50032 5.46374V1.95832C3.50032 1.79711 3.63077 1.66665 3.79199 1.66665H9.04199C9.20321 1.66665 9.33367 1.79711 9.33367 1.95832V5.46374Z" fill="white"/>
</g>
<defs>
<clipPath id="clip0_2775_5851">
<rect width="14" height="14" fill="white" transform="translate(0 0.5)"/>
</clipPath>
</defs>
</svg>
