<svg width="15" height="17" viewBox="0 0 15 17" fill="none" xmlns="http://www.w3.org/2000/svg">
<path d="M14.0791 2.41626L12.6863 1.02348C12.5503 0.887456 12.3299 0.887456 12.1939 1.02348C12.0579 1.1595 12.0579 1.37984 12.1939 1.51583L13.3405 2.66242L12.1939 3.809C12.1287 3.87429 12.0919 3.96268 12.0919 4.05519V5.09977C12.0919 5.86792 12.7166 6.49255 13.4847 6.49255V12.4118C13.4847 12.6039 13.3287 12.76 13.1365 12.76C12.9444 12.76 12.7883 12.6039 12.7883 12.4118V11.7154C12.7883 11.1394 12.3198 10.6708 11.7437 10.6708H11.3956V1.61787C11.3956 0.849721 10.7709 0.225098 10.0028 0.225098H3.03897C2.27085 0.225098 1.6462 0.849721 1.6462 1.61787V14.1528C0.878074 14.1528 0.253418 14.7774 0.253418 15.5455V16.5901C0.253418 16.7826 0.409158 16.9383 0.60162 16.9383H12.4401C12.6326 16.9383 12.7883 16.7826 12.7883 16.5901V15.5455C12.7883 14.7774 12.1637 14.1528 11.3956 14.1528V11.3673H11.7438C11.9359 11.3673 12.092 11.5233 12.092 11.7155V12.4118C12.092 12.9878 12.5605 13.4564 13.1365 13.4564C13.7126 13.4564 14.1811 12.9878 14.1811 12.4118V2.66245C14.1811 2.56994 14.1444 2.48154 14.0791 2.41626ZM10.0028 6.15081C10.0028 6.34327 9.84705 6.49901 9.65459 6.49901H3.38714C3.19468 6.49901 3.03894 6.34327 3.03894 6.15081V1.96604C3.03894 1.77358 3.19468 1.61784 3.38714 1.61784H9.65459C9.84705 1.61784 10.0028 1.77358 10.0028 1.96604V6.15081Z" fill="white"/>
</svg>
