<svg xmlns="http://www.w3.org/2000/svg" width="24" height="24" viewBox="0 0 24 24" fill="none" stroke="currentColor" stroke-width="1.5" stroke-linecap="round" stroke-linejoin="round" class="tabler-icon tabler-icon-grip-horizontal" style="width: calc(1.25rem * var(--mantine-scale)); height: calc(1.25rem * var(--mantine-scale));"><path d="M5 9m-1 0a1 1 0 1 0 2 0a1 1 0 1 0 -2 0"></path><path d="M5 15m-1 0a1 1 0 1 0 2 0a1 1 0 1 0 -2 0"></path><path d="M12 9m-1 0a1 1 0 1 0 2 0a1 1 0 1 0 -2 0"></path><path d="M12 15m-1 0a1 1 0 1 0 2 0a1 1 0 1 0 -2 0"></path><path d="M19 9m-1 0a1 1 0 1 0 2 0a1 1 0 1 0 -2 0"></path><path d="M19 15m-1 0a1 1 0 1 0 2 0a1 1 0 1 0 -2 0"></path></svg>