<svg width="24" height="25" viewBox="0 0 24 25" fill="none" xmlns="http://www.w3.org/2000/svg">
<circle cx="12" cy="12.5" r="12" fill="#F29DFF"/>
<path d="M16.1738 7.70006C15.5627 7.69546 14.958 7.84285 14.4021 8.13192C13.8462 8.421 13.3525 8.84479 12.9553 9.37369L12.3321 10.191L13.7231 12.0204L14.5435 10.9425C14.7449 10.6749 14.995 10.4605 15.2766 10.3142C15.5581 10.1678 15.8643 10.0931 16.1738 10.0952C16.4515 10.0902 16.7272 10.1482 16.985 10.2657C17.2428 10.3832 17.4775 10.558 17.6754 10.7798C17.8733 11.0016 18.0305 11.266 18.1378 11.5576C18.2451 11.8492 18.3003 12.1623 18.3003 12.4785C18.3003 12.7946 18.2451 13.1077 18.1378 13.3993C18.0305 13.6909 17.8733 13.9554 17.6754 14.1772C17.4775 14.399 17.2428 14.5737 16.985 14.6912C16.7272 14.8087 16.4515 14.8667 16.1738 14.8617C15.8653 14.864 15.5601 14.7896 15.2794 14.6438C14.9988 14.498 14.7494 14.2842 14.5488 14.0174C11.5023 10.012 12.9498 11.9216 11.0148 9.3707C10.6171 8.84272 10.1232 8.41975 9.56732 8.13123C9.01149 7.84272 8.40712 7.69558 7.79627 7.70006C6.68325 7.70006 5.61581 8.20349 4.82878 9.09962C4.04176 9.99574 3.59961 11.2111 3.59961 12.4785C3.59961 13.7458 4.04176 14.9612 4.82878 15.8573C5.61581 16.7534 6.68325 17.2569 7.79627 17.2569C8.40739 17.2614 9.01203 17.1141 9.56794 16.825C10.1238 16.5359 10.6176 16.1121 11.0148 15.5832L11.6379 14.7659L10.2469 12.9365L9.42655 14.0144C9.22519 14.282 8.97503 14.4964 8.69348 14.6427C8.41193 14.7891 8.10576 14.8638 7.79627 14.8617C7.51861 14.8667 7.24285 14.8087 6.98505 14.6912C6.72725 14.5737 6.49257 14.399 6.29466 14.1772C6.09675 13.9554 5.93958 13.6909 5.83229 13.3993C5.72501 13.1077 5.66976 12.7946 5.66976 12.4785C5.66976 12.1623 5.72501 11.8492 5.83229 11.5576C5.93958 11.266 6.09675 11.0016 6.29466 10.7798C6.49257 10.558 6.72725 10.3832 6.98505 10.2657C7.24285 10.1482 7.51861 10.0902 7.79627 10.0952C8.10477 10.0929 8.40999 10.1673 8.69066 10.3131C8.97132 10.4589 9.22066 10.6727 9.42129 10.9395C12.4678 14.9449 11.0203 13.0353 12.9553 15.5862C13.4113 16.2047 13.997 16.6822 14.6581 16.9745C15.3192 17.2668 16.0344 17.3644 16.7375 17.2584C17.4406 17.1524 18.1088 16.8461 18.6803 16.3679C19.2518 15.8897 19.7081 15.2551 20.007 14.5228C20.3059 13.7904 20.4377 12.9841 20.3901 12.1784C20.3426 11.3727 20.1173 10.5936 19.7352 9.9134C19.353 9.23315 18.8262 8.67369 18.2037 8.2868C17.5812 7.89991 16.883 7.6981 16.1738 7.70006Z" fill="black"/>
</svg>
