<svg width="20" height="21" viewBox="0 0 20 21" fill="none" xmlns="http://www.w3.org/2000/svg">
<circle cx="10" cy="10.5" r="10" fill="#F29DFF"/>
<path d="M12.1631 6.88379C13.0426 6.88379 13.7741 7.22786 14.3574 7.91602C14.9408 8.59961 15.2324 9.46094 15.2324 10.5C15.2324 11.6029 14.9476 12.4824 14.3779 13.1387C13.8083 13.7904 13.0791 14.1162 12.1904 14.1162C11.6253 14.1162 11.1149 13.9521 10.6592 13.624C10.1989 13.2959 9.83431 12.8333 9.56543 12.2363H9.52441C9.23275 12.7832 8.91374 13.1888 8.56738 13.4531C8.22103 13.7129 7.78809 13.8428 7.26855 13.8428C6.50293 13.8428 5.86491 13.5283 5.35449 12.8994C4.84408 12.2705 4.58887 11.4707 4.58887 10.5C4.58887 9.48372 4.83268 8.67253 5.32031 8.06641C5.80794 7.46029 6.42773 7.15723 7.17969 7.15723C7.63997 7.15723 8.09342 7.30078 8.54004 7.58789C8.9821 7.875 9.32845 8.29655 9.5791 8.85254H9.62012C9.89355 8.21452 10.2308 7.72689 10.6318 7.38965C11.0329 7.05241 11.5433 6.88379 12.1631 6.88379ZM7.19336 8.50391C6.70573 8.50391 6.31836 8.69303 6.03125 9.07129C5.73958 9.44499 5.59375 9.9235 5.59375 10.5068C5.59375 11.0811 5.73047 11.5527 6.00391 11.9219C6.27734 12.2865 6.64648 12.4688 7.11133 12.4688C7.43945 12.4688 7.72428 12.3776 7.96582 12.1953C8.2028 12.0085 8.41471 11.7282 8.60156 11.3545C8.68359 11.1859 8.79069 10.9443 8.92285 10.6299C9.05501 10.3109 9.16439 10.001 9.25098 9.7002C8.9502 9.24902 8.63802 8.93685 8.31445 8.76367C7.99089 8.59049 7.61719 8.50391 7.19336 8.50391ZM12.293 8.29199C11.8737 8.29199 11.5387 8.38542 11.2881 8.57227C11.0329 8.75456 10.7777 9.11458 10.5225 9.65234C10.4222 9.86654 10.3288 10.1012 10.2422 10.3564C10.1556 10.6117 10.0348 10.9512 9.87988 11.375C10.1032 11.7852 10.4062 12.1156 10.7891 12.3662C11.1719 12.6123 11.6048 12.7354 12.0879 12.7354C12.7031 12.7354 13.2113 12.5234 13.6123 12.0996C14.0133 11.6758 14.2139 11.138 14.2139 10.4863C14.2139 9.82096 14.043 9.29004 13.7012 8.89355C13.3594 8.49251 12.89 8.29199 12.293 8.29199Z" fill="white"/>
</svg>
