<svg width="44" height="44" viewBox="0 0 44 44" fill="none" xmlns="http://www.w3.org/2000/svg">
<circle cx="22.0088" cy="21.9593" r="21.2181" fill="#2762FF" fill-opacity="0.36"/>
<path fill-rule="evenodd" clip-rule="evenodd" d="M19.6514 14.2969H17.2938V16.6544H19.6514V14.2969Z" fill="#3D72FF"/>
<path fill-rule="evenodd" clip-rule="evenodd" d="M23.1877 17.833H20.8302V20.1906H23.1877V17.833Z" fill="#3D72FF"/>
<path fill-rule="evenodd" clip-rule="evenodd" d="M23.1877 21.3701H20.8302V27.264H23.1877V21.3701Z" fill="#3D72FF"/>
<path fill-rule="evenodd" clip-rule="evenodd" d="M26.7241 14.2969H24.3666V16.6544H26.7241V14.2969Z" fill="#3D72FF"/>
<path fill-rule="evenodd" clip-rule="evenodd" d="M19.6514 28.4424H17.2938V30.7999H19.6514V28.4424Z" fill="#3D72FF"/>
<path fill-rule="evenodd" clip-rule="evenodd" d="M16.115 17.833H13.7574V20.1906H16.115V17.833Z" fill="#3D72FF"/>
<path fill-rule="evenodd" clip-rule="evenodd" d="M29.0815 15.4756H26.724V17.8331H29.0815V15.4756Z" fill="#3D72FF"/>
<path fill-rule="evenodd" clip-rule="evenodd" d="M30.2603 17.833H27.9027V20.1906H30.2603V17.833Z" fill="#3D72FF"/>
<path fill-rule="evenodd" clip-rule="evenodd" d="M17.2937 27.2637H14.9361V29.6212H17.2937V27.2637Z" fill="#3D72FF"/>
<path fill-rule="evenodd" clip-rule="evenodd" d="M16.115 24.9062H13.7574V27.2638H16.115V24.9062Z" fill="#3D72FF"/>
<path fill-rule="evenodd" clip-rule="evenodd" d="M29.0815 27.2637H26.724V29.6212H29.0815V27.2637Z" fill="#3D72FF"/>
<path fill-rule="evenodd" clip-rule="evenodd" d="M26.7241 28.4424H24.3666V30.7999H26.7241V28.4424Z" fill="#3D72FF"/>
<path fill-rule="evenodd" clip-rule="evenodd" d="M30.2603 24.9062H27.9027V27.2638H30.2603V24.9062Z" fill="#3D72FF"/>
<path fill-rule="evenodd" clip-rule="evenodd" d="M14.9363 20.1904H12.5787V24.9056H14.9363V20.1904Z" fill="#3D72FF"/>
<path fill-rule="evenodd" clip-rule="evenodd" d="M31.4392 20.1904H29.0816V24.9056H31.4392V20.1904Z" fill="#3D72FF"/>
<path fill-rule="evenodd" clip-rule="evenodd" d="M24.3665 29.6211H19.6513V31.9787H24.3665V29.6211Z" fill="#3D72FF"/>
<path fill-rule="evenodd" clip-rule="evenodd" d="M24.3665 13.1182H19.6513V15.4757H24.3665V13.1182Z" fill="#3D72FF"/>
<path fill-rule="evenodd" clip-rule="evenodd" d="M17.2937 15.4756H14.9361V17.8331H17.2937V15.4756Z" fill="#3D72FF"/>
</svg>
