<svg width="40" height="40" viewBox="0 0 40 40" fill="none" xmlns="http://www.w3.org/2000/svg">
<circle cx="20" cy="20" r="20" fill="#2762FF" fill-opacity="0.36"/>
<path fill-rule="evenodd" clip-rule="evenodd" d="M17.7783 12.778H15.5561V15.0002H17.7783V12.778Z" fill="#3D72FF"/>
<path fill-rule="evenodd" clip-rule="evenodd" d="M21.1113 16.1113H18.8891V18.3335H21.1113V16.1113Z" fill="#3D72FF"/>
<path fill-rule="evenodd" clip-rule="evenodd" d="M21.1113 19.4442H18.8891V24.9997H21.1113V19.4442Z" fill="#3D72FF"/>
<path fill-rule="evenodd" clip-rule="evenodd" d="M24.4443 12.778H22.2221V15.0002H24.4443V12.778Z" fill="#3D72FF"/>
<path fill-rule="evenodd" clip-rule="evenodd" d="M17.7783 26.1113H15.5561V28.3335H17.7783V26.1113Z" fill="#3D72FF"/>
<path fill-rule="evenodd" clip-rule="evenodd" d="M14.4443 16.1113H12.2221V18.3335H14.4443V16.1113Z" fill="#3D72FF"/>
<path fill-rule="evenodd" clip-rule="evenodd" d="M26.667 13.8885H24.4448V16.1107H26.667V13.8885Z" fill="#3D72FF"/>
<path fill-rule="evenodd" clip-rule="evenodd" d="M27.7783 16.1113H25.5561V18.3335H27.7783V16.1113Z" fill="#3D72FF"/>
<path fill-rule="evenodd" clip-rule="evenodd" d="M15.5557 24.9998H13.3334V27.2221H15.5557V24.9998Z" fill="#3D72FF"/>
<path fill-rule="evenodd" clip-rule="evenodd" d="M14.4453 22.7772H12.2231V24.9994H14.4453V22.7772Z" fill="#3D72FF"/>
<path fill-rule="evenodd" clip-rule="evenodd" d="M26.667 24.9998H24.4448V27.2221H26.667V24.9998Z" fill="#3D72FF"/>
<path fill-rule="evenodd" clip-rule="evenodd" d="M24.4443 26.1113H22.2221V28.3335H24.4443V26.1113Z" fill="#3D72FF"/>
<path fill-rule="evenodd" clip-rule="evenodd" d="M27.7773 22.7772H25.5551V24.9994H27.7773V22.7772Z" fill="#3D72FF"/>
<path fill-rule="evenodd" clip-rule="evenodd" d="M13.334 18.3338H11.1118V22.7783H13.334V18.3338Z" fill="#3D72FF"/>
<path fill-rule="evenodd" clip-rule="evenodd" d="M28.8887 18.3338H26.6664V22.7783H28.8887V18.3338Z" fill="#3D72FF"/>
<path fill-rule="evenodd" clip-rule="evenodd" d="M22.2227 27.2224H17.7782V29.4446H22.2227V27.2224Z" fill="#3D72FF"/>
<path fill-rule="evenodd" clip-rule="evenodd" d="M22.2227 11.6668H17.7782V13.8891H22.2227V11.6668Z" fill="#3D72FF"/>
<path fill-rule="evenodd" clip-rule="evenodd" d="M15.5557 13.8885H13.3334V16.1107H15.5557V13.8885Z" fill="#3D72FF"/>
</svg>
