<svg width="43" height="44" viewBox="0 0 43 44" fill="none" xmlns="http://www.w3.org/2000/svg">
<circle cx="21.5088" cy="21.9534" r="21.2181" fill="#9D9D9D" fill-opacity="0.26"/>
<path d="M21.5088 2.55183C21.5088 1.54861 22.3236 0.727276 23.3231 0.813057C26.1872 1.05885 28.9781 1.88474 31.5235 3.24747C34.604 4.89666 37.2295 7.28109 39.1668 10.189C41.1042 13.0968 42.2934 16.4382 42.6289 19.9162C42.9061 22.7901 42.5933 25.6838 41.717 28.4215C41.4112 29.377 40.3394 29.8126 39.4136 29.4262C38.4878 29.0398 38.0603 27.9778 38.3492 27.017C39.0049 24.8363 39.2325 22.5431 39.0127 20.265C38.7347 17.3825 37.7491 14.6133 36.1434 12.2033C34.5378 9.79328 32.3618 7.81711 29.8088 6.45029C27.7911 5.37005 25.5872 4.69684 23.3221 4.46203C22.3243 4.35859 21.5088 3.55504 21.5088 2.55183Z" fill="#E8E8E8" fill-opacity="0.26"/>
</svg>
