<svg width="24" height="25" viewBox="0 0 24 25" fill="none" xmlns="http://www.w3.org/2000/svg">
<g clip-path="url(#clip0_5551_7416)">
<path d="M12 24.3153C18.5254 24.3153 23.8153 19.0254 23.8153 12.5C23.8153 5.9745 18.5254 0.68457 12 0.68457C5.4745 0.68457 0.18457 5.9745 0.18457 12.5C0.18457 19.0254 5.4745 24.3153 12 24.3153Z" fill="#B8E60F"/>
<path d="M7.60598 14.42C7.08906 14.863 6.53521 15.343 6.01829 15.86C5.94444 15.9338 5.83367 16.0446 5.75983 16.1184C5.53829 16.34 5.53829 16.6723 5.75983 16.8938L7.56906 18.703C7.67983 18.8138 7.82752 18.8507 7.97521 18.8507C8.1229 18.8507 8.2706 18.8138 8.34444 18.703C8.93521 18.1123 9.52598 17.5215 10.0429 16.8569L11.0767 17.8907L10.7075 21.5461C10.6706 21.7677 10.8183 21.9892 11.0029 22.1C11.0767 22.1369 11.1506 22.1369 11.2244 22.1369C11.3721 22.1369 11.5198 22.063 11.6306 21.9892L15.6183 18.0015C15.7291 17.8907 15.766 17.78 15.766 17.6692L16.0244 14.0877L16.6521 13.46C18.0183 12.0938 18.9044 10.2846 19.1998 8.36458L19.6429 5.41073C19.6798 5.22612 19.606 5.07843 19.4952 4.93073C19.3844 4.81997 19.1998 4.74612 19.0152 4.78304L16.0614 5.22612C14.1414 5.48458 12.3321 6.40766 10.966 7.77381L10.3383 8.4015L6.75675 8.65997C6.60906 8.65997 6.49829 8.73381 6.42444 8.80766L2.47367 12.8692C2.32598 13.0169 2.25213 13.2753 2.3629 13.4969C2.47367 13.6815 2.65829 13.7923 2.87983 13.7923H2.95367L6.57213 13.423L7.60598 14.42ZM7.97521 17.5584L6.94136 16.5246C7.53213 15.9338 8.15983 15.38 8.7506 14.9C9.7106 14.1246 10.6706 13.46 11.5937 12.9061C11.1875 13.6077 10.7075 14.3092 10.1906 15.0477C10.006 15.2692 9.82136 15.5277 9.63675 15.7492C9.0829 16.3769 8.56598 16.9677 7.97521 17.5584ZM14.6952 17.4107L11.9629 20.143L12.1844 18.0015L14.8429 15.343L14.6952 17.4107ZM11.8152 8.58612C12.9967 7.40458 14.5844 6.59227 16.2829 6.37073L18.4983 6.03843L18.166 8.25381C17.9075 9.91535 17.1321 11.503 15.9137 12.7215L11.6675 16.9307L10.7814 16.0446C10.8183 16.0077 10.8183 15.9707 10.8552 15.9338C10.9291 15.86 10.966 15.7861 11.0398 15.6753C11.1137 15.5646 11.1875 15.4538 11.2614 15.38C11.3352 15.3061 11.3721 15.1953 11.446 15.1215C11.5198 15.0107 11.5937 14.9 11.6675 14.8261C11.7414 14.7523 11.7783 14.6415 11.8521 14.5677C11.926 14.4569 11.9998 14.3461 12.0367 14.2723C12.0737 14.1984 12.1475 14.1246 12.1844 14.0138C12.2583 13.903 12.2952 13.7923 12.3691 13.6815C12.406 13.6077 12.4798 13.5338 12.5167 13.46C12.5906 13.3492 12.6275 13.2384 12.7014 13.1277C12.7383 13.0538 12.7752 12.98 12.8121 12.9061C12.886 12.7953 12.9229 12.6477 12.9967 12.5369C13.0337 12.5 13.0706 12.4261 13.0706 12.3892C13.1444 12.2046 13.2183 12.02 13.3291 11.8723C13.366 11.8353 13.366 11.7615 13.366 11.7246C13.366 11.5769 13.3291 11.3923 13.2183 11.2815C13.0706 11.1338 12.8121 11.06 12.5906 11.1707C12.5537 11.1707 12.5167 11.2077 12.4798 11.2077C12.3691 11.2446 12.2214 11.3184 12.1106 11.3923C12.0367 11.4292 11.9629 11.4661 11.8891 11.503C11.7783 11.54 11.6675 11.6138 11.5567 11.6507C11.4829 11.6877 11.4091 11.7246 11.3352 11.7615C11.2244 11.8353 11.1137 11.8723 11.0029 11.9461C10.9291 11.983 10.8552 12.02 10.7814 12.0938C10.6706 12.1677 10.5598 12.2046 10.4491 12.2784C10.3752 12.3153 10.3014 12.3892 10.2275 12.4261C10.1167 12.5 10.006 12.5738 9.89521 12.6477C9.82136 12.6846 9.74752 12.7584 9.67367 12.7953C9.5629 12.8692 9.45213 12.943 9.34136 13.0169C9.26752 13.0907 9.19367 13.1277 9.11983 13.2015C9.00906 13.2754 8.89829 13.3492 8.78752 13.46C8.71367 13.5338 8.63983 13.5707 8.56598 13.6446C8.52906 13.6815 8.49213 13.6815 8.45521 13.7184L7.56906 12.8323L11.8152 8.58612ZM7.08906 9.80458L9.15675 9.65689L6.53521 12.3153L4.39367 12.5369L7.08906 9.80458Z" fill="#292929"/>
<path d="M15.3967 11.023C15.8767 11.023 16.3937 10.8384 16.7629 10.4692C17.5014 9.73074 17.5014 8.51228 16.7629 7.77382C16.0244 7.03536 14.806 7.03536 14.0675 7.77382C13.3291 8.51228 13.3291 9.73074 14.0675 10.4692C14.3998 10.8384 14.9167 11.023 15.3967 11.023ZM14.8429 8.5492C14.9906 8.40151 15.2121 8.32766 15.3967 8.32766C15.5814 8.32766 15.8029 8.40151 15.9506 8.5492C16.246 8.84459 16.246 9.36151 15.9506 9.69382C15.6552 9.9892 15.1383 9.9892 14.806 9.69382C14.5106 9.36151 14.5106 8.84459 14.8429 8.5492Z" fill="black"/>
</g>
<defs>
<clipPath id="clip0_5551_7416">
<rect width="24" height="24" fill="white" transform="translate(0 0.5)"/>
</clipPath>
</defs>
</svg>
