<svg width="40" height="40" viewBox="0 0 40 40" fill="none" xmlns="http://www.w3.org/2000/svg">
<circle cx="20" cy="20" r="20" fill="#9D9D9D" fill-opacity="0.26"/>
<path d="M20 1.7122C20 0.766576 20.768 -0.00761173 21.7101 0.0732442C24.4098 0.304929 27.0405 1.0834 29.4398 2.3679C32.3434 3.92242 34.8182 6.16996 36.6443 8.91091C38.4704 11.6519 39.5914 14.8014 39.9076 18.0797C40.1689 20.7886 39.8741 23.5162 39.0481 26.0968C38.7598 26.9974 37.7496 27.408 36.8769 27.0437C36.0042 26.6795 35.6013 25.6785 35.8736 24.7729C36.4916 22.7174 36.7062 20.5558 36.499 18.4085C36.2369 15.6915 35.3079 13.0812 33.7945 10.8096C32.281 8.53794 30.23 6.67522 27.8235 5.38686C25.9216 4.36863 23.8442 3.73407 21.7092 3.51274C20.7686 3.41524 20 2.65781 20 1.7122Z" fill="#E8E8E8" fill-opacity="0.26"/>
</svg>
