<svg width="25" height="24" viewBox="0 0 25 24" fill="none" xmlns="http://www.w3.org/2000/svg">
<g clip-path="url(#clip0_3537_4715)">
<path d="M12.5002 1.99997C13.8267 2.00432 15.1392 2.27171 16.3617 2.78666C17.5842 3.30161 18.6924 4.05389 19.6222 4.99997H16.5002C16.235 4.99997 15.9806 5.10533 15.7931 5.29286C15.6056 5.4804 15.5002 5.73476 15.5002 5.99997C15.5002 6.26519 15.6056 6.51954 15.7931 6.70708C15.9806 6.89461 16.235 6.99997 16.5002 6.99997H20.6432C21.1356 6.99971 21.6078 6.80397 21.956 6.45578C22.3042 6.10758 22.4999 5.6354 22.5002 5.14297V0.999971C22.5002 0.734754 22.3948 0.4804 22.2073 0.292864C22.0198 0.105328 21.7654 -2.92115e-05 21.5002 -2.92115e-05C21.235 -2.92115e-05 20.9806 0.105328 20.7931 0.292864C20.6056 0.4804 20.5002 0.734754 20.5002 0.999971V3.07797C18.8474 1.58942 16.8128 0.590381 14.6243 0.19272C12.4358 -0.204941 10.1798 0.0144827 8.10899 0.826418C6.03815 1.63835 4.23422 3.01074 2.89921 4.7899C1.56421 6.56905 0.750844 8.68471 0.550203 10.9C0.537286 11.0392 0.553518 11.1797 0.597865 11.3123C0.642213 11.4449 0.713702 11.5669 0.807779 11.6704C0.901856 11.7738 1.01646 11.8566 1.14428 11.9133C1.2721 11.9701 1.41035 11.9996 1.5502 12C1.79479 12.0031 2.03174 11.9148 2.21466 11.7524C2.39759 11.59 2.51332 11.3652 2.5392 11.122C2.76182 8.63272 3.90718 6.31667 5.75028 4.62881C7.59339 2.94094 10.001 2.00326 12.5002 1.99997Z" fill="white"/>
<path d="M23.451 12C23.2064 11.9969 22.9695 12.0852 22.7865 12.2476C22.6036 12.41 22.4879 12.6348 22.462 12.878C22.2967 14.7813 21.5889 16.5971 20.4227 18.1102C19.2564 19.6233 17.6806 20.7701 15.8821 21.4146C14.0837 22.059 12.1382 22.1741 10.2764 21.7461C8.41451 21.3181 6.71449 20.3651 5.378 19H8.5C8.76522 19 9.01957 18.8947 9.20711 18.7071C9.39464 18.5196 9.5 18.2652 9.5 18C9.5 17.7348 9.39464 17.4804 9.20711 17.2929C9.01957 17.1054 8.76522 17 8.5 17H4.357C4.1131 16.9999 3.87156 17.0478 3.6462 17.1411C3.42084 17.2344 3.21607 17.3712 3.04361 17.5436C2.87115 17.7161 2.73436 17.9209 2.64109 18.1462C2.54781 18.3716 2.49987 18.6131 2.5 18.857V23C2.5 23.2652 2.60536 23.5196 2.79289 23.7071C2.98043 23.8947 3.23478 24 3.5 24C3.76522 24 4.01957 23.8947 4.20711 23.7071C4.39464 23.5196 4.5 23.2652 4.5 23V20.922C6.15283 22.4106 8.18741 23.4096 10.3759 23.8073C12.5644 24.2049 14.8204 23.9855 16.8912 23.1736C18.9621 22.3616 20.766 20.9892 22.101 19.2101C23.436 17.4309 24.2494 15.3153 24.45 13.1C24.4629 12.9608 24.4467 12.8203 24.4023 12.6877C24.358 12.5551 24.2865 12.4331 24.1924 12.3296C24.0983 12.2261 23.9837 12.1434 23.8559 12.0866C23.7281 12.0299 23.5909 12.0004 23.451 12Z" fill="white"/>
</g>
<defs>
<clipPath id="clip0_3537_4715">
<rect width="24" height="24" fill="white" transform="translate(0.5)"/>
</clipPath>
</defs>
</svg>
