<svg width="24" height="24" viewBox="0 0 24 24" fill="none" xmlns="http://www.w3.org/2000/svg">
<g clip-path="url(#clip0_2775_13604)">
<path d="M14.609 6.26074H9.3916V7.82594H14.609V6.26074Z" fill="white"/>
<path d="M14.609 16.1738H9.3916V17.739H14.609V16.1738Z" fill="white"/>
<path d="M17.739 9.39131H16.1738V14.6087H17.739V9.39131Z" fill="white"/>
<path d="M7.82594 9.39131H6.26074V14.6087H7.82594V9.39131Z" fill="white"/>
<path d="M9.39138 7.82611H7.82617V9.39131H9.39138V7.82611Z" fill="white"/>
<path d="M16.1736 7.82617H14.6084V9.39138H16.1736V7.82617Z" fill="white"/>
<path d="M9.39138 14.6087H7.82617V16.1739H9.39138V14.6087Z" fill="white"/>
<path d="M16.1736 14.6086H14.6084V16.1738H16.1736V14.6086Z" fill="white"/>
<path d="M8.86966 1.5652V3.13045H5.73926V4.69565H10.4349V1.5652H8.86966Z" fill="white"/>
<path d="M3.13039 3.13045H1.56519V5.73913H3.13039V3.13045Z" fill="white"/>
<path d="M5.73955 1.56519H3.13086V3.13039H5.73955V1.56519Z" fill="white"/>
<path d="M20.8694 1.5652H18.2607V3.1304H20.8694V1.5652Z" fill="white"/>
<path d="M22.4343 3.13037H20.8691V5.73906H22.4343V3.13037Z" fill="white"/>
<path d="M15.1304 3.13045V1.5652H13.5652V4.69565H18.2608V3.13045H15.1304Z" fill="white"/>
<path d="M13.5653 0H10.4348V1.5652H13.5653V0Z" fill="white"/>
<path d="M1.56519 13.5652V15.1305H3.13044V18.2609H4.69564V13.5652H1.56519Z" fill="white"/>
<path d="M3.13039 18.2609H1.56519V20.8696H3.13039V18.2609Z" fill="white"/>
<path d="M5.73955 20.8696H3.13086V22.4348H5.73955V20.8696Z" fill="white"/>
<path d="M13.5652 19.3044V22.4348H15.1304V20.8696H18.2608V19.3044H13.5652Z" fill="white"/>
<path d="M19.3047 13.5652V18.2608H20.8699V15.1304H22.4351V13.5652H19.3047Z" fill="white"/>
<path d="M22.4343 18.2607H20.8691V20.8694H22.4343V18.2607Z" fill="white"/>
<path d="M20.8694 20.8696H18.2607V22.4348H20.8694V20.8696Z" fill="white"/>
<path d="M5.73926 19.3044V20.8696H8.86966V22.4348H10.4349V19.3044H5.73926Z" fill="white"/>
<path d="M13.5653 22.4348H10.4348V24H13.5653V22.4348Z" fill="white"/>
<path d="M20.8699 8.86966V5.73926H19.3047V10.4349V10.435L22.4351 10.4349V8.86966H20.8699Z" fill="white"/>
<path d="M24.0007 10.4348H22.4355V13.5653H24.0007V10.4348Z" fill="white"/>
<path d="M1.5652 10.4348H0V13.5652H1.5652V10.4348Z" fill="white"/>
<path d="M3.13044 5.73914V8.86954H1.56519V10.4348H4.69564V5.73914H3.13044Z" fill="white"/>
</g>
<defs>
<clipPath id="clip0_2775_13604">
<rect width="24" height="24" fill="white"/>
</clipPath>
</defs>
</svg>
