<svg width="90" height="90" viewBox="0 0 90 90" fill="none" xmlns="http://www.w3.org/2000/svg">
<circle cx="44.9998" cy="45.0845" r="44.7937" fill="#33E6BF" fill-opacity="0.26"/>
<path fill-rule="evenodd" clip-rule="evenodd" d="M37.5342 50.0613H32.5571V55.0384H37.5342V50.0613Z" fill="#33E6BF"/>
<path fill-rule="evenodd" clip-rule="evenodd" d="M59.9307 30.1531H54.9536V35.1302H59.9307V30.1531Z" fill="#33E6BF"/>
<path fill-rule="evenodd" clip-rule="evenodd" d="M40.0225 55.0383H35.0454V60.0154H40.0225V55.0383Z" fill="#33E6BF"/>
<path fill-rule="evenodd" clip-rule="evenodd" d="M57.4424 35.1301H52.4653V40.1072H57.4424V35.1301Z" fill="#33E6BF"/>
<path fill-rule="evenodd" clip-rule="evenodd" d="M35.0459 45.0842H30.0688V50.0613H35.0459V45.0842Z" fill="#33E6BF"/>
<path fill-rule="evenodd" clip-rule="evenodd" d="M32.5576 40.1072H27.5805V45.0843H32.5576V40.1072Z" fill="#33E6BF"/>
<path fill-rule="evenodd" clip-rule="evenodd" d="M52.4658 45.0842H47.4887V50.0613H52.4658V45.0842Z" fill="#33E6BF"/>
<path fill-rule="evenodd" clip-rule="evenodd" d="M54.9541 40.1072H49.977V45.0843H54.9541V40.1072Z" fill="#33E6BF"/>
<path fill-rule="evenodd" clip-rule="evenodd" d="M62.4199 25.176H57.4428V30.1531H62.4199V25.176Z" fill="#33E6BF"/>
<path fill-rule="evenodd" clip-rule="evenodd" d="M45 60.0154H37.5344V64.9925H45V60.0154Z" fill="#33E6BF"/>
<path fill-rule="evenodd" clip-rule="evenodd" d="M49.9766 50.0613H44.9995V55.0384H49.9766V50.0613Z" fill="#33E6BF"/>
<path fill-rule="evenodd" clip-rule="evenodd" d="M47.4883 55.0383H42.5112V60.0154H47.4883V55.0383Z" fill="#33E6BF"/>
</svg>
