<svg width="40" height="40" viewBox="0 0 40 40" fill="none" xmlns="http://www.w3.org/2000/svg">
<rect x="1.5" y="1.5" width="37" height="37" rx="18.5" fill="black" stroke="#33E6BF" stroke-width="3"/>
<path fill-rule="evenodd" clip-rule="evenodd" d="M21.5956 12.5072C21.8678 12.1949 22.3416 12.1625 22.6538 12.4347L28.4934 17.5256C28.7291 17.7311 28.8126 18.0613 28.7028 18.3541C28.5931 18.6469 28.3132 18.8409 28.0005 18.8409L14.0005 18.8409C13.5863 18.8409 13.2505 18.5051 13.2505 18.0909C13.2505 17.6767 13.5863 17.3409 14.0005 17.3409H25.9989L21.6681 13.5653C21.3559 13.2931 21.3234 12.8194 21.5956 12.5072Z" fill="white"/>
<path fill-rule="evenodd" clip-rule="evenodd" d="M20.4054 27.493C20.1332 27.8052 19.6595 27.8376 19.3473 27.5654L13.5077 22.4745C13.272 22.269 13.1885 21.9389 13.2982 21.646C13.4079 21.3532 13.6878 21.1592 14.0005 21.1592L28.0005 21.1592C28.4147 21.1592 28.7505 21.495 28.7505 21.9092C28.7505 22.3234 28.4147 22.6592 28.0005 22.6592L16.0021 22.6592L20.333 26.4348C20.6452 26.707 20.6776 27.1807 20.4054 27.493Z" fill="white"/>
</svg>
