<svg width="16" height="16" viewBox="0 0 16 16" fill="none" xmlns="http://www.w3.org/2000/svg">
<path d="M13.9806 10.7187C13.8207 12.4987 12.534 13.6654 10.6673 13.6654H4.66732C2.82732 13.6654 1.33398 12.172 1.33398 10.332V5.66536C1.33398 3.85203 2.42732 2.58536 4.12732 2.37203C4.30065 2.34536 4.48065 2.33203 4.66732 2.33203H10.6673C10.8407 2.33203 11.0073 2.3387 11.1673 2.36536C12.7607 2.55203 13.8406 3.66536 13.9806 5.2787C14.0006 5.47203 13.8406 5.63203 13.6473 5.63203H12.614C11.974 5.63203 11.3807 5.8787 10.954 6.3187C10.4473 6.81203 10.194 7.50536 10.254 8.1987C10.3607 9.41203 11.4273 10.3654 12.694 10.3654H13.6473C13.8406 10.3654 14.0006 10.5254 13.9806 10.7187Z" fill="#A7A7A7"/>
<path d="M14.6675 7.31281V8.68615C14.6675 9.05281 14.3741 9.35281 14.0008 9.36615H12.6941C11.9741 9.36615 11.3141 8.83948 11.2541 8.11948C11.2141 7.69948 11.3741 7.30615 11.6541 7.03281C11.9008 6.77948 12.2408 6.63281 12.6141 6.63281H14.0008C14.3741 6.64615 14.6675 6.94615 14.6675 7.31281Z" fill="#A7A7A7"/>
</svg>
