<svg width="20" height="21" viewBox="0 0 20 21" fill="none" xmlns="http://www.w3.org/2000/svg">
<circle cx="10" cy="10.5757" r="10" fill="#2E79CC"/>
<g clip-path="url(#clip0_5764_34430)">
<path d="M13.8175 3.57568H6.18227C5.33854 3.5767 4.52967 3.91233 3.93309 4.50896C3.33651 5.10559 3.00094 5.9145 3 6.75822V14.3934C3.00094 15.2371 3.33652 16.046 3.9331 16.6426C4.52969 17.2392 5.33857 17.5747 6.18227 17.5757H13.8175C14.6612 17.5747 15.4701 17.2392 16.0667 16.6426C16.6634 16.046 16.999 15.2371 17 14.3934V6.75822C16.9991 5.91445 16.6635 5.1055 16.0668 4.50887C15.4702 3.91223 14.6612 3.57662 13.8175 3.57568ZM15.6875 14.3934C15.6869 14.8893 15.4897 15.3647 15.1391 15.7153C14.7884 16.0659 14.313 16.2632 13.8172 16.2637H6.18227C5.6865 16.263 5.21126 16.0657 4.86075 15.7151C4.51024 15.3645 4.31308 14.8892 4.3125 14.3934V6.75822C4.31308 6.26248 4.51025 5.78721 4.86076 5.43664C5.21128 5.08607 5.68653 4.88883 6.18227 4.88818H13.8175C14.3133 4.88869 14.7888 5.0859 15.1394 5.43655C15.4901 5.78719 15.6873 6.26261 15.6878 6.7585L15.6875 14.3934Z" fill="black"/>
<path d="M7.97211 13.5324H9.41312C9.7809 13.5324 10.0907 13.8332 10.0836 14.201C10.0802 14.3728 10.0096 14.5364 9.8869 14.6567C9.76419 14.7771 9.59919 14.8444 9.42734 14.8444H6.40504C6.31644 14.8444 6.22871 14.827 6.14685 14.7931C6.06499 14.7592 5.99061 14.7095 5.92797 14.6469C5.86532 14.5843 5.81563 14.5099 5.78174 14.428C5.74786 14.3462 5.73043 14.2584 5.73047 14.1698V11.1483C5.73047 10.9743 5.79961 10.8074 5.92268 10.6843C6.04575 10.5612 6.21267 10.4921 6.38672 10.4921C6.56077 10.4921 6.72769 10.5612 6.85076 10.6843C6.97383 10.8074 7.04297 10.9743 7.04297 11.1483V12.6041L12.0277 7.61936H10.5867C10.2189 7.61936 9.90914 7.31857 9.91625 6.95053C9.91962 6.77872 9.99024 6.61508 10.1129 6.49477C10.2357 6.37447 10.4007 6.3071 10.5725 6.30713H13.5948C13.7737 6.30713 13.9453 6.3782 14.0718 6.50471C14.1983 6.63121 14.2694 6.80279 14.2694 6.9817V10.0032C14.2694 10.1772 14.2002 10.3442 14.0772 10.4672C13.9541 10.5903 13.7872 10.6594 13.6131 10.6594C13.4391 10.6594 13.2722 10.5903 13.1491 10.4672C13.026 10.3442 12.9569 10.1772 12.9569 10.0032V8.5474L7.97211 13.5324Z" fill="black"/>
</g>
<defs>
<clipPath id="clip0_5764_34430">
<rect width="14" height="14" fill="white" transform="translate(3 3.57568)"/>
</clipPath>
</defs>
</svg>
