<svg width="25" height="25" viewBox="0 0 25 25" fill="none" xmlns="http://www.w3.org/2000/svg">
<g clip-path="url(#clip0_2045_29552)">
<path d="M23.0246 8.3454V5.21494H21.4594V3.64974H19.8942V2.08449H16.7638V0.519287H8.41595V2.08449H5.2855V3.64969H3.7203V5.2149H2.15505V8.34535H0.589844V16.6932H2.15505V19.8236H3.72025V21.3888H5.28545V22.954H8.41591V24.5193H16.7637V22.9541H19.8942V21.3889H21.4594V19.8237H23.0246V16.6932H24.5898V8.3454H23.0246ZM16.7637 9.38883H15.1985V7.82363H9.98116V11.4758H15.1985V13.041H16.7637V17.2149H15.1985V18.7801H13.1116V20.8671H11.5464V18.7801H9.98116V17.2149H8.41595V15.6497H9.98116V17.2149H15.1985V13.041H9.98116V11.4758H8.41595V7.82363H9.98116V6.25843H11.5464V4.17146H13.1116V6.25843H15.1985V7.82363H16.7637V9.38883Z" fill="black"/>
</g>
<defs>
<clipPath id="clip0_2045_29552">
<rect width="24" height="24" fill="white" transform="translate(0.589844 0.519287)"/>
</clipPath>
</defs>
</svg>
