<svg width="25" height="24" viewBox="0 0 25 24" fill="none" xmlns="http://www.w3.org/2000/svg">
<g clip-path="url(#clip0_2775_11856)">
<path d="M22.5241 7.82611V4.69566H20.9589V3.13045H19.3937V1.5652H16.2632V0H7.9154V1.5652H4.78495V3.13041H3.21975V4.69561H1.6545V7.82606H0.0892944V16.1739H1.6545V19.3043H3.2197V20.8695H4.7849V22.4347H7.91536V24H16.2632V22.4348H19.3936V20.8696H20.9588V19.3044H22.524V16.1739H24.0893V7.82611H22.5241ZM16.2632 8.86955H14.698V7.30434H9.48061V10.9565H14.698V12.5217H16.2632V16.6956H14.698V18.2608H12.611V20.3478H11.0458V18.2608H9.48061V16.6956H7.9154V15.1304H9.48061V16.6956H14.698V12.5217H9.48061V10.9565H7.9154V7.30434H9.48061V5.73914H11.0458V3.65217H12.611V5.73914H14.698V7.30434H16.2632V8.86955Z" fill="#FFD911"/>
</g>
<defs>
<clipPath id="clip0_2775_11856">
<rect width="24" height="24" fill="white" transform="translate(0.0892944)"/>
</clipPath>
</defs>
</svg>
