<svg width="26" height="14" viewBox="0 0 26 14" fill="none" xmlns="http://www.w3.org/2000/svg">
<path d="M4.09126 4.00097V0H6.09216V2.001H8.08824C8.08824 2.66975 8.09029 3.33225 8.09014 4.001H10.0892C10.0892 4.66869 10.0902 5.33329 10.0902 6.001C10.7575 6.001 11.4218 6.00201 12.0893 6.00194V8.00195H10.0903C10.0903 8.66997 10.0892 9.3349 10.0893 10.0029H8.09023C8.09023 10.6704 8.08817 11.3316 8.08833 11.999H6.09225V14H4.09126V10.0029H0.589294V4.001L4.09126 4.00097Z" fill="#FFF624"/>
<path d="M22.0873 9.99903V14L20.0864 14V11.999H18.0903C18.0903 11.3303 18.0883 10.6678 18.0884 9.999L16.0894 9.999C16.0894 9.33131 16.0883 8.66671 16.0884 7.999C15.421 7.999 14.7568 7.99799 14.0893 7.99806V5.99805L16.0883 5.99805C16.0883 5.33003 16.0894 4.6651 16.0893 3.99706H18.0884C18.0884 3.32962 18.0904 2.66843 18.0903 2.00098H20.0863V1.52588e-05L22.0873 1.52588e-05V3.99706H25.5893L25.5893 9.999L22.0873 9.99903Z" fill="#FFF624"/>
</svg>
