<svg width="20" height="21" viewBox="0 0 20 21" fill="none" xmlns="http://www.w3.org/2000/svg">
<circle cx="10" cy="10.5" r="10" fill="#F7931A"/>
<g clip-path="url(#clip0_5271_2867)">
<path d="M5.99959 3.39605V4.72869H4.66626V6.06201C5.1114 6.06196 5.55447 6.06268 5.99959 6.06268V7.39603H7.33293V8.72935H8.66626V10.0627L9.99958 10.0634V11.396H8.66624V12.7293H7.33293V14.0613H5.99959V15.3953H4.66626V16.7287C5.11135 16.7286 5.55449 16.7293 5.99959 16.7293V18.0627H8.66626L8.66694 16.7293C9.1123 16.7294 9.55554 16.7287 10.0009 16.7287V15.396H11.3329V14.0626H12.6663V12.7306H13.9996V11.3966H15.3329V10.0633C14.8879 10.064 14.4439 10.0626 13.9996 10.0626V8.7293H12.6663V7.39596H11.333V6.06262L10.0009 6.06195V4.72864H8.6669V3.39726L8.66623 3.396L5.99959 3.39605Z" fill="black"/>
</g>
<defs>
<clipPath id="clip0_5271_2867">
<rect width="16" height="16" fill="white" transform="translate(2 2.72876)"/>
</clipPath>
</defs>
</svg>
