<svg width="25" height="24" viewBox="0 0 25 24" fill="none" xmlns="http://www.w3.org/2000/svg">
<path d="M9.91072 5.00073V9.0017H1.90875V15.0037H9.91072V19.0007H11.9117V16.9997H13.9078C13.9076 16.3323 13.9097 15.6711 13.9097 15.0037H15.9087C15.9086 14.3356 15.9097 13.6707 15.9097 13.0027H17.9087V11.0027C17.2413 11.0027 16.577 11.0017 15.9096 11.0017C15.9097 10.334 15.9086 9.66942 15.9086 9.00173C15.2423 9.00173 14.576 9.00173 13.9096 9.00173C13.9098 8.33298 13.9077 7.67048 13.9077 7.00173H11.9116V5.00073H9.91072ZM15.9088 5.00073V7.0017H17.9088V5.00073H15.9088ZM17.9088 7.0017V9.0017H19.9097V7.0017H17.9088ZM19.9097 9.0017V11.0027H21.9098V9.0017H19.9097ZM21.9098 11.0027V13.0027H23.9107V11.0027H21.9098ZM21.9098 13.0027H19.9097V15.0037H21.9098V13.0027ZM19.9097 15.0037H17.9088V16.9997H19.9097V15.0037ZM17.9088 16.9997H15.9088V19.0007H17.9088V16.9997Z" fill="#FFD911"/>
</svg>
