<svg width="25" height="25" viewBox="0 0 25 25" fill="none" xmlns="http://www.w3.org/2000/svg">
<path d="M9.41115 5.52002V9.52099H1.40918V15.523H9.41115V19.52H11.4121V17.519H13.4082C13.4081 16.8516 13.4101 16.1904 13.4101 15.523H15.4091C15.4091 14.8549 15.4101 14.19 15.4101 13.522H17.4091V11.522C16.7417 11.522 16.0774 11.521 15.4101 11.521C15.4101 10.8533 15.409 10.1887 15.409 9.52102C14.7427 9.52102 14.0764 9.52102 13.41 9.52102C13.4102 8.85227 13.4081 8.18977 13.4081 7.52102H11.412V5.52002H9.41115ZM15.4092 5.52002V7.52099H17.4092V5.52002H15.4092ZM17.4092 7.52099V9.52099H19.4102V7.52099H17.4092ZM19.4102 9.52099V11.522H21.4102V9.52099H19.4102ZM21.4102 11.522V13.522H23.4111V11.522H21.4102ZM21.4102 13.522H19.4102V15.523H21.4102V13.522ZM19.4102 15.523H17.4092V17.519H19.4102V15.523ZM17.4092 17.519H15.4092V19.52H17.4092V17.519Z" fill="black"/>
</svg>
