<svg width="20" height="21" viewBox="0 0 20 21" fill="none" xmlns="http://www.w3.org/2000/svg">
<circle cx="10" cy="10.5" r="10" fill="#33E6BF"/>
<path d="M4.63906 9.076V6.72876H5.76596V7.90268H6.89015C6.89015 8.29501 6.89131 8.68368 6.89123 9.07601H8.01707C8.01707 9.46772 8.01769 9.85762 8.01764 10.2493C8.39351 10.2493 8.76762 10.2499 9.14352 10.2499V11.4232H8.01769C8.01769 11.8151 8.01708 12.2052 8.01712 12.5971H6.89127C6.89127 12.9887 6.89012 13.3766 6.8902 13.7682H5.76601V14.9421H4.63906V12.5971H2.66675V9.07601L4.63906 9.076Z" fill="black"/>
<path d="M14.7745 12.5949V14.9421H13.6476V13.7682L12.5234 13.7682C12.5234 13.3759 12.5223 12.9872 12.5223 12.5949L11.3965 12.5949C11.3965 12.2032 11.3959 11.8133 11.3959 11.4216C11.0201 11.4216 10.646 11.421 10.2701 11.421V10.2477L11.3959 10.2477C11.3959 9.85576 11.3965 9.46566 11.3965 9.07375H12.5223C12.5223 8.68218 12.5235 8.29428 12.5234 7.90272H13.6476V6.72881H14.7745V9.07375H16.7468V12.5949L14.7745 12.5949Z" fill="black"/>
</svg>
