<svg width="25" height="24" viewBox="0 0 25 24" fill="none" xmlns="http://www.w3.org/2000/svg">
<g clip-path="url(#clip0_2775_11850)">
<path d="M6.55817 12.7061H7.97004V14.1179H6.55817V12.7061Z" fill="#FFD911"/>
<path d="M5.14586 14.1179H6.55774V15.5293H5.14586V14.1179Z" fill="#FFD911"/>
<path d="M15.0289 21.1763H17.8522V22.5881H15.0289V21.1763Z" fill="#FFD911"/>
<path d="M2.32258 18.353H5.14586V19.7649H2.32258V18.353Z" fill="#FFD911"/>
<path d="M17.8521 19.7649H20.6759V21.1763H17.8521V19.7649Z" fill="#FFD911"/>
<path d="M24.9107 5.64703V18.353H23.4988V7.05891H20.6755V8.47078H17.8518V9.88219H15.0285V11.2941H13.6166V22.5881H15.0285V24H10.7929V22.5881H12.2048V11.2941H10.7929V9.88219H7.96961V8.47078H5.14586V7.05891H2.32258V18.353H0.910706V5.64703H2.32258V4.23516H5.14586V2.82375H7.96961V1.41188H10.7929V0H15.0285V1.41188H17.8518V2.82375H20.6755V4.23516H23.4988V5.64703H24.9107Z" fill="#FFD911"/>
<path d="M20.6755 18.353H23.4988V19.7649H20.6755V18.353Z" fill="#FFD911"/>
<path d="M5.14586 19.7649H7.96961V21.1763H5.14586V19.7649Z" fill="#FFD911"/>
<path d="M7.9693 21.1763H10.7926V22.5881H7.9693V21.1763Z" fill="#FFD911"/>
<path d="M16.4399 16.9412H17.8518V18.353H16.4399V16.9412Z" fill="#FFD911"/>
<path d="M19.2632 14.1179H20.6751V15.5293H19.2632V14.1179Z" fill="#FFD911"/>
<path d="M17.8521 15.5293H19.264V16.9412H17.8521V15.5293Z" fill="#FFD911"/>
<path d="M16.4399 12.7061H17.8518V14.1179H16.4399V12.7061Z" fill="#FFD911"/>
</g>
<defs>
<clipPath id="clip0_2775_11850">
<rect width="24" height="24" fill="white" transform="translate(0.910706)"/>
</clipPath>
</defs>
</svg>
