<svg width="25" height="25" viewBox="0 0 25 25" fill="none" xmlns="http://www.w3.org/2000/svg">
<g clip-path="url(#clip0_2045_29546)">
<path d="M6.05859 13.2253H7.47047V14.6372H6.05859V13.2253Z" fill="black"/>
<path d="M4.64648 14.6372H6.05836V16.0486H4.64648V14.6372Z" fill="black"/>
<path d="M14.5293 21.6956H17.3526V23.1074H14.5293V21.6956Z" fill="black"/>
<path d="M1.82324 18.8723H4.64652V20.2842H1.82324V18.8723Z" fill="black"/>
<path d="M17.3525 20.2842H20.1763V21.6956H17.3525V20.2842Z" fill="black"/>
<path d="M24.4111 6.16632V18.8723H22.9993V7.57819H20.176V8.99007H17.3522V10.4015H14.5289V11.8133H13.1171V23.1074H14.5289V24.5193H10.2933V23.1074H11.7052V11.8133H10.2933V10.4015H7.47004V8.99007H4.64629V7.57819H1.82301V18.8723H0.411133V6.16632H1.82301V4.75444H4.64629V3.34304H7.47004V1.93116H10.2933V0.519287H14.5289V1.93116H17.3522V3.34304H20.176V4.75444H22.9993V6.16632H24.4111Z" fill="black"/>
<path d="M20.1758 18.8723H22.9991V20.2842H20.1758V18.8723Z" fill="black"/>
<path d="M4.64648 20.2842H7.47023V21.6956H4.64648V20.2842Z" fill="black"/>
<path d="M7.46973 21.6956H10.293V23.1074H7.46973V21.6956Z" fill="black"/>
<path d="M15.9404 17.4604H17.3523V18.8723H15.9404V17.4604Z" fill="black"/>
<path d="M18.7637 14.6372H20.1755V16.0486H18.7637V14.6372Z" fill="black"/>
<path d="M17.3525 16.0486H18.7644V17.4605H17.3525V16.0486Z" fill="black"/>
<path d="M15.9404 13.2253H17.3523V14.6372H15.9404V13.2253Z" fill="black"/>
</g>
<defs>
<clipPath id="clip0_2045_29546">
<rect width="24" height="24" fill="white" transform="translate(0.411133 0.519287)"/>
</clipPath>
</defs>
</svg>
