<svg width="26" height="25" viewBox="0 0 26 25" fill="none" xmlns="http://www.w3.org/2000/svg">
<g clip-path="url(#clip0_2045_29549)">
<path d="M6.14219 0.521973C5.51893 0.521973 4.99931 1.04158 4.99931 1.66483C4.99931 2.28809 5.51893 2.80322 6.14219 2.80322C6.76544 2.80322 7.28503 2.28809 7.28503 1.66483C7.28503 1.04158 6.76544 0.521973 6.14219 0.521973ZM3.85647 2.80322C3.23321 2.80322 2.71247 3.32393 2.71247 3.94719C2.71247 4.57044 3.23321 5.09006 3.85647 5.09006C4.47972 5.09006 4.99931 4.57044 4.99931 3.94719C4.99931 3.32393 4.47972 2.80322 3.85647 2.80322ZM8.42899 2.80322C7.80574 2.80322 7.28503 3.32393 7.28503 3.94719C7.28503 4.57044 7.80574 5.09006 8.42899 5.09006C9.05225 5.09006 9.57187 4.57044 9.57187 3.94719C9.57187 3.32393 9.05225 2.80322 8.42899 2.80322ZM1.56963 5.09006C0.946378 5.09006 0.426758 5.60966 0.426758 6.23292C0.426758 6.85617 0.946378 7.37576 1.56963 7.37576C2.19289 7.37576 2.71247 6.85617 2.71247 6.23292C2.71247 5.60966 2.19289 5.09006 1.56963 5.09006ZM10.7147 5.09006C10.0915 5.09006 9.57187 5.60966 9.57187 6.23292C9.57187 6.85617 10.0915 7.37576 10.7147 7.37576C11.338 7.37576 11.8587 6.85617 11.8587 6.23292C11.8587 5.60966 11.338 5.09006 10.7147 5.09006ZM15.2828 5.09006C14.6596 5.09006 14.1399 5.60966 14.1399 6.23292C14.1399 6.85617 14.6596 7.37576 15.2828 7.37576H17.5696C18.1929 7.37576 18.7125 6.85617 18.7125 6.23292C18.7125 5.60966 18.1929 5.09006 17.5696 5.09006H15.2828ZM6.14219 7.37576C5.51893 7.37576 4.99931 7.8965 4.99931 8.51976V16.5209C4.99931 17.1441 5.51893 17.6648 6.14219 17.6648C6.76544 17.6648 7.28503 17.1441 7.28503 16.5209V8.51976C7.28503 7.8965 6.76544 7.37576 6.14219 7.37576ZM19.8553 7.37576C19.2321 7.37576 18.7125 7.8965 18.7125 8.51976V16.5209C18.7125 17.1441 19.2321 17.6648 19.8553 17.6648C20.4786 17.6648 20.9993 17.1441 20.9993 16.5209V8.51976C20.9993 7.8965 20.4786 7.37576 19.8553 7.37576ZM8.42899 17.6648C7.80574 17.6648 7.28503 18.1844 7.28503 18.8077C7.28503 19.4309 7.80574 19.9461 8.42899 19.9461H10.7147C11.338 19.9461 11.8587 19.4309 11.8587 18.8077C11.8587 18.1844 11.338 17.6648 10.7147 17.6648H8.42899ZM15.2828 17.6648C14.6596 17.6648 14.1399 18.1844 14.1399 18.8077C14.1399 19.4309 14.6596 19.9461 15.2828 19.9461C15.9061 19.9461 16.4268 19.4309 16.4268 18.8077C16.4268 18.1844 15.9061 17.6648 15.2828 17.6648ZM24.4279 17.6648C23.8046 17.6648 23.285 18.1844 23.285 18.8077C23.285 19.4309 23.8046 19.9461 24.4279 19.9461C25.0512 19.9461 25.5718 19.4309 25.5718 18.8077C25.5718 18.1844 25.0512 17.6648 24.4279 17.6648ZM17.5696 19.9461C16.9464 19.9461 16.4268 20.4668 16.4268 21.09C16.4268 21.7133 16.9464 22.2329 17.5696 22.2329C18.1929 22.2329 18.7125 21.7133 18.7125 21.09C18.7125 20.4668 18.1929 19.9461 17.5696 19.9461ZM22.1422 19.9461C21.5189 19.9461 20.9993 20.4668 20.9993 21.09C20.9993 21.7133 21.5189 22.2329 22.1422 22.2329C22.7654 22.2329 23.285 21.7133 23.285 21.09C23.285 20.4668 22.7654 19.9461 22.1422 19.9461ZM19.8553 22.2329C19.2321 22.2329 18.7125 22.7525 18.7125 23.3758C18.7125 23.999 19.2321 24.5186 19.8553 24.5186C20.4786 24.5186 20.9993 23.999 20.9993 23.3758C20.9993 22.7525 20.4786 22.2329 19.8553 22.2329Z" fill="black"/>
</g>
<defs>
<clipPath id="clip0_2045_29549">
<rect width="25.1786" height="24" fill="white" transform="translate(0.411133 0.519287)"/>
</clipPath>
</defs>
</svg>
