<svg width="27" height="24" viewBox="0 0 27 24" fill="none" xmlns="http://www.w3.org/2000/svg">
<g clip-path="url(#clip0_2775_11853)">
<path d="M6.64176 0.00268555C6.0185 0.00268555 5.49888 0.522289 5.49888 1.14554C5.49888 1.7688 6.0185 2.28394 6.64176 2.28394C7.26501 2.28394 7.7846 1.7688 7.7846 1.14554C7.7846 0.522289 7.26501 0.00268555 6.64176 0.00268555ZM4.35604 2.28394C3.73279 2.28394 3.21205 2.80464 3.21205 3.4279C3.21205 4.05115 3.73279 4.57077 4.35604 4.57077C4.9793 4.57077 5.49888 4.05115 5.49888 3.4279C5.49888 2.80464 4.9793 2.28394 4.35604 2.28394ZM8.92856 2.28394C8.30531 2.28394 7.7846 2.80464 7.7846 3.4279C7.7846 4.05115 8.30531 4.57077 8.92856 4.57077C9.55182 4.57077 10.0714 4.05115 10.0714 3.4279C10.0714 2.80464 9.55182 2.28394 8.92856 2.28394ZM2.06921 4.57077C1.44595 4.57077 0.926331 5.09038 0.926331 5.71363C0.926331 6.33689 1.44595 6.85647 2.06921 6.85647C2.69246 6.85647 3.21205 6.33689 3.21205 5.71363C3.21205 5.09038 2.69246 4.57077 2.06921 4.57077ZM11.2143 4.57077C10.591 4.57077 10.0714 5.09038 10.0714 5.71363C10.0714 6.33689 10.591 6.85647 11.2143 6.85647C11.8376 6.85647 12.3583 6.33689 12.3583 5.71363C12.3583 5.09038 11.8376 4.57077 11.2143 4.57077ZM15.7824 4.57077C15.1591 4.57077 14.6395 5.09038 14.6395 5.71363C14.6395 6.33689 15.1591 6.85647 15.7824 6.85647H18.0692C18.6924 6.85647 19.2121 6.33689 19.2121 5.71363C19.2121 5.09038 18.6924 4.57077 18.0692 4.57077H15.7824ZM6.64176 6.85647C6.0185 6.85647 5.49888 7.37721 5.49888 8.00047V16.0016C5.49888 16.6248 6.0185 17.1455 6.64176 17.1455C7.26501 17.1455 7.7846 16.6248 7.7846 16.0016V8.00047C7.7846 7.37721 7.26501 6.85647 6.64176 6.85647ZM20.3549 6.85647C19.7316 6.85647 19.2121 7.37721 19.2121 8.00047V16.0016C19.2121 16.6248 19.7316 17.1455 20.3549 17.1455C20.9782 17.1455 21.4989 16.6248 21.4989 16.0016V8.00047C21.4989 7.37721 20.9782 6.85647 20.3549 6.85647ZM8.92856 17.1455C8.30531 17.1455 7.7846 17.6651 7.7846 18.2884C7.7846 18.9117 8.30531 19.4268 8.92856 19.4268H11.2143C11.8376 19.4268 12.3583 18.9117 12.3583 18.2884C12.3583 17.6651 11.8376 17.1455 11.2143 17.1455H8.92856ZM15.7824 17.1455C15.1591 17.1455 14.6395 17.6651 14.6395 18.2884C14.6395 18.9117 15.1591 19.4268 15.7824 19.4268C16.4056 19.4268 16.9263 18.9117 16.9263 18.2884C16.9263 17.6651 16.4056 17.1455 15.7824 17.1455ZM24.9275 17.1455C24.3042 17.1455 23.7846 17.6651 23.7846 18.2884C23.7846 18.9117 24.3042 19.4268 24.9275 19.4268C25.5507 19.4268 26.0714 18.9117 26.0714 18.2884C26.0714 17.6651 25.5507 17.1455 24.9275 17.1455ZM18.0692 19.4268C17.4459 19.4268 16.9263 19.9475 16.9263 20.5708C16.9263 21.194 17.4459 21.7136 18.0692 21.7136C18.6924 21.7136 19.2121 21.194 19.2121 20.5708C19.2121 19.9475 18.6924 19.4268 18.0692 19.4268ZM22.6417 19.4268C22.0185 19.4268 21.4989 19.9475 21.4989 20.5708C21.4989 21.194 22.0185 21.7136 22.6417 21.7136C23.265 21.7136 23.7846 21.194 23.7846 20.5708C23.7846 19.9475 23.265 19.4268 22.6417 19.4268ZM20.3549 21.7136C19.7316 21.7136 19.2121 22.2332 19.2121 22.8565C19.2121 23.4798 19.7316 23.9993 20.3549 23.9993C20.9782 23.9993 21.4989 23.4798 21.4989 22.8565C21.4989 22.2332 20.9782 21.7136 20.3549 21.7136Z" fill="#FFD911"/>
</g>
<defs>
<clipPath id="clip0_2775_11853">
<rect width="25.1786" height="24" fill="white" transform="translate(0.910706)"/>
</clipPath>
</defs>
</svg>
