<svg width="20" height="21" viewBox="0 0 20 21" fill="none" xmlns="http://www.w3.org/2000/svg">
<circle cx="10" cy="10.5" r="10" fill="#2E79CC"/>
<path d="M7.37578 12.8615L7.37579 15.3154L6.19766 15.3154L6.19766 14.0882L5.02236 14.0882C5.02236 13.678 5.02116 13.2717 5.02124 12.8615L3.84422 12.8615C3.84422 12.452 3.84358 12.0443 3.84363 11.6348C3.45068 11.6348 3.05956 11.6342 2.66657 11.6342L2.66657 10.4076L3.84358 10.4076C3.84358 9.99785 3.84421 9.59002 3.84417 9.1803L5.02119 9.1803C5.02119 8.77093 5.0224 8.3654 5.02231 7.95603L6.19761 7.95603L6.19761 6.72877L7.37578 6.72877L7.37578 9.1803L9.43774 9.1803L9.43774 12.8615L7.37578 12.8615Z" fill="black"/>
<path d="M12.6774 9.18269L12.6774 6.72876L13.8556 6.72876L13.8556 7.95604L15.0309 7.95604C15.0309 8.3662 15.0321 8.77254 15.032 9.18271L16.209 9.1827C16.209 9.59222 16.2096 9.99984 16.2096 10.4094C16.6025 10.4094 16.9937 10.41 17.3867 10.4099L17.3867 11.6366L16.2096 11.6366C16.2096 12.0463 16.209 12.4542 16.2091 12.8639L15.032 12.8639C15.032 13.2733 15.0308 13.6788 15.0309 14.0882L13.8556 14.0882L13.8556 15.3154L12.6774 15.3154L12.6774 12.8639L10.6155 12.8639L10.6155 9.18271L12.6774 9.18269Z" fill="black"/>
</svg>
