<svg width="40" height="40" viewBox="0 0 40 40" fill="none" xmlns="http://www.w3.org/2000/svg">
<path d="M33.8618 7.28324C31.3123 6.11348 28.5784 5.2516 25.7199 4.75793C25.6679 4.7484 25.6158 4.77223 25.589 4.81981C25.2374 5.4452 24.8479 6.26098 24.5752 6.90223C21.5008 6.44192 18.442 6.44192 15.4306 6.90223C15.1578 6.24676 14.7542 5.4452 14.401 4.81981C14.3742 4.77379 14.3222 4.74996 14.2701 4.75793C11.4133 5.24996 8.67936 6.11184 6.12826 7.28324C6.10615 7.29277 6.08725 7.30863 6.07467 7.32926C0.889043 15.0765 -0.531582 22.6334 0.165293 30.0965C0.168418 30.133 0.188965 30.1679 0.217324 30.1901C3.63865 32.7027 6.95287 34.228 10.2054 35.2391C10.2575 35.255 10.3126 35.236 10.3458 35.1931C11.1151 34.1424 11.801 33.0345 12.389 31.8694C12.4237 31.8012 12.3906 31.7203 12.3197 31.6932C11.2318 31.2806 10.1959 30.7774 9.19943 30.2061C9.1206 30.16 9.11428 30.0473 9.18686 29.9933C9.39654 29.8362 9.60631 29.6727 9.80654 29.5076C9.84279 29.4775 9.89326 29.4711 9.93584 29.4901C16.4821 32.4789 23.5692 32.4789 30.0382 29.4901C30.0808 29.4695 30.1312 29.4759 30.169 29.506C30.3694 29.6711 30.579 29.8361 30.7903 29.9932C30.8628 30.0472 30.858 30.16 30.7793 30.206C29.7828 30.7885 28.7469 31.2805 27.6575 31.6916C27.5865 31.7186 27.555 31.8011 27.5897 31.8693C28.1904 33.0328 28.8763 34.1407 29.6315 35.1914C29.663 35.2359 29.7197 35.255 29.7718 35.239C33.0401 34.228 36.3544 32.7026 39.7757 30.19C39.8057 30.1679 39.8246 30.1345 39.8277 30.098C40.6618 21.4698 38.4308 13.9749 33.9137 7.33074C33.9027 7.30863 33.8838 7.29277 33.8618 7.28324ZM13.3668 25.5522C11.3959 25.5522 9.77193 23.7429 9.77193 21.5207C9.77193 19.2985 11.3644 17.4891 13.3668 17.4891C15.3848 17.4891 16.9931 19.3144 16.9615 21.5207C16.9615 23.7429 15.369 25.5522 13.3668 25.5522ZM26.6579 25.5522C24.6872 25.5522 23.0632 23.7429 23.0632 21.5207C23.0632 19.2985 24.6556 17.4891 26.6579 17.4891C28.6761 17.4891 30.2843 19.3144 30.2528 21.5207C30.2528 23.7429 28.6762 25.5522 26.6579 25.5522Z" fill="white"/>
</svg>
