<svg width="50" height="50" viewBox="0 0 50 50" fill="none" xmlns="http://www.w3.org/2000/svg">
<g clip-path="url(#clip0_3111_552)">
<path d="M50 0H0V50H50V0Z" fill="white" fill-opacity="0.01"/>
<path fill-rule="evenodd" clip-rule="evenodd" d="M25 4.16667C13.4941 4.16667 4.16667 13.4941 4.16667 25C4.16667 36.5059 13.4941 45.8333 25 45.8333C36.5059 45.8333 45.8333 36.5059 45.8333 25C45.8333 13.4941 36.5059 4.16667 25 4.16667ZM0 25C0 11.1929 11.1929 0 25 0C38.8071 0 50 11.1929 50 25C50 38.8071 38.8071 50 25 50C11.1929 50 0 38.8071 0 25Z" fill="white"/>
<path fill-rule="evenodd" clip-rule="evenodd" d="M19.9818 47.3663C19.7804 47.1062 19.7804 44.7889 19.9818 40.4147C17.8237 40.4892 16.4601 40.3394 15.8912 39.9653C15.0379 39.4042 14.1835 37.6737 13.4255 36.4541C12.6674 35.2345 10.9849 35.0417 10.3056 34.7691C9.62617 34.4964 9.45561 33.385 12.1776 34.2255C14.8997 35.0661 15.0324 37.3549 15.8912 37.8901C16.7499 38.4253 18.8029 38.1912 19.7335 37.7624C20.664 37.3337 20.5956 35.7373 20.7615 35.1049C20.9713 34.5146 20.2318 34.3837 20.2156 34.3789C19.3071 34.3789 14.5346 33.341 13.2237 28.7194C11.9129 24.0979 13.6015 21.0772 14.5023 19.7787C15.1029 18.9129 15.0497 17.0679 14.343 14.2435C16.9092 13.9155 18.8895 14.7232 20.2841 16.6668C20.2855 16.6779 22.1123 15.5804 24.9995 15.5804C27.8868 15.5804 28.9111 16.4744 29.7016 16.6668C30.492 16.8592 31.1243 13.2647 36.0064 14.2435C34.9871 16.2468 34.1335 18.7501 34.785 19.7787C35.4365 20.8072 37.9935 24.0778 36.4229 28.7194C35.3757 31.8139 33.3173 33.7003 30.2476 34.3789C29.8956 34.4912 29.7196 34.6724 29.7196 34.9224C29.7196 35.2975 30.1955 35.3384 30.8811 37.0955C31.3381 38.2669 31.3711 41.6125 30.98 47.1323C29.9895 47.3845 29.2189 47.5538 28.6682 47.6403C27.6917 47.7938 26.6315 47.8798 25.5897 47.913C24.5481 47.9463 24.1863 47.9425 22.7462 47.8085C21.7861 47.7191 20.8646 47.5717 19.9818 47.3663Z" fill="white"/>
</g>
<defs>
</defs>
</svg>
