<svg width="42" height="42" viewBox="0 0 42 42" fill="none" xmlns="http://www.w3.org/2000/svg">
<path d="M21 3.93262C16.8446 3.93279 12.8249 5.41157 9.65999 8.10435C6.49512 10.7971 4.39167 14.5282 3.72603 18.63C3.06039 22.7317 3.87598 26.9365 6.02687 30.4919C8.17776 34.0474 11.5236 36.7215 15.4657 38.0357C16.3407 38.1889 16.6688 37.6639 16.6688 37.2045C16.6688 36.7889 16.6469 35.4107 16.6469 33.9451C12.25 34.7545 11.1125 32.8733 10.7625 31.8889C10.3742 30.9315 9.75853 30.0831 8.9688 29.417C8.3563 29.0889 7.4813 28.2795 8.94691 28.2577C9.50653 28.3184 10.0433 28.5131 10.5117 28.8253C10.98 29.1376 11.3662 29.5581 11.6375 30.0513C11.8769 30.4813 12.1987 30.8598 12.5846 31.1652C12.9705 31.4706 13.4129 31.6968 13.8864 31.8309C14.3598 31.9651 14.8551 32.0044 15.3438 31.9468C15.8326 31.8892 16.3051 31.7357 16.7344 31.4951C16.8101 30.6054 17.2066 29.7736 17.85 29.1545C13.9563 28.717 9.88755 27.2076 9.88755 20.5139C9.86296 18.7747 10.5047 17.0919 11.6813 15.8108C11.1463 14.2992 11.2089 12.6403 11.8563 11.1733C11.8563 11.1733 13.3219 10.7139 16.6688 12.967C19.5323 12.1795 22.5553 12.1795 25.4188 12.967C28.7656 10.692 30.2313 11.1733 30.2313 11.1733C30.8788 12.6403 30.9414 14.2992 30.4063 15.8108C31.5864 17.0897 32.2287 18.774 32.2 20.5139C32.2 27.2295 28.1094 28.717 24.2157 29.1545C24.6333 29.5778 24.955 30.0861 25.1588 30.6447C25.3626 31.2033 25.4438 31.7993 25.3969 32.392C25.3969 34.7327 25.375 36.6139 25.375 37.2045C25.375 37.6639 25.7032 38.2108 26.5782 38.0358C30.5133 36.7108 33.8495 34.0305 35.9913 30.4732C38.133 26.9159 38.9408 22.7133 38.2706 18.6155C37.6003 14.5177 35.4956 10.7915 32.3321 8.10201C29.1686 5.41251 25.1523 3.93478 21 3.93262Z" fill="white"/>
</svg>
