<svg width="50" height="50" viewBox="0 0 50 50" fill="none" xmlns="http://www.w3.org/2000/svg">
<path fill-rule="evenodd" clip-rule="evenodd" d="M48.1491 9.36373C48.8114 6.13504 45.6401 3.45194 42.5658 4.63979L4.87992 19.2002C1.44662 20.5267 1.29364 25.3277 4.6355 26.87L12.8424 30.6579L16.7466 44.3223C16.9494 45.0321 17.5126 45.5817 18.2272 45.7669C18.9417 45.9519 19.7009 45.7452 20.2229 45.2231L26.2368 39.2092L34.6612 45.5275C37.1066 47.3615 40.6287 46.0256 41.2428 43.0313L48.1491 9.36373ZM6.38159 23.0869L44.0674 8.52646L37.1612 42.1942L27.2914 34.7917C26.462 34.1696 25.3014 34.2521 24.5683 34.9852L21.9924 37.561L22.7664 33.3046L37.9312 18.1399C38.6693 17.4018 38.7472 16.2316 38.1137 15.4021C37.4801 14.5727 36.3308 14.34 35.4245 14.8579L14.4815 26.8252L6.38159 23.0869ZM17.035 30.165L18.2983 34.5867L18.7833 31.919C18.8591 31.5021 19.0603 31.1181 19.3599 30.8185L23.9847 26.194L17.035 30.165Z" fill="white"/>
</svg>
