<svg width="1149" height="268" viewBox="0 0 1149 268" fill="none" xmlns="http://www.w3.org/2000/svg">
<path d="M2 266.326H1.24243V265.568L1.24243 212.792L1.24243 212.034H2H54.0191L54.0191 160.045L54.0191 107.298V106.54H54.7767H106.766L106.766 54.5213V53.7638H107.523L159.513 53.7638V1.7746V1.01703H160.27H213.047L265.794 1.01703H318.57H371.317H424.094H424.852V1.7746L424.852 53.7638H476.841H477.598V54.5213V106.54H529.617H530.375V107.298V160.045V212.034H566.636H582.364L618.655 212.034V160.045V107.298V106.54H619.413H671.402V54.5213V53.7638H672.159H724.178V1.7746V1.01703H724.936H777.683H830.46H883.206H935.953H988.73H989.487V1.7746V53.7638H1041.48H1042.23V54.5213V106.54L1094.25 106.54H1095.01V107.298V160.045V212.034H1147H1147.76V212.792V265.568V266.326H1147H1094.25H1041.48H988.73H935.953H883.206H830.46H777.683H724.936L672.159 266.326H619.413H582.364H566.636H529.617H476.841H424.094H371.317H318.57H265.794L213.047 266.326H160.27H107.523H54.7767H2Z" fill="black" stroke="#33E6BF" stroke-width="1.51514"/>
<path d="M109.018 161.544V211.291H158.764V161.544H109.018Z" stroke="#33E6BF" stroke-width="3"/>
<path d="M320.074 56.0482V105.795H369.821V56.0482L320.074 56.0482Z" stroke="#33E6BF" stroke-width="3"/>
<path d="M267.297 108.794V158.541H317.044V108.794H267.297Z" stroke="#33E6BF" stroke-width="3"/>
<path d="M161.76 108.794V158.541H211.507V108.794H161.76Z" stroke="#33E6BF" stroke-width="3"/>
<path d="M214.537 56.0482V105.795H264.284V56.0482L214.537 56.0482Z" stroke="#33E6BF" stroke-width="3"/>
<path d="M372.816 108.794V158.541H422.563V108.794H372.816Z" stroke="#33E6BF" stroke-width="3"/>
<path d="M425.594 161.544V211.291H475.341V161.544H425.594Z" stroke="#33E6BF" stroke-width="3"/>
<path d="M990.24 161.544V211.291H1039.99V161.544H990.24Z" stroke="#33E6BF" stroke-width="3"/>
<path d="M779.184 56.0482V105.795H828.93V56.0482L779.184 56.0482Z" stroke="#33E6BF" stroke-width="3"/>
<path d="M831.961 108.794V158.541H881.708V108.794H831.961Z" stroke="#33E6BF" stroke-width="3"/>
<path d="M937.463 108.794V158.541H987.21V108.794H937.463Z" stroke="#33E6BF" stroke-width="3"/>
<path d="M884.703 56.0482V105.795H934.45V56.0482L884.703 56.0482Z" stroke="#33E6BF" stroke-width="3"/>
<path d="M726.441 108.794V158.541H776.188V108.794H726.441Z" stroke="#33E6BF" stroke-width="3"/>
<path d="M673.646 161.544V211.291H723.393V161.544H673.646Z" stroke="#33E6BF" stroke-width="3"/>
</svg>
