<svg width="101" height="50" viewBox="0 0 101 50" fill="none" xmlns="http://www.w3.org/2000/svg">
<path d="M95.8933 0H91.284H86.6773H82.068H77.4612H72.8545H68.2452H63.6385H59.0292H54.4225H51.1868H49.8132H46.5801H41.9708H37.3641H32.7548H28.1481H23.5388H18.932H14.3227H9.71602H5.10932H0.5V4.60932H5.10932V9.21602V13.8227H9.71602V18.4321H14.3227V23.0388H18.932H23.5388H28.1481H32.7548H37.3641V18.4321H41.9708V13.8227H46.5801V9.21602V4.60932H49.8132H51.1868H54.4225V9.21602V13.8227H59.0292V18.4321H63.6385V23.0388H68.2452H72.8545H77.4612H82.068H86.6773V18.4321H91.284V13.8227H95.8933V9.21602V4.60932H100.5V0H95.8933Z" fill="black"/>
<path d="M14.3225 4.60938H9.71582V9.21608H14.3225V4.60938Z" fill="white"/>
<path d="M32.7551 13.8228H28.1484V18.4295H32.7551V13.8228Z" fill="white"/>
<path d="M28.1458 9.21606H23.5391V13.8228H28.1458V9.21606Z" fill="white"/>
<path d="M18.929 9.21606H14.3223V13.8228H18.929V9.21606Z" fill="white"/>
<path d="M23.5383 13.8228H18.9316V18.4295H23.5383V13.8228Z" fill="white"/>
<path d="M37.3616 9.21606H32.7549V13.8228H37.3616V9.21606Z" fill="white"/>
<path d="M41.971 4.60938H37.3643V9.21608H41.971V4.60938Z" fill="white"/>
<path d="M91.2844 4.60938H86.6777V9.21608H91.2844V4.60938Z" fill="white"/>
<path d="M72.8518 13.8228H68.2451V18.4295H72.8518V13.8228Z" fill="white"/>
<path d="M77.4612 9.21606H72.8545V13.8228H77.4612V9.21606Z" fill="white"/>
<path d="M86.6751 9.21606H82.0684V13.8228H86.6751V9.21606Z" fill="white"/>
<path d="M82.0676 13.8228H77.4609V18.4295H82.0676V13.8228Z" fill="white"/>
<path d="M68.2454 9.21606H63.6387V13.8228H68.2454V9.21606Z" fill="white"/>
<path d="M63.636 4.60938H59.0293V9.21608H63.636V4.60938Z" fill="white"/>
<path d="M5.97656 33.3904H7.92969V44.1326H9.88281V39.2498H11.8359V44.1326H13.7891V33.3904H15.7422V45.1091H14.7656V46.0857H13.7891V47.0623H11.8359V46.0857H9.88281V47.0623H7.92969V46.0857H6.95312V45.1091H5.97656V33.3904ZM27.0609 33.3904V35.3435H19.2484V39.2498H25.1078V41.2029H19.2484V45.1091H27.0609V47.0623H17.2953V33.3904H27.0609ZM28.6141 33.3904H30.5672V44.1326H32.5203V39.2498H34.4734V44.1326H36.4266V33.3904H38.3797V45.1091H37.4031V46.0857H36.4266V47.0623H34.4734V46.0857H32.5203V47.0623H30.5672V46.0857H29.5906V45.1091H28.6141V33.3904ZM49.6984 33.3904V35.3435H41.8859V39.2498H47.7453V41.2029H41.8859V45.1091H49.6984V47.0623H39.9328V33.3904H49.6984ZM60.0406 35.3435H61.0172V37.2966H59.0641V36.3201H58.0875V35.3435H54.1813V36.3201H53.2047V38.2732H54.1813V39.2498H59.0641V40.2263H60.0406V41.2029H61.0172V45.1091H60.0406V46.0857H59.0641V47.0623H53.2047V46.0857H52.2281V45.1091H51.2516V43.156H53.2047V44.1326H54.1813V45.1091H58.0875V44.1326H59.0641V42.1794H58.0875V41.2029H53.2047V40.2263H52.2281V39.2498H51.2516V35.3435H52.2281V34.3669H53.2047V33.3904H59.0641V34.3669H60.0406V35.3435ZM62.5703 33.3904H64.5234V44.1326H66.4766V39.2498H68.4297V44.1326H70.3828V33.3904H72.3359V45.1091H71.3594V46.0857H70.3828V47.0623H68.4297V46.0857H66.4766V47.0623H64.5234V46.0857H63.5469V45.1091H62.5703V33.3904ZM75.8422 41.2029H81.7016V38.2732H80.725V37.2966H79.7484V36.3201H77.7953V37.2966H76.8187V38.2732H75.8422V41.2029ZM75.8422 47.0623H73.8891V37.2966H74.8656V36.3201H75.8422V35.3435H76.8187V34.3669H77.7953V33.3904H79.7484V34.3669H80.725V35.3435H81.7016V36.3201H82.6781V37.2966H83.6547V47.0623H81.7016V43.156H75.8422V47.0623ZM87.1609 35.3435V39.2498H92.0437V38.2732H93.0203V36.3201H92.0437V35.3435H87.1609ZM87.1609 41.2029V47.0623H85.2078V33.3904H93.0203V34.3669H93.9969V35.3435H94.9734V39.2498H93.9969V40.2263H93.0203V41.2029H87.1609Z" fill="black"/>
</svg>
