<svg width="129" height="56" viewBox="0 0 129 56" fill="none" xmlns="http://www.w3.org/2000/svg">
<path d="M2 31.5559H1.24243V30.7983L1.24243 25.0367L1.24243 24.2791H2H7.00408L7.00408 19.2783V13.5199V12.7623H7.76165H12.7625L12.7625 7.75827V7.0007H13.52L18.5208 7.0007V1.99989V1.24232H19.2784H25.0401H30.7984H36.5601H42.3185L48.0801 1.24232H48.8377L48.8377 1.99989V7.0007H53.8385H54.5961V7.75827V12.7623H59.6002H60.3577V13.5199V19.2783V24.2791H63.6415H65.3585H68.6455V19.2783V13.5199V12.7623H69.4031H74.4039V7.75827V7.0007L75.1615 7.0007H80.1656V1.99989V1.24232H80.9231H86.6815H92.4432H98.2016L103.96 1.24232H109.722H110.479V1.99989V7.0007H115.48H116.238V7.75827V12.7623H121.242H121.999V13.5199V19.2783V24.2791H127H127.758V25.0367V30.7983V31.5559H127H121.242H115.48H109.722H103.96L98.2016 31.5559H92.4432H86.6815H80.9231H75.1615L69.4031 31.5559H65.3585H63.6415H59.6002H53.8385H48.0801L42.3185 31.5559H36.5601H30.7984H25.0401H19.2784L13.52 31.5559H7.76165H2Z" fill="black" stroke="#33E6BF" stroke-width="1.51514"/>
<path d="M19.2779 25.0366H13.5195V19.2782H19.2779V25.0366Z" fill="#33E6BF"/>
<path d="M42.3189 13.5195H36.5605V7.76115L42.3189 7.76115V13.5195Z" fill="#33E6BF"/>
<path d="M36.5572 19.2778H30.7988V13.5194H36.5572V19.2778Z" fill="#33E6BF"/>
<path d="M25.0357 19.2778H19.2773V13.5194H25.0357V19.2778Z" fill="#33E6BF"/>
<path d="M30.7974 13.5195H25.0391V7.76115L30.7974 7.76115V13.5195Z" fill="#33E6BF"/>
<path d="M48.0769 19.2778H42.3185V13.5194H48.0769V19.2778Z" fill="#33E6BF"/>
<path d="M53.8386 25.0366H48.0803V19.2782H53.8386V25.0366Z" fill="#33E6BF"/>
<path d="M115.481 25.0366H109.723V19.2782H115.481V25.0366Z" fill="#33E6BF"/>
<path d="M92.44 13.5195H86.6816V7.76115L92.44 7.76115V13.5195Z" fill="#33E6BF"/>
<path d="M98.2017 19.2778H92.4434V13.5194H98.2017V19.2778Z" fill="#33E6BF"/>
<path d="M109.719 19.2778H103.961V13.5194H109.719V19.2778Z" fill="#33E6BF"/>
<path d="M103.96 13.5195H98.2014V7.76115L103.96 7.76115V13.5195Z" fill="#33E6BF"/>
<path d="M86.682 19.2778H80.9236V13.5194H86.682V19.2778Z" fill="#33E6BF"/>
<path d="M80.9185 25.0366H75.1602V19.2782H80.9185V25.0366Z" fill="#33E6BF"/>
<path d="M1 41H4.64314V51.7143H6.46472V45.2857H10.1079V51.7143H11.9294V41H15.5726V53.8571H13.751V56H10.1079V53.8571H6.46472V56H2.82157V53.8571H1V41Z" fill="white"/>
<path d="M17.1027 41H28.0321V43.1429H20.7458V47.4286H26.2106V49.5714H20.7458V53.8571H28.0321V56H17.1027V41Z" fill="white"/>
<path d="M29.5622 41H33.2054V51.7143H35.027V45.2857H38.6701V51.7143H40.4917V41H44.1348V53.8571H42.3133V56H38.6701V53.8571H35.027V56H31.3838V53.8571H29.5622V41Z" fill="white"/>
<path d="M45.6649 41H56.5944V43.1429H49.3081V47.4286H54.7728V49.5714H49.3081V53.8571H56.5944V56H45.6649V41Z" fill="white"/>
<path d="M76.0488 41H83.3351V43.1429H85.1566V45.2857H81.5135V43.1429H77.8703V47.4286H83.3351V49.5714H85.1566V53.8571H83.3351V56H76.0488V53.8571H74.2272V51.7143H77.8703V53.8571H81.5135V49.5714H76.0488V47.4286H74.2272V43.1429H76.0488V41Z" fill="white"/>
<path d="M86.6867 41H90.3299V51.7143H92.1515V45.2857H95.7946V51.7143H97.6162V41H101.259V53.8571H99.4378V56H95.7946V53.8571H92.1515V56H88.5083V53.8571H86.6867V41Z" fill="white"/>
<path d="M104.611 41H111.897V43.1429H113.719V56H110.076V51.7143H106.433V56H102.789V43.1429H104.611V41ZM106.433 43.1429V49.5714H110.076V43.1429H106.433Z" fill="white"/>
<path d="M117.071 41H126.178V43.1429H128V47.4286H126.178V49.5714H120.714V56H117.071V41ZM120.714 43.1429V47.4286H124.357V43.1429H120.714Z" fill="white"/>
</svg>
