<svg width="40" height="38" viewBox="0 0 40 38" fill="none" xmlns="http://www.w3.org/2000/svg">
<path d="M11.7337 2.45326C11.5269 2.43758 11.33 2.42477 11.144 2.41434C11.2308 2.37437 11.321 2.33396 11.4143 2.29326C12.5468 1.79973 14.1273 1.27549 15.9804 0.983971C19.6833 0.401484 24.4421 0.750725 28.9179 4.09106L29.5547 4.56629L29.8026 3.8114L30.3571 2.12287C30.5165 2.27029 30.7012 2.44705 30.9048 2.6523C31.614 3.36725 32.5496 4.42466 33.4498 5.78935C35.2503 8.51875 36.8964 12.4552 36.3402 17.3418L36.2292 18.3166L37.1319 17.9322L39.3396 16.9917C39.3009 17.28 39.2458 17.6286 39.1683 18.0276C38.9379 19.2132 38.5091 20.8382 37.7171 22.6403C36.1352 26.2392 33.105 30.5455 27.2914 33.4828L26.44 33.9131L27.221 34.4607L28.6603 35.4699C28.2459 35.6175 27.712 35.7964 27.0804 35.9838C25.4759 36.46 23.2498 36.989 20.7584 37.2043C15.7633 37.6359 9.80783 36.8026 5.57999 31.8962L4.93319 31.1455L4.60744 32.0813L4.08336 33.5868C3.91943 33.3586 3.73145 33.086 3.52952 32.7739C2.85526 31.7317 2.03139 30.2575 1.4244 28.5232C0.212367 25.0602 -0.122531 20.6178 3.25549 16.449C6.04133 13.008 9.25232 12.0261 11.7635 11.8892C12.6498 11.8408 13.4513 11.8979 14.1179 11.9923C13.4109 12.2693 12.5884 12.6563 11.7663 13.186C9.55352 14.6116 7.31716 17.097 7.40484 21.2237L7.40489 21.2258C7.44968 23.0236 8.17849 24.5203 8.90032 25.5768C9.26271 26.1072 9.62824 26.534 9.91614 26.8412C10.0603 26.995 10.1853 27.1191 10.2808 27.2112C10.3285 27.2573 10.3687 27.2951 10.3994 27.3239L10.437 27.3594L10.4485 27.3702L10.4518 27.3734L10.4528 27.3743L10.4588 27.3803L10.465 27.3861C11.4562 28.3095 16.9999 31.8684 24.5283 27.1768C27.7643 25.1704 31.062 20.0493 28.9317 13.4422C27.0135 7.51474 22.0013 4.75866 17.5817 3.48447C15.3658 2.84564 13.2717 2.56988 11.7337 2.45326Z" stroke="#FFF"/>
</svg>
