<svg width="31" height="30" viewBox="0 0 31 30" fill="none" xmlns="http://www.w3.org/2000/svg">
<path d="M30.1852 12.7597L27.8518 13.7651C28.7206 6.04479 22.7007 1.34061 22.7007 1.34061L22.0801 3.25207C15.0921 -2.02306 7.21046 2.15981 6.94981 2.73077C6.94981 2.73077 18.6544 2.22187 21.4223 10.8731C22.9614 15.7014 20.5783 19.4126 18.282 20.8524C12.8083 24.303 8.83644 21.6716 8.19102 21.0634C8.04207 20.9145 6.08096 19.1892 6.0189 16.6695C5.89478 10.7614 12.2994 9.58224 12.2994 9.58224C12.2994 9.58224 6.50297 7.286 2.12151 12.7597C-3.2281 19.4374 3.22618 27.0212 3.22618 27.0212L3.88403 25.1098C10.5245 32.9045 22.5394 27.6666 22.5394 27.6666L20.7893 26.4254C29.7756 21.833 30.1852 12.9335 30.1852 12.7597Z" fill="#00E676"/>
</svg>
